<svg width="400" height="400" viewBox="0 0 400 400" fill="none" xmlns="http://www.w3.org/2000/svg">
<rect x="5" y="5" width="390" height="390" rx="195" stroke="url(#paint0_linear_30_10)" stroke-width="10"/>
<path d="M126.508 329.943L137.508 329.843V336.843H126.508V329.943ZM104.508 327.343V318.893L111.508 317.343V327.343H104.508ZM114.508 327.343V318.893L121.508 317.343V327.343H114.508ZM124.508 327.343V318.893L131.508 317.343V327.343H124.508ZM110.508 329.843H114.508V321.393L121.508 319.843V329.843H124.508V321.393L131.508 319.843V335.693C131.508 336.093 131.341 336.376 131.008 336.543C130.674 336.71 130.341 336.81 130.008 336.843C129.674 336.843 129.508 336.843 129.508 336.843H110.508V329.843ZM100.058 346.843C98.0245 346.843 96.3745 346.476 95.1078 345.743C93.8411 345.01 92.8745 344.093 92.2078 342.993C91.5411 341.893 91.0911 340.776 90.8578 339.643C90.6245 338.543 90.5078 337.61 90.5078 336.843C90.5078 335.376 90.8078 333.976 91.4078 332.643C92.0411 331.31 92.8411 330.126 93.8078 329.093C94.7745 328.026 95.7745 327.16 96.8078 326.493C96.8745 327.126 96.8411 327.726 96.7078 328.293C96.5745 328.86 96.2745 329.46 95.8078 330.093C96.1745 330.26 96.4745 330.593 96.7078 331.093C96.9745 331.56 97.1578 332.06 97.2578 332.593C97.3578 333.126 97.3578 333.593 97.2578 333.993C96.7245 333.493 96.1911 333.243 95.6578 333.243C95.1245 333.21 94.6245 333.343 94.1578 333.643C93.6911 333.976 93.3078 334.393 93.0078 334.893C92.7078 335.36 92.5578 336.026 92.5578 336.893C92.5578 338.193 92.8578 339.376 93.4578 340.443C94.0578 341.51 94.8578 342.36 95.8578 342.993C96.8578 343.66 97.9578 343.993 99.1578 343.993C100.458 343.993 101.491 343.61 102.258 342.843C103.058 342.11 103.624 341.043 103.958 339.643C104.324 338.276 104.508 336.676 104.508 334.843V321.393L111.508 319.843V336.843C111.508 338.71 111.074 340.393 110.208 341.893C109.341 343.426 108.058 344.626 106.358 345.493C104.691 346.393 102.591 346.843 100.058 346.843ZM135.523 336.843L135.573 329.843H172.773C172.807 328.943 172.523 328.226 171.923 327.693C171.357 327.126 170.14 326.843 168.273 326.843H141.223C141.89 325.943 142.59 324.96 143.323 323.893C144.09 322.826 144.873 321.726 145.673 320.593C146.507 319.426 147.323 318.26 148.123 317.093C148.923 315.926 149.707 314.793 150.473 313.693C151.24 312.593 151.94 311.56 152.573 310.593C152.973 310.026 153.173 309.36 153.173 308.593C153.207 307.793 153.073 307.01 152.773 306.243C152.473 305.476 152.04 304.86 151.473 304.393C150.807 303.826 150.007 303.443 149.073 303.243C148.14 303.043 147.173 303.01 146.173 303.143C145.64 303.21 145.04 303.443 144.373 303.843C143.74 304.21 143.207 304.576 142.773 304.943L140.173 295.743C140.74 295.91 141.373 296.06 142.073 296.193C142.773 296.293 143.457 296.276 144.123 296.143C145.323 295.943 146.69 295.876 148.223 295.943C149.757 296.01 151.273 296.31 152.773 296.843C154.273 297.343 155.59 298.193 156.723 299.393C158.023 300.726 158.99 302.293 159.623 304.093C160.257 305.893 160.507 307.71 160.373 309.543C160.24 311.343 159.64 312.993 158.573 314.493L154.823 319.843H168.273C170.473 319.843 172.273 320.126 173.673 320.693C175.107 321.26 176.24 322.026 177.073 322.993C177.907 323.926 178.507 324.993 178.873 326.193C179.273 327.36 179.523 328.576 179.623 329.843H186.773V336.843H135.523ZM194.265 347.743C193.465 347.743 192.782 347.46 192.215 346.893C191.648 346.326 191.365 345.643 191.365 344.843C191.365 344.043 191.648 343.36 192.215 342.793C192.782 342.226 193.465 341.943 194.265 341.943C195.065 341.943 195.748 342.226 196.315 342.793C196.882 343.36 197.165 344.043 197.165 344.843C197.165 345.643 196.882 346.326 196.315 346.893C195.748 347.46 195.065 347.743 194.265 347.743ZM185.615 347.743C184.815 347.743 184.132 347.46 183.565 346.893C182.998 346.326 182.715 345.643 182.715 344.843C182.715 344.043 182.998 343.36 183.565 342.793C184.132 342.226 184.815 341.943 185.615 341.943C186.415 341.943 187.098 342.226 187.665 342.793C188.232 343.36 188.515 344.043 188.515 344.843C188.515 345.643 188.232 346.326 187.665 346.893C187.098 347.46 186.415 347.743 185.615 347.743ZM190.791 336.843V329.843H201.791V336.843H190.791ZM184.791 336.843V329.843H188.791V321.393L195.791 319.843V335.693C195.791 336.093 195.624 336.376 195.291 336.543C194.958 336.71 194.624 336.81 194.291 336.843C193.958 336.843 193.791 336.843 193.791 336.843H184.791ZM198.781 336.843V329.843H203.631C203.498 329.41 203.381 328.926 203.281 328.393C203.181 327.86 203.165 327.31 203.231 326.743C203.298 326.176 203.498 325.643 203.831 325.143C204.398 324.243 205.215 323.493 206.281 322.893C207.348 322.293 208.798 321.743 210.631 321.243C212.465 320.743 214.798 320.226 217.631 319.693L217.981 320.143C215.581 321.243 213.848 322.21 212.781 323.043C211.748 323.843 211.031 324.576 210.631 325.243C210.431 325.576 210.348 325.976 210.381 326.443C210.448 326.91 210.598 327.31 210.831 327.643C211.331 328.243 211.831 328.76 212.331 329.193C212.865 329.626 213.515 329.843 214.281 329.843H226.281L223.331 336.843H198.781ZM240.539 333.943C240.339 334.676 239.806 335.326 238.939 335.893C238.106 336.426 237.106 336.793 235.939 336.993C234.806 337.193 233.689 337.16 232.589 336.893C231.522 336.66 230.622 336.143 229.889 335.343C229.156 334.51 228.789 333.343 228.789 331.843V298.393L235.789 296.843V331.843C235.789 332.676 235.972 333.293 236.339 333.693C236.706 334.06 237.156 334.293 237.689 334.393C238.222 334.46 238.756 334.443 239.289 334.343C239.822 334.21 240.239 334.076 240.539 333.943ZM241.777 336.843L245.977 329.843H274.527C274.561 328.943 274.277 328.226 273.677 327.693C273.111 327.126 271.894 326.843 270.027 326.843H247.277L255.077 313.843L255.577 314.193L252.977 319.843H270.027C272.227 319.843 274.027 320.126 275.427 320.693C276.861 321.26 277.994 322.026 278.827 322.993C279.661 323.926 280.261 324.993 280.627 326.193C281.027 327.36 281.277 328.576 281.377 329.843H287.527V336.843H241.777ZM290.693 347.743C289.893 347.743 289.21 347.46 288.643 346.893C288.076 346.326 287.793 345.643 287.793 344.843C287.793 344.043 288.076 343.36 288.643 342.793C289.21 342.226 289.893 341.943 290.693 341.943C291.493 341.943 292.176 342.226 292.743 342.793C293.31 343.36 293.593 344.043 293.593 344.843C293.593 345.643 293.31 346.326 292.743 346.893C292.176 347.46 291.493 347.743 290.693 347.743ZM285.523 336.843V329.843H289.523V321.393L296.523 319.843V335.693C296.523 336.093 296.357 336.376 296.023 336.543C295.69 336.71 295.357 336.81 295.023 336.843C294.69 336.843 294.523 336.843 294.523 336.843H285.523ZM300.134 347.793V346.143C300.134 345.51 300.151 344.993 300.184 344.593C300.218 344.226 300.301 343.793 300.434 343.293C300.701 342.293 301.151 341.46 301.784 340.793C302.418 340.16 303.384 339.843 304.684 339.843C305.151 339.843 305.701 339.976 306.334 340.243C307.001 340.543 307.501 341.076 307.834 341.843C307.634 341.743 307.201 341.61 306.534 341.443C305.868 341.276 305.301 341.26 304.834 341.393C304.301 341.526 303.918 341.76 303.684 342.093C303.451 342.46 303.318 342.793 303.284 343.093C303.251 343.426 303.234 343.66 303.234 343.793C303.234 344.46 303.401 344.926 303.734 345.193C304.101 345.46 304.518 345.61 304.984 345.643C305.484 345.71 305.934 345.743 306.334 345.743H307.634L307.684 347.793H300.134ZM296.484 348.243L297.984 345.743H309.984L308.484 348.243H296.484ZM310.754 333.943C310.554 334.676 310.021 335.326 309.154 335.893C308.321 336.426 307.321 336.793 306.154 336.993C305.021 337.193 303.904 337.16 302.804 336.893C301.737 336.66 300.837 336.143 300.104 335.343C299.371 334.51 299.004 333.343 299.004 331.843V298.393L306.004 296.843V331.843C306.004 332.676 306.187 333.293 306.554 333.693C306.921 334.06 307.371 334.293 307.904 334.393C308.437 334.46 308.971 334.443 309.504 334.343C310.037 334.21 310.454 334.076 310.754 333.943Z" fill="url(#paint1_linear_30_10)"/>
<path fill-rule="evenodd" clip-rule="evenodd" d="M193.592 53.1506C191.459 52.4148 188.373 51.463 186.733 51.0344C183.05 50.0734 170.094 49.6525 165.261 50.3372C153.227 52.0428 143.449 56.776 134.13 65.4093C128.876 70.2769 128.463 70.5363 124.306 71.587C115.179 73.893 105.413 79.875 100.159 86.3779C95.422 92.2413 93.251 96.8288 91.9001 103.832C91.3705 106.578 90.4591 109.033 89.376 110.63C81.4715 122.294 79.9984 133.531 85.0447 143.68C87.3416 148.299 89.8979 151.595 94.7361 156.175C98.6928 159.921 98.9051 160.263 100.601 165.6C102.787 172.474 103.949 174.576 107.307 177.727C112.337 182.446 119.014 184.459 127.602 183.847L132.929 183.467L132.554 185.282C132.349 186.28 131.507 189.421 130.685 192.263C128.991 198.114 128.797 202.604 130.053 206.908C132.08 213.854 135.458 217.28 140.279 217.28C143.719 217.28 146.464 215.092 148.295 210.888C156.269 192.588 173.853 172.14 181.616 172.14C182.268 172.14 185.207 172.851 188.149 173.72C196.357 176.146 203.088 176.846 210.311 176.025C221.495 174.751 228.673 172.61 235.452 168.524C239.857 165.868 243.161 162.558 245.991 157.964L247.856 154.937L252.387 153.963C267.681 150.675 279.236 142.072 286.802 128.34C287.949 126.257 289.241 123.634 289.671 122.512C290.101 121.391 290.685 120.473 290.97 120.473C291.586 120.473 291.033 127.415 289.842 134.613C288.024 145.606 287.716 149.939 288.432 154.438C289.967 164.08 294.652 172.042 302.681 178.652C305.389 180.882 307.878 183.173 308.213 183.744C309.056 185.18 307.531 186.397 303.036 187.875C298.898 189.235 293.689 192.309 292.338 194.189C290.555 196.672 291.126 199.871 294.086 203.981C295.56 206.028 296.924 208.156 297.118 208.71C297.61 210.126 296.502 211.121 293.947 211.558C290.977 212.066 287.509 213.743 286.375 215.219C284.858 217.194 285.23 219.537 287.529 222.486C289.587 225.125 290.126 226.526 289.084 226.526C288.792 226.526 287.168 227.661 285.476 229.048C280.036 233.509 278.927 237.138 280.367 245.779C281.475 252.426 281.343 252.632 275.975 252.631C268.55 252.629 257.839 250.441 243.393 245.972C230.238 241.904 226.315 242.251 220.502 248.001C215.414 253.035 213.352 259.549 212.239 274.114L211.783 280.097L209.695 279.915C200.623 279.125 191.39 270.261 185.58 256.765C182.79 250.286 177.962 242.49 174.082 238.2C169.196 232.799 161.667 228.095 154.883 226.204C145.17 223.497 124.641 224.577 122.239 227.921C120.936 229.733 121.417 232.466 123.258 233.714C124.76 234.731 124.983 234.733 133.138 233.797C140.88 232.908 141.897 232.902 147.266 233.702C154.374 234.761 158.482 236.521 163.26 240.554C167.748 244.344 170.901 248.537 174.335 255.284C175.799 258.163 178.047 262.559 179.329 265.054C186.122 278.274 195.587 285.972 207.906 288.299C213.627 289.379 218.853 288.927 220.761 287.187C222.047 286.014 222.081 285.707 221.795 277.869C221.544 270.977 221.692 268.918 222.781 264.119C224.022 258.656 225.56 255.002 227.441 253.05C229.254 251.169 231.631 251.371 241.053 254.208C267.661 262.219 282.962 263.387 288.327 257.815C290.814 255.233 291.16 252.426 289.888 245.17C288.594 237.787 288.892 237.053 294.589 233.612C300.693 229.925 301.68 227.334 298.838 222.459C298.005 221.03 297.4 219.806 297.496 219.736C297.591 219.668 298.958 219.171 300.535 218.632C304.71 217.206 306.913 214.559 306.913 210.97C306.913 207.621 305.929 204.894 303.334 201.048C302.274 199.476 301.512 198.095 301.64 197.977C301.769 197.86 304.186 196.794 307.012 195.609C313.484 192.896 316.692 190.334 317.561 187.187C318.803 182.691 316.589 178.627 309.918 173.162C305.553 169.585 302.255 165.385 299.72 160.175C298.385 157.432 298.266 156.507 298.276 149.026C298.285 142.977 298.585 139.672 299.435 136.245C301.163 129.275 301.07 118.357 299.233 112.587C296.411 103.719 286.982 89.013 281.089 84.2879C279.382 82.919 276.27 80.8947 274.173 79.7896C271.015 78.1248 269.958 77.172 268.022 74.2443C258.408 59.7123 237.617 51.1155 214.524 52.1249C210.392 52.3054 204.864 52.9113 202.24 53.4704L197.468 54.4874L193.592 53.1506ZM134.079 83.6951C134.998 73.5917 148.244 62.8847 163.974 59.5318C167.726 58.7317 170.518 58.5354 176.175 58.673C180.21 58.7709 183.773 59.0912 184.095 59.3849C184.478 59.7335 183.384 60.8436 180.935 62.591C174.296 67.3286 169.424 72.4605 165.869 78.4593C164.939 80.03 163.937 81.3146 163.643 81.3146C163.349 81.3146 161.5 80.3188 159.536 79.1021C155.358 76.515 153.064 76.2382 150.933 78.0628C148.726 79.9544 148.96 82.163 151.589 84.2465C158.296 89.5606 160.053 91.2907 161.683 94.1829C163.309 97.0692 163.47 97.8295 163.448 102.525C163.435 105.367 163.2 108.946 162.926 110.479C162.487 112.943 162.576 113.401 163.696 114.422C164.941 115.558 167.47 115.919 169.413 115.239C171.56 114.488 173.909 107.683 173.909 102.214C173.909 100.956 173.266 97.668 172.48 94.9079C170.889 89.3208 170.945 88.8509 173.862 83.4917C183.008 66.6814 204.512 58.1057 229.079 61.4712C239.633 62.9168 246.983 65.9026 252.93 71.1585L256.515 74.3281L254.452 74.005C249.646 73.2529 233.991 72.5002 228.438 72.7547C222.261 73.0375 219.128 73.936 218.415 75.6285C217.676 77.3846 218.075 79.2158 219.474 80.4912L220.903 81.7937L231.656 81.4712C252.69 80.8403 267.526 84.2389 275.565 91.53C278.949 94.6001 280.377 96.9887 281.558 101.557C285.795 117.942 274.565 136.783 256.404 143.759C254.01 144.678 252.701 145.242 251.98 144.814C251.055 144.265 251.099 142.083 251.062 136.925C251.003 128.682 249.947 121.985 248.23 118.955C247.059 116.891 244.474 115.878 242.303 116.63C239.641 117.553 239.271 119.109 240.352 124.846C241.424 130.538 241.612 141.663 240.71 146.096C239.772 150.707 236.371 156.455 232.896 159.305C226.377 164.65 216.59 167.521 204.924 167.51C200.537 167.507 196.4 167.212 194.871 166.795C193.749 166.488 193.054 166.342 192.765 165.919C192.29 165.226 192.902 163.789 194.501 159.682C196.581 154.336 197.356 147.297 196.691 139.78C196.4 136.49 196.322 133.518 196.517 133.178C196.712 132.837 198.24 131.576 199.912 130.375C205.744 126.188 212.768 116.117 212.893 111.763C212.964 109.312 211.564 107.642 209.013 107.131C206.637 106.655 204.613 107.953 203.718 110.528C201.223 117.701 193.97 124.943 185.576 128.644C180.535 130.866 175.928 132.035 168.513 132.973C166.069 133.282 163.365 133.794 162.506 134.111C159.62 135.174 159.007 138.403 161.249 140.732C163.008 142.558 174.117 141.643 182.54 138.979C184.499 138.359 186.445 137.973 186.864 138.119C187.952 138.5 187.865 148.174 186.728 153.205C186.233 155.393 185.093 158.509 184.194 160.13C182.568 163.056 182.532 163.08 178.741 163.783C174.177 164.629 171.671 166.106 165.116 171.811C157.211 178.691 150.251 187.836 143.114 200.721C139.652 206.97 139.627 206.998 139.11 205.21C138.098 201.713 139.109 195.081 141.956 186.552C144.935 177.63 145.142 176.24 143.756 174.436C142.618 172.955 140.142 172.86 134.929 174.097C129.711 175.336 120.832 174.949 117.429 173.335C113.171 171.314 110.29 166.295 109.222 159.036C108.887 156.762 108.426 156.184 104.091 152.598C99.4139 148.728 95.8699 144.529 93.817 140.427C91.9054 136.606 91.3645 129.403 92.6045 124.28C92.9128 123.007 93.0035 123.066 94.0293 125.223C99.3554 136.423 112.089 144.449 126.978 145.992C134.693 146.792 137.527 145.71 137.527 141.966C137.527 139.55 135.287 138.09 130.935 137.67C124.38 137.038 120.693 136.199 116.188 134.312C110.874 132.087 105.623 127.516 103.414 123.192C96.9787 110.6 101.878 93.7821 114.452 85.3005C117.826 83.0245 122.506 80.7707 123.859 80.7707C124.16 80.7707 124.406 82.361 124.406 84.3042C124.406 87.1975 124.94 89.1544 127.356 95.1031C132.145 106.899 132.729 113.884 129.468 120.359C127.488 124.29 127.421 126.11 129.19 127.827C131.762 130.323 135.353 129.254 137.541 125.343C142.174 117.062 141.41 102.799 135.674 90.5091C134.171 87.2884 133.869 86.001 134.079 83.6951Z" fill="url(#paint2_linear_30_10)"/>
<defs>
<linearGradient id="paint0_linear_30_10" x1="400" y1="0" x2="0" y2="400" gradientUnits="userSpaceOnUse">
<stop stop-color="#610C9F"/>
<stop offset="0.32" stop-color="#940B92"/>
<stop offset="0.615" stop-color="#DA0C81"/>
<stop offset="1" stop-color="#E95793"/>
</linearGradient>
<linearGradient id="paint1_linear_30_10" x1="324.312" y1="303.306" x2="73.2864" y2="344.852" gradientUnits="userSpaceOnUse">
<stop stop-color="#610C9F"/>
<stop offset="0.355" stop-color="#940B92"/>
<stop offset="0.625" stop-color="#DA0C81"/>
<stop offset="0.92" stop-color="#E95793"/>
</linearGradient>
<linearGradient id="paint2_linear_30_10" x1="317.765" y1="50.0296" x2="115.345" y2="314.154" gradientUnits="userSpaceOnUse">
<stop stop-color="#610C9F"/>
<stop offset="0.365" stop-color="#940B92"/>
<stop offset="0.66" stop-color="#DA0C81"/>
<stop offset="0.99" stop-color="#E95793"/>
</linearGradient>
</defs>
</svg>
