<svg width="236" height="239" viewBox="0 0 236 239" fill="none" xmlns="http://www.w3.org/2000/svg">
<path fill-rule="evenodd" clip-rule="evenodd" d="M111.592 3.15061C109.459 2.41476 106.373 1.463 104.733 1.03444C101.05 0.0734311 88.0936 -0.34752 83.2613 0.337204C71.2266 2.04276 61.4494 6.776 52.1302 15.4093C46.8757 20.2769 46.4635 20.5363 42.3058 21.587C33.1793 23.893 23.4134 29.875 18.1595 36.3779C13.422 42.2413 11.2511 46.8288 9.90014 53.8321C9.37052 56.5781 8.45917 59.0331 7.37606 60.6304C-0.528392 72.2936 -2.00157 83.5314 3.0448 93.6805C5.34165 98.2995 7.89793 101.595 12.7362 106.175C16.6929 109.921 16.9052 110.263 18.6014 115.6C20.7867 122.474 21.9486 124.576 25.3071 127.727C30.3367 132.446 37.0137 134.459 45.6017 133.847L50.929 133.467L50.5544 135.282C50.3487 136.28 49.5071 139.421 48.6846 142.263C46.9908 148.114 46.7969 152.604 48.053 156.908C50.0803 163.854 53.4584 167.28 58.2788 167.28C61.719 167.28 64.4637 165.092 66.2947 160.888C74.269 142.588 91.8529 122.14 99.6165 122.14C100.268 122.14 103.207 122.851 106.149 123.72C114.357 126.146 121.089 126.846 128.311 126.025C139.495 124.751 146.673 122.61 153.452 118.524C157.857 115.868 161.161 112.558 163.991 107.964L165.856 104.937L170.387 103.963C185.681 100.675 197.236 92.0723 204.802 78.3403C205.949 76.2567 207.241 73.6342 207.671 72.5122C208.101 71.3908 208.685 70.4727 208.97 70.4727C209.586 70.4727 209.033 77.4151 207.842 84.6132C206.024 95.6063 205.716 99.9387 206.432 104.438C207.967 114.08 212.652 122.042 220.681 128.653C223.389 130.882 225.878 133.173 226.213 133.744C227.056 135.18 225.531 136.397 221.036 137.875C216.898 139.235 211.689 142.309 210.339 144.189C208.555 146.672 209.126 149.871 212.086 153.981C213.56 156.028 214.924 158.156 215.118 158.71C215.61 160.126 214.502 161.121 211.947 161.558C208.977 162.066 205.509 163.743 204.375 165.219C202.858 167.194 203.23 169.537 205.529 172.486C207.587 175.125 208.126 176.526 207.084 176.526C206.792 176.526 205.168 177.661 203.476 179.048C198.036 183.509 196.927 187.138 198.367 195.779C199.475 202.426 199.343 202.632 193.975 202.631C186.55 202.629 175.839 200.441 161.393 195.972C148.238 191.904 144.315 192.251 138.502 198.001C133.414 203.035 131.352 209.549 130.24 224.114L129.783 230.097L127.695 229.915C118.623 229.125 109.39 220.261 103.58 206.765C100.79 200.286 95.9616 192.49 92.0819 188.2C87.1959 182.799 79.6672 178.095 72.8829 176.204C63.1701 173.497 42.641 174.577 40.2386 177.921C38.936 179.733 39.4173 182.466 41.2585 183.714C42.7597 184.731 42.9834 184.734 51.1377 183.797C58.8806 182.908 59.8969 182.902 65.2659 183.702C72.3741 184.761 76.4823 186.521 81.2597 190.554C85.7484 194.344 88.9011 198.537 92.3348 205.284C93.799 208.163 96.0469 212.559 97.3287 215.054C104.123 228.274 113.587 235.972 125.906 238.299C131.627 239.379 136.853 238.927 138.761 237.187C140.047 236.014 140.081 235.707 139.795 227.869C139.544 220.977 139.692 218.918 140.781 214.119C142.022 208.656 143.56 205.002 145.441 203.05C147.254 201.169 149.631 201.371 159.054 204.208C185.661 212.219 200.962 213.387 206.327 207.815C208.814 205.233 209.16 202.426 207.888 195.17C206.594 187.787 206.892 187.053 212.589 183.612C218.693 179.925 219.68 177.334 216.838 172.459C216.005 171.03 215.4 169.806 215.496 169.736C215.591 169.668 216.958 169.171 218.535 168.632C222.71 167.206 224.913 164.559 224.913 160.97C224.913 157.621 223.929 154.894 221.334 151.048C220.274 149.476 219.512 148.095 219.64 147.977C219.769 147.86 222.187 146.794 225.012 145.609C231.484 142.896 234.692 140.334 235.561 137.187C236.803 132.691 234.589 128.627 227.918 123.162C223.553 119.585 220.255 115.385 217.72 110.175C216.385 107.431 216.266 106.507 216.277 99.0256C216.286 92.9772 216.585 89.6722 217.435 86.2448C219.163 79.2752 219.07 68.3566 217.233 62.5867C214.411 53.719 204.982 39.013 199.089 34.2879C197.382 32.919 194.27 30.8947 192.173 29.7896C189.015 28.1248 187.958 27.172 186.022 24.2443C176.408 9.71232 155.617 1.11547 132.524 2.12488C128.392 2.30544 122.864 2.91131 120.24 3.4704L115.468 4.48743L111.592 3.15061ZM52.0795 33.6951C52.998 23.5917 66.2441 12.8847 81.9736 9.53176C85.7264 8.73174 88.5182 8.5354 94.1747 8.673C98.2096 8.77089 101.773 9.09123 102.095 9.38491C102.478 9.73353 101.384 10.8436 98.9348 12.591C92.296 17.3286 87.4238 22.4605 83.8691 28.4593C82.9386 30.03 81.9366 31.3146 81.6426 31.3146C81.3486 31.3146 79.5002 30.3188 77.5356 29.1021C73.3576 26.515 71.0638 26.2382 68.9333 28.0628C66.726 29.9544 66.9604 32.163 69.5894 34.2465C76.2956 39.5606 78.0527 41.2907 79.6827 44.1829C81.3086 47.0692 81.4697 47.8295 81.4482 52.5252C81.4351 55.3669 81.2001 58.9461 80.9263 60.4792C80.4867 62.9429 80.5762 63.4014 81.6957 64.4223C82.941 65.5578 85.4699 65.919 87.413 65.2391C89.5602 64.4875 91.9095 57.6827 91.9095 52.2136C91.9095 50.9556 91.266 47.668 90.4799 44.9079C88.8886 39.3208 88.9453 38.8509 91.8618 33.4917C101.008 16.6814 122.512 8.10575 147.079 11.4712C157.633 12.9168 164.983 15.9026 170.93 21.1585L174.515 24.3281L172.452 24.005C167.646 23.2529 151.991 22.5002 146.438 22.7547C140.261 23.0375 137.128 23.936 136.416 25.6285C135.677 27.3846 136.075 29.2158 137.474 30.4912L138.903 31.7937L149.656 31.4712C170.69 30.8403 185.526 34.2389 193.565 41.53C196.949 44.6001 198.377 46.9887 199.558 51.5566C203.795 67.9421 192.565 86.7826 174.404 93.7588C172.01 94.6784 170.701 95.2421 169.98 94.8143C169.055 94.2653 169.099 92.0833 169.062 86.9246C169.003 78.6818 167.947 71.9847 166.23 68.9554C165.059 66.8914 162.474 65.8776 160.303 66.6303C157.641 67.5533 157.271 69.1093 158.352 74.8465C159.424 80.538 159.612 91.6627 158.71 96.0963C157.772 100.707 154.372 106.455 150.896 109.305C144.377 114.65 134.59 117.521 122.924 117.51C118.537 117.507 114.4 117.212 112.872 116.795C111.749 116.488 111.054 116.342 110.765 115.919C110.29 115.226 110.903 113.789 112.501 109.682C114.582 104.336 115.356 97.2972 114.691 89.7799C114.4 86.4895 114.322 83.5184 114.517 83.1779C114.712 82.8375 116.24 81.5762 117.912 80.3754C123.744 76.1882 130.768 66.1175 130.893 61.7633C130.964 59.3121 129.564 57.6419 127.013 57.1307C124.637 56.6548 122.613 57.953 121.718 60.5282C119.223 67.7007 111.97 74.9427 103.576 78.6437C98.5346 80.866 93.9284 82.0347 86.513 82.9729C84.0689 83.2818 81.3653 83.7941 80.5058 84.1106C77.6197 85.1744 77.0066 88.4028 79.2491 90.7316C81.008 92.5579 92.1171 91.6431 100.54 88.9788C102.499 88.3593 104.445 87.9726 104.865 88.1189C105.952 88.4996 105.865 98.1744 104.729 103.205C104.233 105.393 103.093 108.509 102.194 110.13C100.568 113.056 100.532 113.08 96.7406 113.783C92.1773 114.629 89.6711 116.106 83.1164 121.811C75.2113 128.691 68.251 137.836 61.1136 150.721C57.6519 156.97 57.6275 156.998 57.1104 155.21C56.0976 151.713 57.1092 145.081 59.9565 136.552C62.9351 127.63 63.142 126.24 61.7559 124.436C60.6185 122.955 58.1416 122.86 52.9294 124.097C47.7107 125.336 38.8322 124.949 35.429 123.335C31.1711 121.314 28.2898 116.295 27.2216 109.036C26.887 106.762 26.4266 106.184 22.0911 102.598C17.4139 98.7275 13.87 94.5294 11.8171 90.4271C9.90551 86.6059 9.36455 79.403 10.6045 74.2798C10.9129 73.0066 11.0035 73.0664 12.0294 75.2234C17.3555 86.4232 30.0892 94.4495 44.9784 95.9924C52.6932 96.7919 55.5274 95.7102 55.5274 91.9662C55.5274 89.5504 53.2867 88.0901 48.9351 87.6702C42.3804 87.0383 38.6933 86.1985 34.1885 84.3124C28.8743 82.0869 23.6233 77.5158 21.4136 73.192C14.9787 60.6 19.8778 43.7821 32.4517 35.3005C35.8257 33.0245 40.5058 30.7707 41.8591 30.7707C42.1597 30.7707 42.406 32.361 42.406 34.3042C42.406 37.1975 42.9404 39.1544 45.356 45.1031C50.1447 56.899 50.7292 63.8838 47.4685 70.3585C45.4884 74.2896 45.421 76.1099 47.19 77.8274C49.7618 80.3232 53.3529 79.2545 55.5412 75.343C60.1736 67.0622 59.4096 52.7993 53.6737 40.5091C52.1707 37.2884 51.8695 36.001 52.0795 33.6951Z" fill="url(#paint0_linear_63_35)"/>
<defs>
<linearGradient id="paint0_linear_63_35" x1="235.765" y1="0.0296445" x2="33.3454" y2="264.154" gradientUnits="userSpaceOnUse">
<stop stop-color="#610C9F"/>
<stop offset="0.365" stop-color="#940B92"/>
<stop offset="0.66" stop-color="#DA0C81"/>
<stop offset="0.99" stop-color="#E95793"/>
</linearGradient>
</defs>
</svg>
