<svg width="479" height="384" viewBox="0 0 479 384" fill="none" xmlns="http://www.w3.org/2000/svg">
<path fill-rule="evenodd" clip-rule="evenodd" d="M48 0C21.4903 0 0 21.4903 0 48V336C0 362.51 21.4903 384 48 384H431C457.51 384 479 362.51 479 336V48C479 21.4903 457.51 0 431 0H48ZM87.0364 257.207L87.3643 259.329L90.5586 262.39L93.7529 265.45L94.0903 267.634L94.4276 269.818L95.5106 269.651L96.5935 269.484L96.9585 271.846L97.3235 274.209L99.0956 273.936L100.868 273.662L102.495 284.196L104.122 294.73L102.547 294.974L100.972 295.217L101.063 295.808L101.154 296.398L107.75 295.379L114.346 294.361L113.267 287.371L112.187 280.381L113.264 280.214L114.341 280.048L114.747 282.315L115.155 284.582L116.943 277.087C117.927 272.965 118.796 269.582 118.873 269.57C118.95 269.558 120.805 272.527 122.993 276.168L126.973 282.787L126.675 280.488L126.376 278.189L127.453 278.022L128.53 277.856L129.649 285.099L130.767 292.341L135.735 295.196C138.467 296.767 140.717 298.14 140.735 298.248C140.752 298.356 140.524 298.836 140.227 299.315L139.688 300.186L135.73 297.884C133.553 296.619 131.651 295.532 131.503 295.47C131.3 295.385 131.274 295.62 131.397 296.419L131.561 297.482L136.525 300.327C139.254 301.891 141.504 303.26 141.523 303.368C141.542 303.476 141.313 303.958 141.014 304.441L140.471 305.318L136.521 303.034C134.348 301.778 132.447 300.684 132.295 300.601C132.076 300.482 132.415 303.008 133.97 313.078L135.921 325.703L140.055 325.065L144.19 324.426L144.358 325.509L144.525 326.592L129.068 328.979L113.611 331.367L114.189 335.108L114.767 338.849L115.752 338.697L116.736 338.545L116.919 339.726L117.101 340.908L116.117 341.06C115.152 341.209 115.134 341.224 115.224 341.809C115.356 342.662 115.051 343.707 114.497 344.3C114.034 344.797 113.868 344.834 108.378 345.682L102.735 346.554L102.633 347.498C102.484 348.871 100.954 350.913 99.5915 351.558C98.3229 352.158 97.2509 352.325 95.872 352.137C94.3993 351.936 92.5837 350.649 91.8596 349.292L91.3379 348.314L78.9269 350.232L66.516 352.149L66.3275 353.14C65.7354 356.252 62.5164 358.358 59.3675 357.694C57.8328 357.371 56.3364 356.295 55.6069 354.99L55.0637 354.018L52.5155 354.311C48.6307 354.758 48.2264 354.428 47.5878 350.294L47.1955 347.754L49.35 345.714L51.5046 343.675L50.3738 335.688C49.2623 327.838 49.2479 327.68 49.5322 326.447C49.9264 324.739 50.405 323.692 51.3686 322.433C52.9259 320.398 54.9489 319.26 57.788 318.822L59.4203 318.569L58.8986 315.192C58.4047 311.994 58.361 311.832 58.0776 312.16C57.7506 312.539 52.4007 318.39 52.0294 318.775C51.8614 318.949 51.6478 318.878 51.2297 318.51C51.1611 318.45 51.0958 318.394 51.0344 318.341C50.7511 318.098 50.5504 317.926 50.4907 317.714C50.3455 317.2 51.0304 316.452 53.3778 313.887C53.5876 313.658 53.8106 313.414 54.0476 313.155L57.9278 308.906L57.7569 307.8C57.5971 306.766 57.5668 306.717 57.2871 307.042C56.8247 307.581 51.6955 313.177 51.3405 313.53C51.0644 313.805 50.9464 313.776 50.3882 313.295C50.038 312.993 49.6656 312.642 49.5609 312.515C49.4288 312.354 50.5541 310.983 53.2515 308.02L57.1325 303.758L56.0106 296.494L54.8887 289.231L56.0636 289.05L57.2385 288.868L57.6247 290.999L58.0109 293.13L59.7799 285.727C60.7527 281.655 61.598 278.318 61.6584 278.311C61.7185 278.303 63.5401 281.255 65.7064 284.871L69.6449 291.444L69.3618 289.242L69.0786 287.039L70.2535 286.858L71.4284 286.676L72.5081 293.666L73.5878 300.656L78.5104 299.896L83.4329 299.136L83.3417 298.545L83.2504 297.954L81.6752 298.197L80.1 298.441L78.4728 287.907L76.8457 277.372L78.5193 277.114L80.193 276.855L79.828 274.492L79.4631 272.13L80.546 271.962L81.629 271.795L81.3054 269.678L80.9816 267.561L83.1032 263.705L85.2248 259.849L84.8836 257.634L84.5426 255.419L85.6256 255.251L86.7086 255.084L87.0364 257.207ZM56.1118 261.815C58.5503 262.18 60.6927 263.592 61.9533 265.666L62.5522 266.651L63.4561 266.4C64.0155 266.244 64.7846 266.204 65.4745 266.294C67.8932 266.611 69.5503 268.144 70.1073 270.581L70.4121 271.915L64.4785 272.831L58.5451 273.748L58.3778 272.665L58.2105 271.582L62.8377 270.867C66.0716 270.368 67.4548 270.087 67.4314 269.936C67.3659 269.512 65.8859 268.62 65.0941 268.527C64.0918 268.411 63.2453 268.765 62.1644 269.756L61.3718 270.482L60.9179 268.993C60.367 267.186 59.4672 265.88 58.199 265.047C54.0394 262.313 48.6925 265.105 48.4248 270.151C48.3845 270.911 48.3235 271.57 48.2894 271.617C48.2552 271.664 47.6503 271.599 46.9454 271.474C45.7091 271.254 45.6337 271.263 44.8364 271.717C44.3815 271.977 43.7732 272.56 43.4841 273.013L42.959 273.837L46.9427 273.276L50.9264 272.715L51.0931 273.794L51.2597 274.873L46.1403 275.664L41.0208 276.455L40.8775 275.519C40.42 272.535 42.1377 269.922 45.0044 269.24L46.2124 268.953L46.5193 267.809C47.593 263.806 51.8091 261.171 56.1118 261.815ZM119.712 253.112L120.514 253.492L121.182 252.867C121.773 252.314 122.009 252.225 123.189 252.109C124.922 251.938 125.094 252.074 124.712 253.314C124.419 254.264 124.389 254.293 123.669 254.289C123.066 254.286 122.864 254.381 122.579 254.799C122.387 255.082 122.221 255.616 122.209 255.986C122.187 256.656 122.181 256.661 121.059 256.834L119.93 257.009L119.587 256.288C119.092 255.248 118.52 254.929 117.681 255.225C117.017 255.459 116.989 255.445 116.469 254.613C116.177 254.145 115.932 253.722 115.924 253.673C115.89 253.454 116.835 253.076 117.826 252.911C118.673 252.77 119.086 252.814 119.712 253.112ZM99.8533 256.291C100.28 256.342 100.978 256.606 101.405 256.878L102.182 257.373L102.776 256.664C103.589 255.692 104.624 255.259 105.963 255.33C107.524 255.412 107.563 255.45 107.262 256.602L107.001 257.601L106.052 257.621C105.496 257.633 104.949 257.757 104.734 257.919C104.324 258.227 103.769 259.816 103.861 260.414C103.914 260.753 103.78 260.82 102.739 260.981C101.687 261.143 101.551 261.12 101.492 260.767C101.384 260.11 100.459 258.855 99.9532 258.677C99.6593 258.574 99.1325 258.612 98.5686 258.777L97.6582 259.044L97.1011 258.129L96.5439 257.215L97.1386 256.924C98.5087 256.254 98.8542 256.173 99.8533 256.291ZM85.5122 264.106L84.3593 266.233L85.8642 266.059C86.6918 265.964 88.0234 265.758 88.8233 265.602L90.2774 265.318L88.7382 263.843C87.8917 263.031 87.0789 262.28 86.9321 262.173C86.728 262.026 86.3924 262.483 85.5122 264.106ZM111.556 262.348C111.878 262.416 112.365 262.624 112.638 262.81C113.111 263.134 113.146 263.131 113.426 262.748C113.84 262.183 114.803 261.631 115.586 261.51C116.241 261.409 117.546 261.56 117.573 261.74C117.581 261.79 117.469 262.289 117.325 262.848C117.069 263.838 117.045 263.863 116.422 263.784C115.533 263.671 114.987 264.207 114.868 265.31L114.773 266.178L113.649 266.352L112.525 266.525L112.173 265.726C111.719 264.694 110.966 264.314 110.193 264.725C109.661 265.007 109.633 264.992 109.07 264.093C108.753 263.586 108.52 263.135 108.552 263.09C108.932 262.571 110.63 262.151 111.556 262.348ZM56.4392 273.166L56.6065 274.249L55.0313 274.492L53.456 274.736L53.2888 273.653L53.1215 272.57L54.6967 272.326L56.2719 272.083L56.4392 273.166ZM83.582 270.082L83.7949 271.461L88.0283 270.807L92.2617 270.153L92.0488 268.774L91.8359 267.396L87.6025 268.05L83.3691 268.704L83.582 270.082ZM82.3581 275.21L82.5558 276.49L83.8357 276.293L85.1156 276.095L84.9179 274.815L84.7202 273.535L83.4403 273.733L82.1605 273.931L82.3581 275.21ZM87.2807 274.45L87.4784 275.73L88.8567 275.517L90.235 275.304L90.0373 274.024L89.8396 272.744L88.4613 272.957L87.083 273.17L87.2807 274.45ZM92.2032 273.69L92.4009 274.97L93.7792 274.757L95.1576 274.544L94.9599 273.264L94.7622 271.984L93.3839 272.197L92.0055 272.41L92.2032 273.69ZM80.6387 287.572L81.9314 295.94L91.678 294.435L101.425 292.929L100.132 284.561L98.8394 276.193L89.0928 277.698L79.3462 279.204L80.6387 287.572ZM90.4896 278.302C95.4441 278.339 98.9899 282.802 97.9769 287.726C96.8963 292.979 90.5328 295.449 86.0173 292.367C85.3167 291.889 84.5575 291.128 84.0466 290.39C83.2825 289.287 83.1906 289.031 82.9073 287.222C82.6261 285.426 82.6349 285.132 83.008 283.879C83.8441 281.07 85.8886 279.179 88.9909 278.344C89.0974 278.315 89.7718 278.296 90.4896 278.302ZM118.744 279.44C118.193 281.758 117.711 283.819 117.672 284.019C117.606 284.357 117.85 284.344 121.081 283.845C124.307 283.347 124.549 283.284 124.395 282.981C124.303 282.801 123.22 280.982 121.987 278.939L119.745 275.224L118.744 279.44ZM61.4242 288.672L60.3672 293.122L62.129 292.908C63.098 292.79 64.6667 292.548 65.6153 292.37L67.3397 292.045L65.1149 288.358C63.8912 286.33 62.798 284.57 62.6855 284.446C62.5521 284.299 62.115 285.763 61.4242 288.672ZM87.4547 281.45C83.6883 283.971 84.4031 289.731 88.6548 291.121C90.9892 291.884 93.0328 291.327 94.5435 289.518C96.6234 287.028 96.2164 283.543 93.6239 281.645C91.7701 280.287 89.3078 280.209 87.4547 281.45ZM91.3525 283.844L91.6023 285.461L92.6747 286.259L93.7469 287.057L93.097 287.967L92.4469 288.877L90.9059 287.758L89.3649 286.638L89.0523 284.615L88.7398 282.591L89.9212 282.409L91.1026 282.226L91.3525 283.844ZM59.2588 301.862L60.2016 307.966L66.1087 307.053L72.0157 306.141L71.0729 300.037L70.1301 293.933L64.223 294.845L58.316 295.758L59.2588 301.862ZM116.36 293.042L117.303 299.145L123.309 298.218L129.314 297.29L128.371 291.186L127.429 285.082L121.423 286.01L115.417 286.938L116.36 293.042ZM67.7408 300.652L68.4251 305.083L65.57 305.524L62.7149 305.965L62.0306 301.534L61.3463 297.104L64.2014 296.663L67.0565 296.222L67.7408 300.652ZM125.039 291.802L125.724 296.232L122.868 296.673L120.013 297.114L119.329 292.684L118.645 288.253L121.5 287.812L124.355 287.371L125.039 291.802ZM64.1966 301.2L64.5463 303.464L65.2355 303.358L65.9246 303.251L65.5749 300.987L65.2251 298.722L64.5359 298.829L63.8468 298.935L64.1966 301.2ZM121.495 292.349L121.845 294.614L122.435 294.522L123.026 294.431L122.676 292.167L122.327 289.902L121.736 289.994L121.145 290.085L121.495 292.349ZM86.6937 305.889L87.9711 314.159L89.4479 313.931L90.9246 313.703L89.6472 305.433L88.3699 297.163L86.8931 297.392L85.4163 297.62L86.6937 305.889ZM91.8132 305.099L93.0906 313.369L94.6658 313.125L96.241 312.882L94.9636 304.612L93.6862 296.342L92.111 296.586L90.5358 296.829L91.8132 305.099ZM97.1295 304.278L98.4069 312.547L99.8837 312.319L101.36 312.091L100.083 303.821L98.8057 295.551L97.3289 295.78L95.8521 296.008L97.1295 304.278ZM74.1505 304.299L74.3786 305.776L76.5445 305.441L78.7104 305.107L78.4823 303.63L78.2542 302.153L76.0883 302.488L73.9224 302.822L74.1505 304.299ZM80.6482 303.295L80.8763 304.772L82.55 304.514L84.2237 304.255L83.9956 302.778L83.7674 301.301L82.0938 301.56L80.4201 301.819L80.6482 303.295ZM101.717 300.041L101.945 301.518L104.701 301.092L107.458 300.666L107.23 299.189L107.002 297.713L104.245 298.138L101.489 298.564L101.717 300.041ZM109.396 298.855L109.624 300.332L112.381 299.906L115.137 299.48L114.909 298.003L114.681 296.526L111.924 296.952L109.168 297.378L109.396 298.855ZM61.1597 314.168L61.7832 318.204L63.1615 317.992L64.5398 317.779L64.038 314.53L63.5361 311.281L66.3912 310.84L69.2463 310.399L69.7481 313.648L70.2499 316.897L71.9236 316.638L73.5973 316.38L72.9738 312.343L72.3503 308.307L66.4432 309.219L60.5362 310.131L61.1597 314.168ZM75.3366 311.978L75.9601 316.015L80.8826 315.254L85.8052 314.494L85.1817 310.457L84.5582 306.421L79.6357 307.181L74.7131 307.942L75.3366 311.978ZM102.903 307.72L103.526 311.757L105.464 311.457C107.885 311.083 108.89 311.351 110.018 312.669L110.756 313.531L112.025 321.365L113.294 329.198L116.436 328.713L119.578 328.228L117.525 314.937L115.472 301.646L108.876 302.665L102.279 303.684L102.903 307.72ZM118.565 307.317L119.493 313.322L125.498 312.395L131.504 311.467L130.576 305.462L129.649 299.456L123.643 300.384L117.638 301.311L118.565 307.317ZM127.229 305.979L127.913 310.409L125.058 310.85L122.203 311.291L121.519 306.861L120.835 302.43L123.69 301.989L126.545 301.548L127.229 305.979ZM66.3712 315.278L66.7057 317.444L67.3949 317.338L68.084 317.231L67.7495 315.065L67.4149 312.899L66.7258 313.006L66.0366 313.112L66.3712 315.278ZM123.685 306.526L124.035 308.79L124.625 308.699L125.216 308.608L124.866 306.344L124.516 304.079L123.926 304.171L123.335 304.262L123.685 306.526ZM56.0414 321.585C54.0281 322.475 52.2635 324.628 51.7961 326.762C51.5814 327.743 51.6009 328.483 51.9064 330.969L52.2775 333.986L81.2459 329.512L110.214 325.037L109.391 319.706L108.567 314.374L107.903 313.888L107.239 313.401L82.0712 317.302C62.7825 320.292 56.7024 321.292 56.0414 321.585ZM104.436 315.35C105.716 315.524 106.927 316.471 107.448 317.703C107.641 318.16 107.991 319.778 108.226 321.301L108.654 324.069L81.1627 328.315L53.6716 332.561L53.3687 330.038C53.1006 327.802 53.1069 327.391 53.4257 326.438C53.9968 324.729 55.3647 323.243 56.9615 322.597C57.3569 322.436 67.9352 320.713 80.5301 318.756C100.448 315.662 103.517 315.225 104.436 315.35ZM56.9319 325.26C55.7951 326.158 55.2068 327.809 55.4518 329.414L55.5494 330.054L59.7828 329.4L64.0162 328.746L63.6361 326.285L63.2559 323.823L60.4505 324.26C57.9082 324.656 57.5783 324.75 56.9319 325.26ZM65.802 325.95L66.1821 328.411L70.4155 327.757L74.6489 327.104L74.2687 324.642L73.8886 322.181L69.6552 322.835L65.4218 323.489L65.802 325.95ZM76.4347 324.308L76.8148 326.769L80.9498 326.13L85.0847 325.492L84.7045 323.03L84.3244 320.569L80.1894 321.208L76.0545 321.846L76.4347 324.308ZM86.8705 322.696L87.2506 325.157L91.484 324.503L95.7174 323.849L95.3372 321.388L94.9571 318.927L90.7237 319.581L86.4903 320.234L86.8705 322.696ZM97.5032 321.053L97.8833 323.515L101.92 322.891L105.956 322.268L105.651 320.29C105.367 318.452 105.306 318.283 104.787 317.903C104.236 317.499 104.186 317.501 100.676 318.043L97.123 318.592L97.5032 321.053ZM120.786 321.691L121.744 327.893L127.749 326.966L133.755 326.038L132.797 319.835L131.839 313.633L125.833 314.561L119.828 315.488L120.786 321.691ZM129.419 320.156L130.103 324.586L127.248 325.027L124.393 325.468L123.709 321.038L123.024 316.607L125.879 316.166L128.735 315.725L129.419 320.156ZM125.875 320.703L126.224 322.967L126.815 322.876L127.406 322.785L127.056 320.521L126.706 318.256L126.116 318.347L125.525 318.439L125.875 320.703ZM53.3078 340.339L53.9556 344.533L51.8009 346.572L49.6463 348.611L49.8422 350.261C49.9665 351.307 50.1377 351.999 50.3101 352.151C50.7257 352.519 54.8846 351.853 54.8191 351.429C54.7373 350.899 55.4153 349.148 55.9952 348.391C57.3272 346.652 60.0081 345.751 62.1394 346.327C63.4679 346.686 65.0716 347.924 65.6876 349.067L66.1815 349.983L78.5924 348.066L91.0033 346.149L91.1918 345.157C91.9432 341.209 96.6451 339.294 100.133 341.516C100.965 342.046 102.182 343.515 102.272 344.099C102.302 344.29 102.5 344.373 102.811 344.325L103.304 344.249L102.193 337.062L101.083 329.875L105.218 329.236L109.353 328.597L110.463 335.784L111.573 342.971L112.263 342.865L112.952 342.758L111.75 334.981L110.549 327.203L81.6045 331.674L52.6599 336.145L53.3078 340.339ZM98.1201 339.404L76.9319 342.677L55.7437 345.95L55.4803 343.723C55.2755 341.992 55.2788 341.274 55.4943 340.501C55.8661 339.169 57.0879 337.594 58.2784 336.912C59.2208 336.372 59.7127 336.286 77.9982 333.451L96.7515 330.544L97.4358 334.974L98.1201 339.404ZM59.4343 338.902C58.1342 339.753 57.3245 341.514 57.5504 343L57.6176 343.443L61.6541 342.82L65.6906 342.196L65.3408 339.932L64.9911 337.667L62.5797 338.044C60.6742 338.342 60.0143 338.522 59.4343 338.902ZM67.5067 339.597L67.8565 341.861L71.9914 341.223L76.1264 340.584L75.7766 338.32L75.4268 336.055L71.2919 336.694L67.157 337.333L67.5067 339.597ZM78.1394 337.955L78.4892 340.219L82.2303 339.641L85.9715 339.063L85.6217 336.799L85.2719 334.535L81.5308 335.113L77.7897 335.69L78.1394 337.955ZM87.7876 336.464L88.1374 338.729L91.8785 338.151L95.6197 337.573L95.2699 335.309L94.9201 333.044L91.179 333.622L87.4379 334.2L87.7876 336.464ZM104.527 337.81L105.469 343.914L107.34 343.625L109.211 343.336L108.268 337.232L107.325 331.128L105.454 331.417L103.584 331.706L104.527 337.81ZM122.038 338.936L122.221 340.117L120.547 340.376L118.873 340.634L118.691 339.453L118.508 338.271L120.182 338.013L121.856 337.754L122.038 338.936ZM126.961 338.175L127.143 339.357L125.568 339.6L123.993 339.843L123.81 338.662L123.628 337.48L125.203 337.237L126.778 336.994L126.961 338.175ZM132.08 337.385L132.263 338.566L130.687 338.809L129.112 339.053L128.93 337.871L128.747 336.69L130.322 336.446L131.898 336.203L132.08 337.385ZM137.201 336.602L137.384 337.791L135.751 337.985L134.118 338.179L133.884 337.055L133.65 335.932L135.334 335.672L137.017 335.412L137.201 336.602ZM142.319 335.803L142.501 336.984L140.828 337.243L139.154 337.501L138.972 336.32L138.789 335.139L140.463 334.88L142.136 334.622L142.319 335.803ZM145.863 335.256L146.046 336.437L145.16 336.574L144.274 336.711L144.091 335.529L143.909 334.348L144.795 334.211L145.681 334.074L145.863 335.256ZM58.4521 349.174C56.5579 350.582 56.6038 353.394 58.5439 354.815C60.5034 356.25 63.2059 355.422 63.9524 353.157C65.0407 349.857 61.2389 347.104 58.4521 349.174ZM94.9995 343.347C94.4256 343.79 93.6971 344.778 93.4846 345.402C93.2202 346.179 93.4752 347.666 94.0073 348.449C94.5337 349.225 95.8595 349.942 96.8253 349.973C99.2598 350.051 101.17 347.292 100.201 345.099C99.7154 344.001 99.2355 343.527 98.1932 343.115C97.213 342.727 95.6562 342.84 94.9995 343.347ZM289 10H189L207.018 10.0107H207.018C225.034 10.0215 225.035 10.0215 223.633 10.3891C220.193 11.2908 217.067 13.5371 215.171 16.4701L214.367 17.7148L212.763 17.7289C209.282 17.7592 207.235 19.5908 206.154 23.6418C205.839 24.8207 205.748 25.7977 205.727 28.2629L205.699 31.3891L203.844 32.3041C201.614 33.4039 200.112 34.5625 198.706 36.267C197.172 38.126 196.617 39.3711 196.617 40.951C196.617 41.6594 196.74 42.5342 196.891 42.8949C197.253 43.7603 198.435 45.0527 199.127 45.3395L199.68 45.5686L199.038 47.1592C198.202 49.2348 197.915 51.0232 198.03 53.4455C198.146 55.8848 198.782 57.8762 200.165 60.1314C201.312 62.002 201.545 62.8354 201.293 64.1656C201.025 65.5768 201.073 68.5373 201.382 69.6994C201.983 71.9537 203.036 73.7371 205.085 75.9705C206.517 77.5307 206.694 77.9758 206.86 80.4391C206.926 81.4219 207.11 82.7402 207.268 83.3688C207.75 85.2764 209.162 87.9047 210.476 89.3385L211.664 90.6346L211.067 92.1365C209.639 95.7322 208.394 101.555 208.608 103.636C208.884 106.314 210.524 108.521 212.993 109.536L214.098 109.991L201.549 109.995L189 110H289L276.451 109.995L263.902 109.991L265.007 109.536C267.477 108.521 269.117 106.312 269.391 103.636C269.597 101.614 268.416 95.9916 267.032 92.4072L266.344 90.6258L267.528 89.334C268.837 87.9047 270.251 85.2736 270.732 83.3688C270.89 82.7402 271.074 81.4219 271.14 80.4391C271.306 77.9758 271.483 77.5307 272.915 75.9705C274.964 73.7371 276.017 71.9537 276.618 69.6994C276.927 68.5373 276.975 65.5768 276.707 64.1656C276.455 62.8354 276.688 62.002 277.835 60.1314C280.303 56.1072 280.704 51.4816 278.962 47.1592L278.32 45.5686L278.873 45.3395C279.565 45.0527 280.747 43.7603 281.109 42.8949C281.566 41.8 281.462 39.8254 280.886 38.6498C280.206 37.2639 278.579 35.2953 277.177 34.1621C275.585 32.8754 272.971 31.5996 271.105 31.1996C270.259 31.0182 269.348 30.8086 269.082 30.7342C268.652 30.6139 268.331 29.9043 266.244 24.4496C264.949 21.0678 263.643 17.8498 263.341 17.2986C261.539 14.0123 258.101 11.3682 254.352 10.3852C252.97 10.0229 253.034 10.0215 270.982 10.0107L289 10ZM220.344 15.4238C221.712 14.3213 223.816 13.4035 225.54 13.157C226.229 13.0586 232.374 12.9686 239.195 12.9572C253.026 12.9342 253.179 12.9457 255.797 14.2277C257.707 15.1631 259.948 17.3592 260.85 19.1797L261.479 20.4492L253.043 20.5002L244.607 20.551L243.915 19.7416C243.505 19.2627 242.739 18.7039 242.039 18.3727C239.344 17.0979 235.405 18.0107 231.123 20.9025L229.985 21.6713L229.09 21.402C227.957 21.0611 223.743 21.0648 222.794 21.4076C222.137 21.6449 222.065 21.6201 220.548 20.6312C219.686 20.0695 218.651 19.4529 218.248 19.2609C217.845 19.0691 217.516 18.7998 217.516 18.6625C217.516 18.2488 219.123 16.4082 220.344 15.4238ZM209.265 23.9291C209.753 22.3797 210.446 21.4121 211.354 21.017C212.815 20.3801 215.121 20.96 218.153 22.7268L219.473 23.4965L218.997 24.1215C217.959 25.4822 217.636 26.5564 217.636 28.6523C217.636 30.7459 217.959 31.8227 218.992 33.1773L219.465 33.7967L218.119 34.5723C213.044 37.4982 210.458 37.1387 209.257 33.3398C208.881 32.1518 208.824 31.5379 208.824 28.6523C208.824 25.7496 208.88 25.1555 209.265 23.9291ZM233.682 22.8201C234.885 22.0891 236.248 21.45 237.535 21.0129C238.632 20.6406 240.434 20.766 241.102 21.2611C241.861 21.8234 242.473 22.7924 242.863 24.0502C243.129 24.9086 243.199 25.8752 243.199 28.6523C243.199 32.4434 242.983 33.6691 242.081 34.9943C241.272 36.1834 240.697 36.4668 239.131 36.4482C237.584 36.4297 235.868 35.8123 233.697 34.4938L232.555 33.8002L233.171 32.9059C233.947 31.7766 234.508 29.9955 234.508 28.6555C234.508 27.2982 233.891 25.3395 233.143 24.3227L232.546 23.5104L233.682 22.8201ZM246.304 29.6777C246.423 28.6822 246.165 25.0008 245.914 24.1092L245.789 23.6678L254.24 23.7186L262.692 23.7695L263.737 26.5039C264.311 28.0078 264.913 29.568 265.073 29.9707L265.364 30.7031H255.773H246.182L246.304 29.6777ZM220.574 28.6523C220.574 26.7482 221.793 25.001 223.597 24.3193C224.567 23.9527 228.173 24.0812 228.981 24.5113C230.451 25.2939 231.578 27.091 231.578 28.6523C231.578 30.4242 230.19 32.3605 228.509 32.9332C227.163 33.392 224.492 33.3412 223.375 32.8357C221.549 32.0094 220.574 30.5527 220.574 28.6523ZM239.784 39.4518C242.68 39.2842 244.562 37.6061 245.71 34.1699C245.817 33.8496 246.55 33.8281 257.42 33.8281C268.246 33.8281 269.114 33.8531 270.493 34.2061C273.09 34.8703 275.51 36.4148 277.027 38.3768C278.601 40.4121 278.774 41.3371 277.771 42.341L277.299 42.8125H239.195C236.287 42.8125 233.595 42.813 231.102 42.8134H231.078H231.056H231.035C202.46 42.8186 200.161 42.819 199.853 42.0364C199.826 41.9679 199.815 41.8935 199.802 41.8125C199.789 41.7311 199.775 41.6431 199.744 41.548C199.546 40.9498 199.575 40.7451 199.972 39.9344C200.868 38.1012 204.309 35.1201 205.992 34.7178C206.434 34.6123 206.525 34.7045 206.944 35.6793C207.989 38.1105 209.747 39.3418 212.34 39.458C214.915 39.5736 217.353 38.7525 220.494 36.7121C222.084 35.6799 222.116 35.6687 222.887 35.9037C223.984 36.2381 227.98 36.2369 229.093 35.9018L229.99 35.6318L231.298 36.509C234.375 38.5732 237.32 39.5943 239.784 39.4518ZM212.144 62.6367C211.168 57.8785 211.757 51.6875 213.608 47.2414L214.232 45.7422H239H263.768L264.363 47.1715C265.028 48.7684 265.627 50.8684 265.96 52.7684C266.244 54.392 266.411 54.6811 267.178 54.8857C267.947 55.0906 268.554 54.8529 268.896 54.2133C269.105 53.8234 269.092 53.4281 268.82 51.8936C268.554 50.3937 267.714 47.4441 267.192 46.1775C267.111 45.9805 267.91 45.9402 271.062 45.9822L275.035 46.0352L275.657 47.2994C277.418 50.8793 277.326 54.9848 275.414 58.1445C273.564 61.2021 273.313 62.3129 273.763 65.452C273.979 66.96 273.969 67.3646 273.685 68.6434C273.284 70.4443 272.427 71.9102 270.712 73.7283C268.832 75.7219 268.289 76.9961 268.088 79.8959C267.872 83.0012 267.077 85.1479 265.411 87.1178L264.859 87.7707L264.102 86.5318C263.1 84.8922 261.55 82.8313 260.232 81.3867L259.162 80.2148L260.695 78.6152C262.968 76.2438 264.638 73.8807 266.051 71.0352C267.842 67.4283 268.869 63.9346 269.19 60.3584C269.319 58.9238 269.303 58.8402 268.82 58.3564C267.713 57.2496 266.462 58.0141 266.253 59.925C265.739 64.6254 264.243 68.8055 261.682 72.6953C259.785 75.5777 253.823 81.1463 253.57 80.2727C252.487 76.5408 249.961 75.0813 246.409 76.1352C245.182 76.4988 243.741 77.198 242.588 77.9881C241.885 78.4699 241.697 78.5168 241.124 78.3525C240.763 78.2488 239.807 78.1641 239 78.1641C238.193 78.1641 237.237 78.2488 236.876 78.3525C236.303 78.5168 236.115 78.4699 235.412 77.9881C232.71 76.1357 229.916 75.4285 227.792 76.059C226.612 76.4094 225.277 77.8262 224.741 79.2963L224.305 80.491L223.108 79.6785C222.449 79.2318 220.885 77.8732 219.633 76.6596C217.141 74.2457 216.724 74.0553 215.847 74.9326C214.942 75.8371 215.354 76.7568 217.679 79.0273L218.863 80.1836L217.763 81.3711C216.416 82.8248 214.545 85.3225 213.749 86.7313L213.156 87.7789L212.783 87.3172C210.873 84.952 210.16 83.0639 209.904 79.6959C209.688 76.8562 209.237 75.8074 207.353 73.7764C204.859 71.0867 204.154 69.4922 204.238 66.7383C204.267 65.7715 204.298 64.1455 204.307 63.125C204.325 61.0824 204.18 60.6445 202.712 58.3094C201.531 56.4316 201.207 55.1977 201.207 52.5781C201.207 50.1635 201.449 49.0973 202.453 47.0877L202.979 46.0352L206.905 45.9824L210.831 45.9295L210.265 47.5711C208.132 53.7594 208.157 61.2486 210.33 67.4107C211.131 69.6816 212.407 72.2611 212.9 72.6066C213.48 73.0129 214.197 72.9574 214.72 72.466C215.35 71.8736 215.291 71.165 214.477 69.5479C213.63 67.8652 212.576 64.7436 212.144 62.6367ZM230.724 55.759C230.554 54.5213 229.872 53.3842 228.884 52.6904C227.793 51.9242 225.872 51.7711 224.631 52.3514C222.678 53.2643 221.554 56.0479 222.683 57.1768C223.66 58.1543 224.844 57.6201 225.23 56.0281C225.377 55.4248 225.554 55.1771 225.936 55.0439C226.967 54.6834 227.867 55.3523 227.867 56.4793C227.867 56.9543 228.762 57.6562 229.367 57.6562C229.626 57.6562 230.065 57.4295 230.342 57.1523C230.785 56.7092 230.831 56.5416 230.724 55.759ZM255.797 56.04C255.797 55.0135 254.851 53.3529 253.884 52.6828C253.19 52.2016 252.821 52.0926 251.736 52.049C251.015 52.0201 250.209 52.0877 249.943 52.1992C248.498 52.8064 247.496 54.1516 247.273 55.7846C247.169 56.5381 247.219 56.7131 247.658 57.1523C247.935 57.4295 248.374 57.6562 248.633 57.6562C249.238 57.6562 250.133 56.9543 250.133 56.4793C250.133 55.4035 250.946 54.7404 251.955 54.9937C252.418 55.11 252.867 55.8318 252.867 56.4596C252.867 56.9703 253.691 57.6562 254.305 57.6562C255.062 57.6562 255.797 56.8602 255.797 56.04ZM239.593 59.2168C238.841 59.4324 237.986 59.1906 237.221 58.5469C236.411 57.8656 235.455 57.8717 234.913 58.5615C234.69 58.8445 234.508 59.2004 234.508 59.3525C234.508 60.4117 236.199 61.79 237.944 62.1521C239.879 62.5539 242.484 61.5789 243.206 60.182C243.587 59.4443 243.568 59.1721 243.087 58.5615C242.545 57.8717 241.589 57.8656 240.779 58.5469C240.453 58.8219 239.919 59.1232 239.593 59.2168ZM227.633 80.0965C227.874 79.6018 228.266 79.0975 228.506 78.9758C229.251 78.5973 230.702 78.8391 232.236 79.5973L233.67 80.3059L233.161 81.334C232.781 82.1012 232.636 82.734 232.588 83.8275C232.532 85.133 232.587 85.4164 233.099 86.4232L233.673 87.5537L232.863 88.0283C231.693 88.7147 230.434 89.1266 229.447 89.1467C228.371 89.1687 227.824 88.6098 227.36 87.0152C226.877 85.3539 227.036 81.327 227.633 80.0965ZM245.276 79.8291C245.788 79.5504 246.541 79.1998 246.949 79.05C248.627 78.4344 249.723 78.7705 250.367 80.0984C250.964 81.327 251.122 85.3553 250.64 87.0152C250.179 88.601 249.655 89.135 248.566 89.1305C247.574 89.1264 246.325 88.7248 245.137 88.0283L244.327 87.5537L244.901 86.4232C245.413 85.4164 245.468 85.133 245.412 83.8275C245.364 82.7402 245.218 82.1006 244.846 81.349L244.345 80.3357L245.276 79.8291ZM235.539 83.6758C235.656 82.6324 236.156 81.8973 237.061 81.4359C237.495 81.2145 238.177 81.0943 239 81.0943C241.101 81.0943 242.268 81.9654 242.461 83.6758C242.572 84.6566 242.268 85.4021 241.444 86.1719C240.96 86.6242 240.78 86.6602 239 86.6602C237.22 86.6602 237.04 86.6242 236.556 86.1719C235.732 85.4021 235.428 84.6566 235.539 83.6758ZM213.336 94.9609C214.906 90.2496 217.206 86.3639 220.404 83.0164L221.273 82.107L222.567 82.9463L223.861 83.7856L224.092 85.7111C224.359 87.9348 224.686 88.9584 225.513 90.1603C226.85 92.1033 229.021 92.6168 232.115 91.7221L232.555 91.5951V99.3326V107.07H223.888C216.586 107.07 215.087 107.023 214.369 106.77C212.733 106.192 211.669 104.67 211.661 102.896C211.654 101.535 212.535 97.3623 213.336 94.9609ZM254.091 83.8129L255.383 82.9547L256.676 82.0965L257.902 83.3812C262.201 87.8846 265.335 94.7469 266.192 101.529C266.464 103.69 266.264 104.577 265.249 105.7C264.029 107.051 263.868 107.07 254.102 107.07H245.445V99.3555C245.445 95.1123 245.482 91.6406 245.527 91.6406C245.572 91.6406 246.163 91.7824 246.839 91.9559C250.856 92.9848 253.503 90.5504 253.951 85.4148L254.091 83.8129ZM235.484 98.5156C235.484 92.1225 235.544 89.9018 235.719 89.7266L235.731 89.7141C235.794 89.6513 235.842 89.6031 235.899 89.5694C236.085 89.4587 236.365 89.5049 237.565 89.7031L237.638 89.7152C238.672 89.8859 239.336 89.8822 240.469 89.6994C241.623 89.5133 242.012 89.5125 242.232 89.6957C242.472 89.8943 242.516 91.2529 242.516 98.5004V107.07H239H235.484V98.5156ZM123.075 92.7219L129.355 114.43L126.914 106.038C125.559 101.379 124.452 97.8323 124.426 98.0656C124.35 98.7349 123.631 99.8111 122.991 100.213C122.668 100.416 120.62 101.098 118.44 101.729C114.715 102.806 114.441 102.861 113.871 102.629C113.409 102.442 113.216 102.216 113.061 101.683C112.654 100.274 112.678 100.257 117.249 98.8204L121.318 97.5416L120.883 96.0406L120.449 94.5397L108.381 97.979L96.3122 101.418L96.774 103.014L97.2358 104.61L102.677 103.036C107.868 101.534 108.14 101.474 108.601 101.729C109.341 102.137 109.617 103.322 109.13 104.001C108.764 104.511 108.526 104.597 103.426 106.073L98.1043 107.612L98.8602 110.225C99.6123 112.825 99.6142 112.841 99.2343 113.37C99.0244 113.663 98.674 113.954 98.4561 114.018C98.2381 114.082 96.9977 114.017 95.6998 113.873L93.3397 113.612L91.5034 115.086C90.4934 115.896 89.4618 116.619 89.211 116.692C88.9599 116.764 88.4876 116.676 88.161 116.496C87.589 116.181 87.5402 116.076 86.8319 113.627L86.0967 111.086L84.7042 111.489L83.3115 111.892L83.2854 112.599C83.247 113.626 82.8488 114.465 82.0928 115.112C81.5224 115.6 80.9354 115.824 77.9571 116.685C74.9789 117.547 74.3633 117.672 73.6204 117.563C72.6356 117.42 71.8507 116.923 71.2699 116.075L70.8705 115.491L51.3246 121.146C39.1171 124.678 31.5179 126.802 31.0843 126.803C30.3289 126.805 29.1466 126.278 28.725 125.753C28.5781 125.57 29.5357 129.16 30.8774 133.822L33.2946 142.222L27.0142 120.513L27.2568 119.771C27.618 118.666 28.1332 118.103 29.1896 117.657L30.1382 117.256L29.5099 115.077C28.962 113.178 28.9032 112.759 29.0507 111.809C29.2339 110.631 29.899 109.567 30.9057 108.841C31.6648 108.294 38.5549 106.225 39.1765 106.358C39.7559 106.481 40.3027 107.333 40.264 108.052C40.2134 108.993 39.7348 109.25 36.0418 110.319C32.7066 111.283 32.661 111.303 32.3378 111.889C32.0316 112.444 32.0475 112.611 32.5829 114.462L33.1553 116.44L53.0428 110.686L72.9303 104.933L72.589 103.753C72.1403 102.202 71.255 101.223 70.0476 100.942L69.1756 100.739L57.2394 104.189C45.4502 107.597 45.2956 107.636 44.6963 107.393C43.8856 107.065 43.5393 105.98 43.9981 105.206L44.3144 104.672L56.4441 101.163L57.5062 100.855C67.6371 97.9236 69.2334 97.4616 70.6385 97.7982C70.9013 97.8612 71.1574 97.9521 71.4615 98.06C71.5166 98.0795 71.5732 98.0996 71.6318 98.1202L72.7198 98.5031L73.2875 97.7069C73.5996 97.2691 74.2716 96.6136 74.7809 96.2503C75.6718 95.6148 76.4093 95.3866 94.2918 90.2129C95.3061 89.9195 96.2667 89.6414 97.1767 89.378C111.956 85.0996 113.39 84.6844 114.564 85.0678C114.69 85.109 114.813 85.1595 114.949 85.2153C115.027 85.2473 115.109 85.281 115.199 85.3158C115.629 85.4825 116.306 85.9927 116.705 86.4495C117.337 87.1738 117.511 87.5595 118.062 89.4582L118.694 91.6359L119.71 91.4682C120.841 91.2812 121.578 91.4827 122.473 92.2238L123.075 92.7219ZM75.0564 35.9144C75.575 36.2005 75.6939 36.378 75.768 36.9793C75.8172 37.3764 75.7192 37.9013 75.5506 38.1456C75.2618 38.5641 73.7756 39.015 50.2646 45.8178C25.5414 52.9711 25.2802 53.051 24.774 53.6037C24.7407 53.64 24.7083 53.6745 24.6771 53.7077L24.677 53.7078C24.5777 53.8135 24.4898 53.9071 24.4184 54.0119C23.8663 54.8212 24.2939 56.2989 28.024 69.1876L28.4965 70.8204L28.9688 72.4534L28.9689 72.4536L28.9689 72.4538C32.6967 85.3427 33.124 86.8204 34.023 87.2099C34.1393 87.2604 34.2636 87.2926 34.404 87.3289L34.4041 87.3289C34.4483 87.3404 34.494 87.3522 34.5417 87.3652C35.2546 87.5595 35.5698 87.4782 47.6564 83.9865C59.2252 80.6444 60.0965 80.4171 60.8899 80.5331C61.357 80.6014 61.9095 80.7718 62.1177 80.9118C62.3259 81.0517 64.0471 82.6955 65.9422 84.5647C67.8375 86.4341 69.496 87.9322 69.6277 87.8941C69.7592 87.856 70.3619 85.705 70.9666 83.1139C71.5715 80.523 72.1489 78.2142 72.2499 77.9833C72.3508 77.7524 72.7266 77.3121 73.0851 77.0048C73.694 76.4832 74.5521 76.2102 86.1182 72.8591C98.2021 69.358 98.512 69.2583 99.0111 68.7134L99.0527 68.6684L99.108 68.6093L99.1081 68.6092L99.1082 68.6091C99.2074 68.5035 99.2953 68.4099 99.3667 68.3052C99.9188 67.4959 99.4912 66.0182 95.7613 53.13L95.7612 53.1297L95.7612 53.1296L95.2886 51.4967L94.8164 49.8641L94.8164 49.864C91.0885 36.9744 90.6611 35.4966 89.7621 35.1071C89.6457 35.0567 89.5214 35.0245 89.381 34.9881C89.3368 34.9767 89.2911 34.9648 89.2434 34.9519C88.5727 34.7692 88.1935 34.8451 84.6111 35.8809C80.719 37.0062 80.7078 37.0082 80.1155 36.6816C79.7411 36.4754 79.4597 36.14 79.354 35.7745C79.2482 35.409 79.3071 34.9752 79.5136 34.6009C79.8405 34.0076 79.8436 34.0063 83.849 32.8475C88.428 31.5227 89.3 31.4366 90.8786 32.1536C91.4252 32.4019 92.2267 32.9725 92.6598 33.4218L93.4472 34.2387L98.1967 50.6553L102.946 67.0719L102.719 68.1542C102.45 69.4352 101.973 70.2852 100.996 71.2228L100.279 71.9099L87.6905 75.6083L75.1017 79.3067L74.0979 83.709C72.9047 88.9422 72.7227 89.469 71.8482 90.2175C70.997 90.9461 70.0991 91.2059 68.9904 91.0443C67.8513 90.8784 67.4161 90.5301 63.613 86.7423L60.4138 83.5561L47.795 87.1506L35.1759 90.7451L34.2035 90.5466C32.8765 90.2756 32.0189 89.8119 31.1078 88.8722L30.3379 88.0784L25.5884 71.6618L20.8389 55.2452L21.0684 54.1341C21.352 52.762 22.251 51.3561 23.2746 50.6847C23.9202 50.261 28.2348 48.9633 49.2414 42.8741L74.434 35.5714L75.0564 35.9144ZM47.8089 57.4642C48.5024 57.7566 48.8475 58.9171 48.4537 59.6325C48.2041 60.0861 47.9175 60.2284 46.0358 60.833L43.9011 61.5189L44.3307 63.0037L44.7603 64.4885L46.6851 63.9382C48.7573 63.3456 49.1527 63.3705 49.7235 64.129C50.1702 64.723 50.1032 65.6685 49.5826 66.1152C49.359 66.3071 48.3778 66.6951 47.4023 66.9773L45.6288 67.4904L46.063 68.9914L46.4972 70.4923L48.5192 69.9073C50.7053 69.2749 51.2932 69.3032 51.8694 70.0692C52.2408 70.5629 52.2074 71.6203 51.8081 72.0099C51.6486 72.1655 50.1288 72.6948 48.4308 73.1861C45.6706 73.9846 45.2855 74.0548 44.7968 73.8487L44.2501 73.6183L42.2969 66.867C40.4524 60.4916 40.3573 60.0883 40.5869 59.6176C40.8161 59.1477 41.0145 59.0659 44.0635 58.1838C46.8911 57.3658 47.3613 57.2755 47.8089 57.4642ZM53.1975 55.7389C53.4139 55.7848 55.4241 57.2983 57.6646 59.1019L61.738 62.3811L60.7031 58.4526C59.7759 54.933 59.6934 54.4723 59.9114 54.0262C60.2411 53.3518 61.2991 53.053 62.0319 53.4274L62.5841 53.7098L64.5116 60.3723C66.416 66.9547 66.4358 67.0415 66.1569 67.5872C65.9594 67.9733 65.6638 68.2004 65.1735 68.3422L65.1106 68.3606C64.9863 68.3971 64.8822 68.4276 64.7762 68.438C64.2288 68.4915 63.6288 68.0076 59.9334 65.027L59.9333 65.0269L59.9332 65.0269L59.5728 64.7362L55.8601 61.7422L56.8928 65.6632C57.8179 69.1755 57.9001 69.6362 57.6823 70.0821C57.3526 70.7566 56.2946 71.0554 55.5618 70.681L55.0096 70.3985L53.0821 63.736C51.1777 57.1536 51.1579 57.0668 51.4368 56.5211C51.7355 55.9372 52.5109 55.5927 53.1975 55.7389ZM76.1071 49.672C78.0278 49.976 78.7669 50.8841 78.0911 52.1098C77.673 52.8686 77.0015 53.06 75.6562 52.8043C71.2142 51.9598 68.258 57.4431 71.4275 60.6469C74.0921 63.3402 78.3485 62.1913 78.7518 58.67L78.8423 57.8814L77.6079 58.2385C76.155 58.6588 75.7346 58.6048 75.1937 57.928C74.7243 57.3408 74.7372 56.3429 75.22 55.8718C75.3768 55.7188 76.5659 55.2868 77.8625 54.9116C79.9599 54.3048 80.2729 54.2586 80.6979 54.4929C81.3965 54.878 81.6597 55.4545 81.836 56.9868C82.285 60.8902 80.4323 63.9276 76.9965 64.9217C74.7424 65.5738 72.2319 65.2276 70.4549 64.0196C66.6521 61.4346 65.8018 55.958 68.6614 52.4688C69.8407 51.0297 70.8381 50.4215 72.8688 49.9032C74.4242 49.5062 74.8621 49.4749 76.1071 49.672ZM76.239 99.1507C75.3679 100.033 75.1422 101.333 75.5909 102.884L75.9322 104.064L95.8198 98.3104L115.707 92.5567L115.135 90.5783C114.6 88.7276 114.524 88.5784 113.969 88.2725L113.375 87.9451L95.1214 93.2293L76.868 98.5137L76.239 99.1507ZM30.2356 120.812C30.2226 120.967 30.4056 121.669 30.6425 122.372L31.0732 123.65L51.4971 117.843C69.3171 112.776 71.9673 112.061 72.284 112.236C72.4836 112.346 72.9476 112.898 73.3151 113.462L73.9836 114.489L77.0639 113.598L80.1442 112.707L80.1564 111.483C80.1744 109.661 80.3423 109.498 82.9976 108.73L85.2282 108.084L84.7668 106.49L84.3055 104.895L57.2826 112.713C34.7774 119.224 30.2557 120.578 30.2356 120.812ZM88.5256 108.237L89.7438 112.448L90.9232 111.508C91.5718 110.991 92.2816 110.519 92.5004 110.459C92.7191 110.399 93.5385 110.428 94.3209 110.523L95.7436 110.697L94.5274 106.493L93.3111 102.289L90.3092 103.158L87.3073 104.026L88.5256 108.237ZM419.078 246L334 298.552L343.601 292.631C352.05 287.421 353.139 286.788 352.681 287.355C352.151 288.01 351.655 289.968 351.913 290.386C351.99 290.511 351.998 290.648 351.929 290.691C351.861 290.733 353.225 293.067 354.96 295.877L358.116 300.986L357.251 302.002C356.776 302.56 356.175 303.366 355.918 303.792C355.66 304.218 355.358 304.55 355.246 304.53C355.134 304.509 355.138 304.544 355.253 304.608C355.461 304.721 354.933 305.978 354.646 306.053C354.565 306.075 354.546 306.14 354.606 306.198C354.665 306.256 354.598 306.84 354.457 307.495C353.926 309.962 354.127 312.274 355.1 314.903C355.861 316.959 357.614 319.032 359.772 320.427C360.492 320.893 361.076 321.336 361.071 321.412C361.066 321.488 361.088 321.487 361.119 321.408C361.197 321.217 363.056 321.98 363.121 322.23C363.149 322.339 363.193 322.341 363.218 322.235C363.243 322.128 363.822 322.142 364.503 322.265C366.128 322.559 368.497 322.381 370.239 321.833L371.639 321.393L377.342 330.529C381.85 337.752 383.011 339.709 382.883 339.871C382.793 339.984 382.471 340.258 382.166 340.479C381.861 340.701 381.597 340.943 381.58 341.017C381.495 341.374 380.185 342.996 379.98 342.996C379.852 342.996 379.839 343.042 379.95 343.098C380.062 343.154 379.985 343.463 379.779 343.786C379.573 344.108 379.245 344.901 379.05 345.547C378.855 346.194 378.634 346.756 378.559 346.796C378.484 346.837 378.456 346.927 378.496 346.997C378.627 347.227 378.41 349.16 378.253 349.147C378.213 349.144 378.189 349.147 378.184 349.154C378.177 349.161 378.192 349.173 378.228 349.189C378.299 349.218 378.433 349.94 378.527 350.791C378.621 351.643 378.924 352.972 379.2 353.743C380.489 357.348 383.897 360.389 387.715 361.343C388.363 361.505 388.914 361.702 388.939 361.781C388.964 361.86 389.03 361.873 389.086 361.81C389.282 361.587 390.642 361.677 390.65 361.914C390.653 361.986 390.663 362.025 390.677 362.026C390.689 362.028 390.703 362.004 390.717 361.955C390.749 361.846 391.181 361.725 391.677 361.685C392.174 361.645 393.163 361.469 393.875 361.294L395.17 360.975L396.853 363.597C398.231 365.744 398.618 366.242 398.991 366.35C399.61 366.529 400.524 365.94 400.685 365.258C400.801 364.766 400.676 364.499 399.221 362.145L397.631 359.569L398.086 359.284C398.882 358.787 400.337 357.22 401.092 356.047C401.494 355.424 401.87 354.884 401.929 354.848C401.987 354.812 402.206 354.909 402.416 355.063C403.039 355.523 408.86 365.034 408.916 365.684C408.962 366.221 408.929 366.25 406.689 367.697C404.869 368.873 404.308 369.162 403.871 369.151C403.298 369.135 402.478 369.55 402.297 369.948C402.152 370.265 402.218 371.085 402.415 371.402C402.678 371.829 404.062 372.123 404.925 371.936C405.641 371.781 404.619 372.451 396.143 377.695L386.551 383.63L471.63 331.078L441.009 349.982C414.511 366.341 410.456 368.801 410.899 368.249C411.774 367.156 412.014 365.989 411.643 364.63C411.557 364.314 411.92 364.057 416.244 361.376C419.835 359.151 421.059 358.316 421.449 357.83C421.73 357.479 422.067 357.189 422.198 357.184C422.254 357.182 422.289 357.176 422.303 357.166C422.322 357.154 422.301 357.136 422.237 357.117C422.127 357.085 422.19 356.686 422.378 356.23C422.565 355.774 422.693 354.857 422.661 354.192L422.603 352.983L420.377 349.255L418.151 345.528L434.176 335.544C449.726 325.858 450.926 325.086 450.969 324.76C450.98 324.675 451.209 324.245 451.479 323.804C452.122 322.75 452.541 321.269 452.554 320.002C452.56 319.44 452.625 318.943 452.698 318.897C452.772 318.852 452.762 318.779 452.675 318.735C452.589 318.692 452.372 318.184 452.194 317.606C451.92 316.721 449.281 312.365 435.532 290.105C420.123 265.16 419.166 263.646 418.687 263.485C418.409 263.391 417.914 263.416 417.588 263.539C417.11 263.72 416.964 263.897 416.833 264.454L416.67 265.144L433.019 291.614C444.504 310.209 449.436 318.316 449.597 318.861C450.067 320.453 449.016 323.008 447.508 323.939L446.987 324.261L445.392 321.679C443.401 318.455 442.777 317.98 440.757 318.151C439.74 318.237 434.709 321.345 434.177 322.216C433.12 323.945 433.265 324.716 435.256 327.94L436.851 330.522L434.608 331.908L432.365 333.293L412.654 301.383L392.944 269.473L401.074 264.517C409.075 259.638 409.218 259.559 410.109 259.504C411.055 259.445 412.558 259.816 413.249 260.279C413.658 260.553 414.484 260.546 414.94 260.264C415.361 260.004 415.523 258.828 415.208 258.317C415.047 258.057 414.448 257.622 413.876 257.35C413.305 257.079 412.816 256.785 412.79 256.697C412.764 256.609 412.7 256.621 412.649 256.724C412.528 256.966 411.9 256.758 411.962 256.496C411.988 256.387 411.948 256.366 411.873 256.449C411.799 256.533 411.282 256.594 410.725 256.584C410.566 256.581 410.425 256.574 410.295 256.567C410.157 256.56 410.03 256.553 409.903 256.553C408.487 256.555 407.073 257.422 389.892 267.953C388.441 268.843 386.877 269.801 385.192 270.834L362.388 284.805L361.989 284.429C361.109 283.599 359.793 283.342 358.357 283.721C358.085 283.793 371.636 275.335 388.471 264.926L419.078 246ZM416.773 286.68C419.613 284.926 420.526 283.722 420.379 281.923C420.314 281.125 420.102 280.734 417.041 275.78L413.773 270.489L412.934 270.091C412.472 269.873 411.712 269.676 411.245 269.654C410.42 269.614 410.312 269.666 407.381 271.476C404.467 273.276 404.354 273.364 404.029 274.1C403.557 275.164 403.549 276.296 404.005 277.416C404.219 277.941 405.713 280.397 407.326 282.873C409.885 286.801 410.346 287.429 410.947 287.797C412.438 288.712 413.954 288.421 416.773 286.68ZM433.592 306.848C434.144 306.012 434.416 304.866 434.256 304.045C434.185 303.681 432.964 301.564 430.936 298.291C427.958 293.484 427.677 293.084 427.024 292.7C425.493 291.799 424.001 292.087 421.186 293.826C418.345 295.58 417.433 296.784 417.58 298.583C417.645 299.38 417.857 299.771 420.829 304.582C422.825 307.815 424.181 309.863 424.474 310.088C425.136 310.598 426.282 310.868 427.277 310.748C428.531 310.597 432.895 307.902 433.592 306.848ZM408.869 273.885C410.98 272.582 411.119 272.522 411.581 272.721C412.306 273.033 417.534 281.496 417.488 282.285C417.459 282.787 417.343 282.884 415.233 284.188C413.123 285.491 412.984 285.551 412.522 285.352C412.111 285.175 411.61 284.455 409.309 280.73C407.009 277.005 406.589 276.235 406.614 275.788C406.643 275.286 406.759 275.189 408.869 273.885ZM422.726 296.318C424.836 295.015 424.975 294.955 425.437 295.154C425.848 295.331 426.349 296.051 428.649 299.776C430.95 303.501 431.37 304.271 431.344 304.717C431.315 305.219 431.2 305.317 429.089 306.621C426.979 307.924 426.84 307.984 426.378 307.785C425.967 307.608 425.466 306.888 423.166 303.163C420.865 299.438 420.445 298.668 420.471 298.221C420.5 297.719 420.615 297.622 422.726 296.318ZM438.737 322.24C440.593 321.094 440.872 320.971 441.352 321.085C441.837 321.199 442.027 321.433 443.275 323.455L444.661 325.698L441.919 327.392L439.178 329.085L437.792 326.842L437.662 326.632C436.811 325.256 436.394 324.582 436.527 324.043C436.655 323.525 437.291 323.132 438.54 322.362L438.737 322.24ZM370.684 283.238L380.571 277.131L390.458 271.024L406.214 296.531L421.969 322.038L415.283 326.173C409.151 329.965 408.557 330.367 408.121 331.024C407.554 331.875 407.429 332.464 407.593 333.501C407.699 334.164 408.552 335.625 413.748 344.039C419.597 353.508 419.781 353.83 419.786 354.556C419.791 355.516 419.423 355.979 417.918 356.909L416.698 357.663L415.178 355.33C413.755 353.145 413.601 352.967 412.743 352.514C412.239 352.248 411.376 352.006 410.825 351.977C409.877 351.926 409.705 351.99 407.679 353.133L405.536 354.342L404.893 353.538C404.54 353.097 403.926 352.564 403.528 352.355L402.806 351.975L402.963 350.967C403.049 350.413 403.082 349.393 403.035 348.702C402.563 341.684 396.539 336.495 389.649 337.17C388.696 337.263 387.49 337.484 386.968 337.661C386.446 337.838 385.909 338.016 385.775 338.056C385.583 338.114 384.36 336.213 379.915 328.94L374.298 319.751L375.319 318.696C377.563 316.375 378.962 312.756 378.807 309.672C378.55 304.556 375.411 300.225 370.745 298.548L369.589 298.133L369.557 297.184C369.537 296.595 369.36 295.968 369.091 295.529L368.656 294.822L370.061 293.954C372.803 292.26 373.774 290.806 373.532 288.754C373.414 287.757 373.263 287.42 372.043 285.441L370.684 283.238ZM410.54 332.68C410.65 332.535 413.613 330.643 417.125 328.474L423.508 324.531L426.69 329.682L429.872 334.833L427.145 336.518L424.418 338.202L422.745 335.62C420.863 332.714 420.524 332.424 418.754 332.198L417.797 332.076L414.872 333.811L411.947 335.545L411.143 334.244C410.505 333.211 410.381 332.889 410.54 332.68ZM393.368 301.088C396.777 299.149 397.814 297.895 397.706 295.841C397.675 295.24 397.275 294.501 394.623 290.146C391.424 284.89 391.036 284.389 389.796 283.911C388.406 283.374 387.518 283.63 384.673 285.387C381.406 287.405 380.8 288.2 380.963 290.252C381.023 290.999 381.284 291.478 384.198 296.196C387.318 301.248 387.38 301.335 388.207 301.821C388.75 302.141 389.427 302.315 390.127 302.316C391.139 302.317 391.346 302.239 393.368 301.088ZM408.179 322.941C411.109 321.041 411.536 320.505 411.541 318.721L411.543 317.61L408.537 312.676C404.941 306.775 404.779 306.588 402.961 306.281C401.715 306.071 400.376 306.598 397.825 308.304C395.891 309.597 395.728 309.747 395.276 310.653C394.964 311.279 394.817 311.962 394.859 312.591C394.924 313.547 394.973 313.641 398.068 318.644C401.566 324.297 401.801 324.566 403.457 324.81C404.713 324.995 405.478 324.692 408.179 322.941ZM386.212 287.88C388.213 286.644 388.54 286.492 388.846 286.655C389.059 286.769 390.292 288.612 392.015 291.395C394.497 295.403 394.824 296.005 394.747 296.422C394.671 296.832 394.384 297.066 392.597 298.169C391.463 298.87 390.343 299.455 390.107 299.47C389.7 299.495 389.541 299.272 386.727 294.717C384.568 291.22 383.795 289.85 383.851 289.614C383.903 289.394 384.657 288.841 386.212 287.88ZM400.061 310.318C401.72 309.293 402.182 309.078 402.568 309.149C403.005 309.229 403.26 309.589 405.856 313.791C407.599 316.613 408.679 318.508 408.695 318.773C408.72 319.164 408.526 319.322 406.435 320.614C404.877 321.576 404.044 322.002 403.825 321.951C403.589 321.895 402.709 320.59 400.55 317.094C397.736 312.539 397.608 312.297 397.813 311.944C397.931 311.74 398.943 311.008 400.061 310.318ZM416.206 336.196C417.591 335.393 418.346 335.049 418.632 335.089C418.981 335.138 419.273 335.514 420.472 337.454L421.896 339.76L419.237 341.402L416.579 343.044L415.144 340.722L415.014 340.512L415.014 340.511C414.18 339.163 413.767 338.495 413.902 337.968C414.035 337.452 414.694 337.071 415.999 336.315L416.206 336.196ZM364.038 287.344L366.115 286.061L368.192 284.778L369.463 286.837C371.193 289.636 371.188 289.672 368.86 291.216L367.135 292.359L365.587 289.852L364.038 287.344ZM408.717 355.742C410.363 354.797 410.558 354.728 411.071 354.908C411.555 355.077 411.804 355.384 412.903 357.163L414.174 359.222L412.097 360.505L410.02 361.788L408.471 359.28L406.922 356.772L408.717 355.742ZM394.653 331.335C394.812 331.237 395.042 330.88 395.166 330.542L395.391 329.927L390.685 322.308L385.978 314.688L385.328 314.614C384.97 314.573 384.548 314.62 384.389 314.718C384.231 314.815 384.001 315.172 383.877 315.51L383.652 316.125L388.358 323.745L393.065 331.364L393.715 331.438C394.073 331.479 394.495 331.432 394.653 331.335ZM365.32 300.839C368.054 300.537 370.668 301.345 372.803 303.152C373.213 303.499 373.825 304.349 374.525 305.545C375.555 307.305 375.619 307.485 375.782 309.089C376.442 315.567 370.822 320.638 364.471 319.294C357.481 317.816 354.69 309.312 359.43 303.928C360.165 303.094 360.677 302.7 362.001 301.954C363.479 301.121 363.829 301.003 365.32 300.839ZM387.548 340.569C390.659 339.441 394.007 340.033 396.781 342.202C397.512 342.774 397.869 343.236 398.765 344.768C399.828 346.587 399.862 346.686 400.031 348.496C400.245 350.78 399.773 352.669 398.496 354.647C397.715 355.855 397.44 356.126 396.044 357.068C394.115 358.369 392.441 358.877 390.326 358.802C386.447 358.664 382.906 355.973 381.777 352.303C380.275 347.421 382.798 342.29 387.548 340.569ZM357.218 287.705C359.561 286.32 359.599 286.305 360.063 286.585C360.694 286.965 366.789 296.962 366.677 297.433C366.622 297.665 366.261 297.779 365.219 297.892C363.793 298.047 361.743 298.642 360.934 299.136L360.475 299.416L357.557 294.692C355.021 290.585 354.652 289.912 354.741 289.538C354.826 289.178 355.223 288.884 357.218 287.705ZM369.65 315.199C371.59 313.976 372.631 311.891 372.445 309.599C372.335 308.252 371.28 306.204 370.319 305.473C369.268 304.673 368.025 304.216 366.774 304.168C365.129 304.105 364.224 304.368 362.97 305.273C359.886 307.5 359.564 311.997 362.312 314.478C364.482 316.438 367.252 316.71 369.65 315.199ZM395.778 352.696C396.504 351.538 396.84 350.111 396.706 348.759C396.592 347.627 395.612 345.635 394.849 344.988C392.701 343.168 389.931 342.903 387.625 344.299C385.2 345.767 384.203 348.366 384.984 351.184C385.735 353.894 388.352 355.607 391.434 355.407C392.825 355.316 394.977 353.973 395.778 352.696ZM364.811 307.527C365.711 306.972 366.989 306.927 367.907 307.419C370.646 308.887 369.794 312.964 366.698 313.207C363.479 313.459 362.071 309.219 364.811 307.527ZM388.085 347.831C388.973 346.357 390.47 345.926 392.128 346.666C394.225 347.602 394.338 350.813 392.319 352.06C389.579 353.753 386.418 350.596 388.085 347.831ZM375.704 27L468.324 64.7043L445.657 55.5045C432.357 50.1065 423.487 46.5808 424.194 46.9728C424.856 47.34 425.508 47.6458 425.643 47.6522C425.778 47.6586 425.885 47.7458 425.881 47.8457C425.877 47.9454 426.188 48.1858 426.574 48.3793C426.959 48.5729 427.296 48.7935 427.323 48.8697C427.35 48.9456 427.931 49.499 428.615 50.0993C429.298 50.6997 430.388 51.8491 431.036 52.6538C431.684 53.4584 432.314 54.1256 432.436 54.1365C432.557 54.1473 432.578 54.1894 432.482 54.23C432.385 54.2708 432.572 54.7454 432.896 55.2847C433.22 55.8242 433.686 56.7179 433.932 57.2708C434.178 57.8237 434.474 58.2413 434.59 58.199C434.706 58.1565 434.713 58.1907 434.605 58.2752C434.498 58.3596 434.53 58.69 434.676 59.0094C435.329 60.4313 434.129 61.7296 432.69 61.1606C432.557 61.1085 432.039 60.1474 431.537 59.025C430.464 56.6247 429.13 54.6455 427.457 52.971C418.946 44.4517 405.013 45.4413 397.628 55.0894L396.444 56.6361L391.891 67.646C388.536 75.7594 387.312 78.8818 387.24 79.5141C387.103 80.6997 387.73 82.3848 388.618 83.2202C389.295 83.8577 390.247 84.2686 404.263 89.9744L419.187 96.0498L420.084 95.9554C421.276 95.8299 422.766 95.0896 423.351 94.3328C423.659 93.9332 425.314 90.0601 428.105 83.2065C432.808 71.656 433.053 70.9032 433.173 67.6522C433.245 65.6796 433.447 65.0496 434.079 64.8196C434.682 64.6001 435.76 65.0527 435.963 65.6104C436.051 65.8513 436.108 66.61 436.09 67.2963C436.072 67.9828 436.086 68.6035 436.12 68.6754C436.154 68.7474 436.127 68.9736 436.06 69.1781C435.992 69.3826 435.824 70.2629 435.685 71.1343C435.453 72.5925 435.061 73.6344 430.757 84.2058L426.081 95.6928L425.238 96.5615C423.67 98.1773 421.045 99.059 418.762 98.7368L417.798 98.6007L417.426 99.6856C417.222 100.282 416.994 100.746 416.919 100.715C416.845 100.684 416.697 100.871 416.592 101.13C416.033 102.503 412.91 105.492 410.87 106.607C410.368 106.881 409.99 107.193 410.029 107.3C410.068 107.408 410.031 107.408 409.946 107.3C409.758 107.061 408.643 107.54 408.757 107.811C408.802 107.917 408.768 107.945 408.681 107.872C408.595 107.8 408.025 107.868 407.415 108.024L406.306 108.308L405.617 109.979C405.113 111.203 404.991 111.672 405.159 111.733C405.285 111.778 406.138 111.951 407.055 112.116L408.721 112.417L408.876 112.954C409.006 113.409 408.873 113.875 407.998 116.025L406.966 118.56L407.424 118.859C408.857 119.79 411.586 121.333 411.71 121.281C411.789 121.248 411.915 121.326 411.989 121.455C412.063 121.584 414.333 123.005 417.034 124.613C422.432 127.827 422.708 128.065 422.274 129.131C421.947 129.934 421.202 130.186 420.31 129.796C419.62 129.493 419.618 129.494 419.758 130.028C419.835 130.322 419.999 130.551 420.121 130.536C420.243 130.521 420.267 130.546 420.174 130.592C420.081 130.637 420.094 131.245 420.203 131.943C420.313 132.64 420.387 133.731 420.369 134.367C420.337 135.498 420.045 137.328 419.938 137.073C419.909 137.003 419.689 137.047 419.449 137.172C418.208 137.818 417.334 136.803 417.494 134.9C417.711 132.313 416.588 129.02 414.832 127.1C413.753 125.919 412.584 125.126 408.084 122.519L404.746 120.585L399.426 119.726C396.499 119.254 394.023 118.881 393.923 118.898C393.823 118.915 392.153 122.831 390.211 127.601L386.681 136.274L395.175 139.732L403.669 143.19L405.865 137.949L408.06 132.708L408.628 132.537C409.4 132.303 410.024 132.599 410.339 133.348L410.603 133.973L408.501 139.137L406.399 144.301L409.73 145.657L413.061 147.013L414.38 143.946C415.659 140.974 415.717 140.874 416.267 140.707C417.039 140.474 417.663 140.77 417.979 141.519C418.242 142.143 418.24 142.149 416.687 145.963C415.068 149.941 414.819 150.346 413.994 150.344C413.719 150.343 416.966 151.744 422.077 153.833L430.62 157.324L338 119.62L346.552 123.088C351.669 125.163 354.971 126.427 354.774 126.236C354.114 125.596 354.195 125.327 357.069 118.562C359.953 111.771 360.15 111.345 360.365 111.432C360.439 111.462 360.532 111.409 360.571 111.313C360.787 110.783 362.446 109.265 363.769 108.386L365.288 107.376L364.593 107.114C363.694 106.776 363.338 106.07 363.663 105.272C364.098 104.204 364.454 104.227 370.664 105.726C373.771 106.476 376.368 107.035 376.434 106.967C376.501 106.899 376.613 106.923 376.684 107.02C376.793 107.17 379.769 107.963 381.465 108.293L382.002 108.398L383.06 105.8C383.697 104.235 384.209 103.186 384.347 103.163C384.474 103.142 384.565 103.05 384.55 102.959C384.497 102.647 385.787 103.212 386.867 103.974C387.461 104.393 388.024 104.767 388.117 104.805C388.21 104.843 388.592 104.123 388.967 103.201L389.646 101.527L389.196 100.848C388.533 99.85 387.795 97.7945 387.957 97.3969C388.034 97.2069 388.353 96.9059 388.666 96.7277C389.577 96.2091 390.217 96.6059 390.947 98.14C391.765 99.8623 392.865 101.31 394.365 102.639C395.501 103.646 395.812 103.821 398.139 104.76C400.517 105.719 400.779 105.786 402.353 105.823C406.148 105.914 409.302 104.752 412.03 102.257C413.239 101.151 414.552 99.383 415.036 98.2085L415.316 97.5313L413.778 96.9054L412.24 96.2794L411.998 96.8746C411.236 98.7471 409.119 100.737 406.875 101.689C404.216 102.818 401.928 102.836 399.259 101.75C396.589 100.663 394.965 99.0519 393.851 96.3862C392.899 94.1086 392.775 91.2579 393.547 89.3632L393.789 88.768L392.225 88.1315L390.662 87.495L390.277 88.766C390.065 89.4651 389.845 90.5162 389.788 91.1015C389.662 92.3832 389.161 92.9711 388.233 92.9262C386.829 92.8581 386.613 91.1212 387.623 88.0151L388.117 86.4942L387.388 85.9588C386.444 85.2655 385.657 84.347 385.165 83.3632C384.949 82.9305 384.704 82.5939 384.62 82.6154C384.537 82.6367 384.524 82.6198 384.591 82.5777C384.659 82.5355 384.611 82.0822 384.486 81.5706L384.458 81.4587C384.382 81.1487 384.318 80.8872 384.282 80.6218C384.087 79.1888 384.716 77.6437 388.739 67.7609L389.006 67.1042L389.193 66.6451C392.891 57.5611 393.687 55.606 394.884 53.939C395.212 53.4821 395.57 53.0468 396.027 52.4923L396.112 52.3887C396.72 51.6502 397.251 50.935 397.293 50.7991C397.334 50.6634 397.395 50.615 397.427 50.6915C397.459 50.768 397.845 50.4957 398.284 50.0864C400.474 48.0443 404.466 45.8467 407.38 45.0775C408.132 44.8793 408.725 44.6657 408.699 44.6031C408.673 44.5405 408.754 44.5285 408.879 44.5767C409.004 44.6247 409.715 44.5707 410.457 44.4566C413.117 44.0481 416.72 44.3015 419.58 45.0983C420.445 45.3394 412.152 41.8815 398.352 36.2471L375.704 27ZM396.302 90.0692C395.803 90.6021 395.721 93.1276 396.152 94.7207C396.622 96.4563 398.494 98.4858 400.307 99.2237C402.215 100.001 405.054 99.7723 406.674 98.7116C407.802 97.9724 408.776 96.9603 409.201 96.0852L409.581 95.3021L403.038 92.583C397.694 90.3626 396.459 89.9017 396.302 90.0692ZM391.108 105.301L390.658 106.56L391.657 107.503C393.102 108.867 393.849 109.934 394.369 111.378L394.827 112.651L395.94 112.096C397.33 111.403 398.972 111.092 400.758 111.182L402.138 111.253L402.644 110.01C403.134 108.807 403.136 108.766 402.695 108.72C399.664 108.406 399.144 108.286 396.96 107.397C394.774 106.507 394.333 106.239 391.924 104.332C391.563 104.047 391.549 104.065 391.108 105.301ZM385.127 108.083L384.579 109.578L388.248 112.182C390.265 113.613 391.963 114.765 392.021 114.74C392.204 114.663 392.056 113.277 391.764 112.344C391.256 110.716 390.356 109.855 385.969 106.793C385.702 106.607 385.624 106.726 385.127 108.083ZM403.014 114.282C400.164 113.818 398.632 113.859 397.486 114.433C396.652 114.85 395.291 115.925 395.368 116.107C395.429 116.252 404.046 117.619 404.288 117.521C404.398 117.477 404.713 116.82 404.987 116.062L405.486 114.684L403.014 114.282ZM376.934 110.083C374.578 109.522 372.147 109.049 371.532 109.032C368.974 108.958 366.29 109.883 364.335 111.512C362.52 113.024 362.126 113.711 359.82 119.374L357.737 124.491L361.084 125.854L364.43 127.216L366.532 122.052L368.635 116.888L369.259 116.625C370.009 116.309 370.662 116.533 371.051 117.24L371.338 117.759L369.249 123.043L367.16 128.327L375.654 131.785L384.148 135.243L387.679 126.57C389.62 121.8 391.162 117.834 391.105 117.756C390.852 117.409 382.363 111.532 381.822 111.329C381.489 111.205 379.29 110.644 376.934 110.083ZM398.628 121.948C398.89 122.57 398.539 123.526 397.941 123.813C397.301 124.121 396.171 123.612 396.019 122.947C395.749 121.766 396.802 120.783 397.871 121.218C398.172 121.34 398.509 121.665 398.628 121.948ZM396.308 127.549C396.627 128.236 396.25 129.208 395.569 129.456C394.462 129.859 393.326 128.755 393.758 127.695C394.231 126.532 395.795 126.442 396.308 127.549ZM393.216 134.912C392.87 135.012 392.446 135.036 392.274 134.966C391.667 134.719 391.296 133.744 391.56 133.094C391.825 132.444 392.772 132.005 393.379 132.252C393.551 132.323 393.838 132.636 394.016 132.949C394.464 133.736 394.087 134.662 393.216 134.912Z" fill="url(#paint0_linear_13_587)"/>
<g filter="url(#filter0_d_13_587)">
<path d="M182.501 169.547C179.789 169.547 177.317 169.023 175.084 167.975C172.851 166.926 171.074 165.377 169.752 163.326C168.453 161.253 167.804 158.712 167.804 155.704V140.631H179.698V154.986C179.698 156.035 179.903 156.878 180.313 157.516C180.746 158.154 181.43 158.473 182.364 158.473C184.164 158.473 185.064 157.368 185.064 155.157V108.844H197.198V153.961C197.198 157.151 196.572 159.92 195.318 162.267C194.065 164.591 192.333 166.391 190.123 167.667C187.913 168.92 185.372 169.547 182.501 169.547ZM201.847 169V108.844H225.909V120.465H214.083V132.188H225.431V143.502H214.083V157.276H226.695V169H201.847ZM244.605 169.547C239.592 169.547 235.901 168.146 233.531 165.343C231.161 162.517 229.977 158.37 229.977 152.901V108.844H241.666V152.423C241.666 153.425 241.723 154.394 241.837 155.328C241.951 156.24 242.213 156.992 242.623 157.584C243.033 158.176 243.694 158.473 244.605 158.473C245.54 158.473 246.212 158.188 246.622 157.618C247.032 157.026 247.283 156.262 247.374 155.328C247.488 154.394 247.545 153.425 247.545 152.423V108.844H259.234V152.901C259.234 158.37 258.049 162.517 255.68 165.343C253.31 168.146 249.618 169.547 244.605 169.547ZM262.105 169L268.565 137.11L263.438 108.81H275.196L278.307 129.488L281.075 108.81H292.867L287.74 137.11L294.166 169H281.998L278.204 145.484L274.308 169H262.105ZM95.377 274V213.844H111.92C116.249 213.844 119.508 215.051 121.695 217.467C123.883 219.859 124.977 223.368 124.977 227.994V256.158C124.977 261.855 123.974 266.253 121.969 269.352C119.986 272.451 116.5 274 111.51 274H95.377ZM107.477 263.37H109.562C111.772 263.37 112.877 262.299 112.877 260.157V229.122C112.877 227.117 112.604 225.829 112.057 225.26C111.533 224.667 110.45 224.371 108.81 224.371H107.477V263.37ZM129.898 274V213.844H153.961V225.465H142.135V237.188H153.482V248.502H142.135V262.276H154.747V274H129.898ZM173.512 274L179.322 213.844H199.728L205.436 274H194.054L193.199 264.293H185.953L185.201 274H173.512ZM186.808 254.688H192.276L189.645 224.098H189.098L186.808 254.688ZM209.127 274V213.844H221.5L227.037 242.657V213.844H238.658V274H226.9L220.885 243.922V274H209.127ZM256.397 274.547C247.807 274.547 243.512 268.395 243.512 256.09V230.147C243.512 218.914 248.434 213.297 258.277 213.297C262.333 213.297 265.444 214.117 267.608 215.758C269.773 217.376 271.266 219.745 272.086 222.867C272.906 225.989 273.316 229.794 273.316 234.283H261.559V228.951C261.559 227.652 261.376 226.57 261.012 225.704C260.67 224.815 259.941 224.371 258.824 224.371C257.434 224.371 256.511 224.838 256.056 225.772C255.623 226.707 255.406 227.732 255.406 228.849V258.004C255.406 259.622 255.611 260.943 256.021 261.969C256.454 262.971 257.286 263.473 258.517 263.473C259.793 263.473 260.636 262.971 261.046 261.969C261.479 260.943 261.695 259.599 261.695 257.936V249.356H258.482V238.966H273.18V274H268.36L266.31 268.941C264.213 272.678 260.909 274.547 256.397 274.547ZM277.965 274V213.844H289.996V263.746H302.369V274H277.965ZM304.146 274L309.957 213.844H330.362L336.07 274H324.688L323.834 264.293H316.588L315.836 274H304.146ZM317.442 254.688H322.911L320.279 224.098H319.732L317.442 254.688ZM339.215 274V213.844H350.836V274H339.215ZM369.908 274.547C364.417 274.547 360.452 273.18 358.014 270.445C355.598 267.711 354.391 263.359 354.391 257.389V251.51H366.285V259.029C366.285 260.419 366.49 261.513 366.9 262.311C367.333 263.085 368.074 263.473 369.122 263.473C370.216 263.473 370.968 263.154 371.378 262.516C371.811 261.878 372.027 260.829 372.027 259.371C372.027 257.525 371.845 255.987 371.48 254.757C371.116 253.504 370.478 252.319 369.566 251.202C368.678 250.063 367.436 248.741 365.841 247.237L360.44 242.11C356.407 238.305 354.391 233.953 354.391 229.054C354.391 223.927 355.576 220.019 357.945 217.33C360.338 214.641 363.79 213.297 368.302 213.297C373.816 213.297 377.724 214.767 380.025 217.706C382.35 220.646 383.512 225.112 383.512 231.104H371.275V226.969C371.275 226.148 371.036 225.51 370.558 225.055C370.102 224.599 369.475 224.371 368.678 224.371C367.721 224.371 367.014 224.645 366.559 225.191C366.126 225.715 365.909 226.399 365.909 227.242C365.909 228.085 366.137 228.997 366.593 229.977C367.049 230.956 367.949 232.084 369.293 233.36L376.231 240.025C377.621 241.347 378.897 242.748 380.06 244.229C381.222 245.688 382.156 247.397 382.862 249.356C383.569 251.293 383.922 253.663 383.922 256.466C383.922 262.117 382.874 266.549 380.777 269.762C378.704 272.952 375.081 274.547 369.908 274.547Z" fill="white"/>
</g>
<defs>
<filter id="filter0_d_13_587" x="95.377" y="108.81" width="298.545" height="175.737" filterUnits="userSpaceOnUse" color-interpolation-filters="sRGB">
<feFlood flood-opacity="0" result="BackgroundImageFix"/>
<feColorMatrix in="SourceAlpha" type="matrix" values="0 0 0 0 0 0 0 0 0 0 0 0 0 0 0 0 0 0 127 0" result="hardAlpha"/>
<feOffset dx="10" dy="10"/>
<feComposite in2="hardAlpha" operator="out"/>
<feColorMatrix type="matrix" values="0 0 0 0 0.065 0 0 0 0 0.6 0 0 0 0 0.5037 0 0 0 1 0"/>
<feBlend mode="normal" in2="BackgroundImageFix" result="effect1_dropShadow_13_587"/>
<feBlend mode="normal" in="SourceGraphic" in2="effect1_dropShadow_13_587" result="shape"/>
</filter>
<linearGradient id="paint0_linear_13_587" x1="479" y1="1.7807e-05" x2="2.59536e-05" y2="384" gradientUnits="userSpaceOnUse">
<stop stop-color="#610C9F"/>
<stop offset="0.384953" stop-color="#940B92"/>
<stop offset="0.649404" stop-color="#DA0C81"/>
<stop offset="1" stop-color="#E95793"/>
</linearGradient>
</defs>
</svg>
