<svg width="479" height="384" viewBox="0 0 479 384" fill="none" xmlns="http://www.w3.org/2000/svg">
<path fill-rule="evenodd" clip-rule="evenodd" d="M48 0C21.4903 0 0 21.4903 0 48V336C0 362.51 21.4903 384 48 384H431C457.51 384 479 362.51 479 336V48C479 21.4903 457.51 0 431 0H48ZM54.4972 49.8038C55.184 49.9201 55.2701 50.009 56.8438 52.2255L58.4773 54.5263L60.7781 52.8928C62.9947 51.3191 63.1053 51.2636 63.792 51.3802C64.4992 51.5 64.5237 51.5273 66.8074 54.7439C69.0911 57.9604 69.1088 57.9925 68.9887 58.6996C68.8723 59.3865 68.7835 59.4725 66.5669 61.0463L64.2661 62.6798L65.8997 64.9806C67.4734 67.1971 67.5289 67.3077 67.4122 67.9945C67.2924 68.7016 67.2651 68.7261 64.0486 71.0098C60.8321 73.2935 60.7999 73.3112 60.0928 73.1911C59.406 73.0748 59.3199 72.9859 57.7462 70.7694L56.1127 68.4686L53.8119 70.1021C51.5953 71.6758 51.4848 71.7313 50.798 71.6147C50.0908 71.4949 50.0663 71.4676 47.7826 68.251C45.499 65.0345 45.4813 65.0023 45.6013 64.2952C45.7177 63.6084 45.8065 63.5223 48.0231 61.9486L50.3239 60.3151L48.6904 58.0143C47.1167 55.7977 47.0612 55.6872 47.1778 55.0004C47.2976 54.2932 47.3249 54.2687 50.5414 51.9851C53.758 49.7014 53.7901 49.6837 54.4972 49.8038ZM71.754 39.528L74.7418 40.0101L75.2779 36.9962L75.3446 36.6204C75.6494 34.8994 75.7602 34.2737 76.1297 33.9127C76.3407 33.7065 76.6363 33.5867 77.1006 33.3985L77.1904 33.3621L77.2779 33.3264C77.5449 33.2171 84.7401 34.5186 85.0163 34.7262C86.0646 35.5135 86.0793 35.6211 85.5757 38.7427L85.0881 41.7649L88.1021 42.301C91.2152 42.8549 91.3119 42.9043 91.7096 44.1536C91.8145 44.4828 90.6707 51.7047 90.4795 51.9207L90.4148 51.994L90.353 52.0643C90.0222 52.4407 89.8116 52.6802 89.5473 52.8114C89.0848 53.0412 88.4575 52.9395 86.7323 52.6598L86.3555 52.5989L83.3333 52.1112L82.8033 55.0909C82.777 55.2388 82.752 55.3812 82.7279 55.5182L82.7263 55.527L82.7263 55.5271C82.4428 57.1385 82.2889 58.0131 81.7695 58.4134C81.1531 58.8884 80.0216 58.6952 77.5472 58.2727L77.2587 58.2234L76.9827 58.1765C76.785 58.143 76.5949 58.1109 76.4121 58.0801C73.9426 57.6642 72.812 57.4737 72.3864 56.8225C72.027 56.2725 72.1705 55.3939 72.4351 53.7732L72.4353 53.7722L72.4381 53.7547C72.4604 53.6184 72.4835 53.4769 72.5072 53.3299L72.9916 50.3276L70.2452 49.8739C67.4344 49.4095 67.356 49.3829 66.6285 48.6533C66.2488 48.2725 66.2781 47.8017 66.9156 44.0424L66.9645 43.7529L67.0134 43.4629C67.4332 40.9702 67.6247 39.8333 68.279 39.4074C68.8277 39.0503 69.7018 39.1931 71.3088 39.4556C71.4513 39.4789 71.5996 39.5031 71.754 39.528ZM93.9072 21.5448C96.6478 20.9273 98.9203 24.0774 97.4697 26.4831C97.1562 27.003 97.5289 26.7819 100.479 24.696C100.77 24.4901 101.04 24.2972 101.292 24.1176C103.006 22.8937 103.855 22.2877 104.575 22.4143C105.281 22.5384 105.863 23.367 107.016 25.0083L107.017 25.0095C107.19 25.2547 107.375 25.5181 107.575 25.7999C107.775 26.0822 107.963 26.3441 108.138 26.5879L108.138 26.5881C109.307 28.2179 109.898 29.0408 109.782 29.7483C109.664 30.4697 108.812 31.0712 107.091 32.2859C106.839 32.4642 106.568 32.6557 106.277 32.8627C103.335 34.9602 103.004 35.239 103.598 35.1145C105.842 34.6442 107.864 36.635 107.475 38.931C106.921 42.1943 102.58 42.7054 101.181 39.6716C100.805 38.8538 100.892 37.4914 101.373 36.6944C101.686 36.1744 101.314 36.3955 98.3633 38.4814C98.0722 38.6873 97.802 38.8802 97.5504 39.0598C95.8362 40.2837 94.9875 40.8897 94.2676 40.7631C93.5615 40.639 92.9793 39.8104 91.8261 38.1692L91.8246 38.167C91.6525 37.9221 91.4676 37.659 91.2678 37.3775C91.0675 37.0954 90.8797 36.8337 90.7049 36.59L90.7045 36.5894C89.5352 34.9595 88.9449 34.1366 89.0605 33.4291C89.1785 32.7077 90.0304 32.1062 91.7511 30.8914L91.7513 30.8913L91.7572 30.8871C92.0079 30.7101 92.2771 30.5201 92.5651 30.3147C95.5072 28.2173 95.8388 27.9384 95.2445 28.0629C94.3336 28.2538 93.0186 27.8871 92.3707 27.2617C90.3944 25.353 91.2573 22.1418 93.9072 21.5448ZM52.7456 57.9685C54.3193 60.185 54.3748 60.2956 54.2582 60.9824C54.1419 61.6692 54.053 61.7553 51.8365 63.329L49.5357 64.9625L50.5005 66.3214L51.4653 67.6803L53.7661 66.0468C55.9826 64.4731 56.0932 64.4176 56.78 64.5342C57.4668 64.6506 57.5529 64.7394 59.1266 66.956L60.7601 69.2568L62.119 68.292L63.4779 67.3272L61.8444 65.0264C60.2707 62.8098 60.2152 62.6993 60.3318 62.0125C60.4481 61.3257 60.537 61.2396 62.7536 59.6659L65.0544 58.0324L64.0896 56.6735L63.1248 55.3145L60.824 56.9481C58.6074 58.5218 58.4968 58.5773 57.8101 58.4606C57.1232 58.3443 57.0372 58.2554 55.4635 56.0389L53.8299 53.7381L52.471 54.7029L51.1121 55.6677L52.7456 57.9685ZM70.2377 44.6527L69.9517 46.3979L72.7018 46.8528C74.2144 47.1031 75.5526 47.3847 75.6755 47.4791C76.7324 48.2883 76.7445 48.3755 76.2389 51.5098L75.7501 54.5394L77.5605 54.8442L79.3711 55.1492L79.8279 52.3977C80.0791 50.8844 80.3616 49.5457 80.456 49.4227C81.2651 48.3659 81.3524 48.3538 84.4867 48.8594L87.5163 49.3481L87.8212 47.5504L88.1261 45.7527L85.1391 45.2212C82.5717 44.7645 82.0964 44.6115 81.7554 44.1311C81.4143 43.6507 81.4265 43.1515 81.8419 40.5771L82.325 37.582L80.5146 37.2771L78.7041 36.9722L78.2473 39.7236C77.996 41.2369 77.7135 42.5757 77.6191 42.6986C76.8114 43.7535 76.7185 43.767 73.6513 43.272C72.0199 43.0088 70.6486 42.8191 70.6043 42.8506C70.56 42.8821 70.3949 43.6932 70.2377 44.6527ZM40.6906 67.7818C41.3977 67.9016 41.4222 67.9289 43.7059 71.1454C45.9896 74.362 46.0073 74.3941 45.8872 75.1012L45.7664 75.8142L37.7674 81.4933L29.7683 87.1725L29.0554 87.0514C28.3483 86.9316 28.3238 86.9043 26.0401 83.6878C23.7564 80.4712 23.7387 80.4391 23.8588 79.732L23.9796 79.019L31.9786 73.3399L39.9777 67.6607L40.6906 67.7818ZM28.7579 81.7582L29.7227 83.1171L35.8378 78.7755L41.9529 74.4339L40.9881 73.075L40.0233 71.7161L33.9082 76.0577L27.7931 80.3993L28.7579 81.7582ZM93.9856 35.4479L94.9504 36.8068L100.386 32.9476L105.822 29.0884L104.857 27.7295L103.892 26.3706L98.4564 30.2298L93.0208 34.089L93.9856 35.4479ZM45.0931 92.2333C50.8508 92.4165 55.5741 92.4929 55.5893 92.4032C55.6044 92.3136 55.6735 92.3199 55.7429 92.4176C55.8882 92.6223 62.9865 92.8607 63.1367 92.6659C63.1914 92.5947 63.284 92.6035 63.3421 92.6854C63.4343 92.8152 70.4226 93.0977 70.5083 92.9751C70.5262 92.9496 70.9735 92.9715 71.5025 93.0239C72.0314 93.0761 77.0482 93.26 82.6506 93.4322C88.2532 93.6046 94.6575 93.8044 96.8828 93.8762C99.1078 93.9482 100.974 93.9456 101.031 93.8708C101.087 93.7957 101.179 93.7999 101.236 93.8799C101.368 94.0666 108.481 94.2868 108.613 94.1082C108.667 94.0345 108.758 94.0395 108.815 94.1195C108.916 94.2613 115.7 94.5377 115.978 94.4112C116.056 94.3762 116.416 94.3926 116.78 94.4475C117.935 94.6221 138.828 95.2059 138.93 95.0663C138.984 94.9928 139.075 94.9979 139.132 95.0779C139.265 95.2646 146.377 95.4849 146.509 95.3063C146.564 95.2326 146.654 95.237 146.71 95.3162C146.767 95.3955 149.091 95.5283 151.876 95.6115C154.66 95.6949 157.07 95.8503 157.231 95.9571C157.826 96.3531 158.114 97.0083 157.996 97.7012L157.875 98.4142L117.942 126.766L78.0082 155.118L77.2953 154.997L76.5823 154.876L54.984 124.455L33.3857 94.034L33.5068 93.3211C33.751 91.8802 33.8131 91.8745 45.0931 92.2333ZM72.6518 69.6167C73.5171 69.7635 74.0883 70.4867 74.0329 71.3658C73.9937 71.9889 73.9427 72.0348 70.1033 74.8867L66.2134 77.7762L67.6225 82.3964C69.0828 87.1842 69.1563 87.8224 68.3158 88.4191C67.6071 88.9223 67.1585 88.8522 64.4986 87.823L61.9229 86.8263L59.9849 88.2022C58.1538 89.5023 58.0077 89.5715 57.334 89.4571C56.3907 89.2972 55.8364 88.5165 55.9966 87.5733C56.1136 86.8821 56.1923 86.8071 58.5743 85.116C59.9255 84.1566 61.1896 83.3309 61.3832 83.2813C61.5769 83.2317 62.3593 83.4235 63.1216 83.7078C63.8839 83.992 64.5368 84.204 64.5723 84.1788C64.6078 84.1536 64.1473 82.5258 63.549 80.5615C62.7828 78.0466 62.5151 76.8386 62.6437 76.4778C62.795 76.0536 63.6101 75.4089 67.3826 72.7305L71.9389 69.4957L72.6518 69.6167ZM89.7132 60.0673C92.8911 59.5663 95.4989 59.1233 95.508 59.0829C95.5173 59.0425 95.7333 59.034 95.9881 59.0639C96.4065 59.113 96.993 59.8783 102.059 66.987L107.666 74.8555L107.636 75.6743C107.612 76.2834 106.868 77.8626 104.729 81.8427L101.853 87.1924L95.8571 88.1414C92.5592 88.6635 89.6446 89.0144 89.38 88.9212C88.9819 88.7812 87.9398 87.3973 83.3269 80.8831C78.251 73.715 77.7583 72.9645 77.7959 72.4565C77.8377 71.891 83.3123 61.4208 83.7159 61.1342C83.8365 61.0486 86.5354 60.5685 89.7132 60.0673ZM58.1781 123.196L77.9626 151.063L114.609 125.041L151.255 99.0187L150.167 98.9258C149.569 98.8748 149.047 98.909 149.008 99.0016C148.968 99.0946 148.885 99.0987 148.822 99.0109C148.684 98.8166 145.745 98.7049 145.606 98.8886C145.552 98.9607 145.459 98.9522 145.401 98.87C145.292 98.7163 142.31 98.5678 142.275 98.7143C142.264 98.7591 141.989 98.7217 141.663 98.6307L141.07 98.4653L140.674 100.599C140.234 102.966 139.913 103.394 138.666 103.278C137.39 103.159 137.094 102.437 137.445 100.306C137.733 98.5607 137.725 98.4928 137.223 98.4334C136.937 98.3993 136.688 98.459 136.669 98.5657C136.651 98.6726 136.578 98.6781 136.507 98.5779C136.436 98.4778 135.559 98.3791 134.557 98.3583L132.736 98.321L132.302 100.57C131.893 102.691 131.833 102.828 131.269 102.975C130.299 103.227 129.73 103.067 129.263 102.408C128.897 101.893 128.877 101.532 129.131 99.9936C129.295 98.9989 129.375 98.1809 129.309 98.1757C129.243 98.1706 128.149 98.1407 126.877 98.1093L124.565 98.0523L124.157 100.128C123.821 101.842 123.652 102.273 123.186 102.604C122.443 103.131 121.466 102.942 120.913 102.164C120.571 101.682 120.552 101.282 120.801 99.7761C120.965 98.7814 121.045 97.9634 120.979 97.9582C120.913 97.9531 119.816 97.9231 118.541 97.8917L116.223 97.8345L115.84 99.8968C115.51 101.676 115.373 102.019 114.845 102.394C114.038 102.967 113.209 102.827 112.638 102.023C112.272 101.507 112.247 101.13 112.479 99.5753C112.638 98.5086 112.644 97.7253 112.495 97.709C112.353 97.6935 111.259 97.6544 110.062 97.622L107.887 97.5631L107.55 99.4808C107.154 101.733 106.858 102.272 105.903 102.485C105.16 102.651 104.783 102.474 104.238 101.706C103.958 101.312 103.938 100.778 104.149 99.3578C104.308 98.291 104.314 97.5078 104.165 97.4914C104.023 97.4759 102.929 97.437 101.732 97.4045L99.5563 97.3456L99.1872 99.4786C98.8636 101.348 98.7411 101.666 98.1972 102.052C97.4272 102.599 96.5628 102.412 95.9644 101.569C95.6146 101.076 95.5907 100.672 95.8207 99.1279L96.0959 97.2772L95.0191 97.1891C94.4268 97.1408 93.9144 97.1666 93.8803 97.2463C93.8463 97.3261 93.7142 97.3225 93.5866 97.2381C93.4591 97.1539 92.8409 97.0828 92.2128 97.0801L91.0711 97.0752L90.7128 99.2309C90.3542 101.39 90.0846 101.871 89.0899 102.126C88.6938 102.227 87.6619 101.75 87.3608 101.326C87.2509 101.171 87.3038 100.116 87.4784 98.9806L87.7959 96.9167L86.5046 96.8859C85.7942 96.8688 85.1971 96.8965 85.1775 96.9474C85.1579 96.9982 84.8472 96.9615 84.4871 96.8659C84.1269 96.7703 83.8765 96.7595 83.9305 96.8423C83.9845 96.9248 83.7522 96.9172 83.4143 96.8256L82.7998 96.6586L82.4043 98.9195C82.0089 101.179 81.7471 101.655 80.7599 101.908C80.2508 102.039 79.243 101.457 79.0296 100.909C78.9286 100.65 78.9909 99.6045 79.1684 98.5864C79.4696 96.8562 79.4588 96.7284 79.0028 96.6273C78.7344 96.5681 78.4776 96.6073 78.4321 96.7149C78.3867 96.8223 78.2972 96.8365 78.2333 96.7465C78.1693 96.6563 77.2915 96.5657 76.2824 96.545L74.4478 96.5072L74.0632 98.735C73.7463 100.571 73.5841 101.03 73.1404 101.345C72.8443 101.555 72.4989 101.684 72.3729 101.63C72.2467 101.577 72.1036 101.628 72.0549 101.743C72.006 101.859 71.8814 101.834 71.7781 101.689C71.6747 101.543 71.5241 101.471 71.4436 101.528C71.3631 101.585 71.1247 101.323 70.9136 100.946C70.6038 100.392 70.5914 99.8862 70.8494 98.316C71.0251 97.2468 71.1163 96.3698 71.052 96.3674C70.9876 96.3649 69.9017 96.3274 68.6386 96.2843L66.3425 96.2058L65.8846 98.4478C65.5072 100.296 65.3288 100.759 64.8689 101.086C64.1329 101.608 63.1535 101.416 62.603 100.641C62.2569 100.153 62.2431 99.7509 62.5162 98.103C62.7128 96.9154 62.7356 96.1331 62.5737 96.1149C62.4269 96.0985 61.323 96.0586 60.1205 96.026L57.9341 95.9667L57.6082 98.0507C57.2785 100.159 56.8495 100.957 55.9187 101.196C55.7055 101.251 55.5033 101.331 55.4694 101.374C55.3578 101.518 54.7312 101.017 54.3081 100.447C53.9588 99.9766 53.9402 99.5726 54.191 97.9175C54.4422 96.2602 54.4267 95.9314 54.0938 95.8425C53.8763 95.7844 53.6603 95.8271 53.6139 95.937C53.5673 96.0469 53.477 96.0633 53.4131 95.9733C53.349 95.8831 52.4746 95.7926 51.4699 95.7719L49.6432 95.7344L49.2316 97.9755C48.8727 99.9301 48.7414 100.273 48.206 100.653C47.3957 101.228 46.5691 101.088 45.9938 100.277C45.617 99.7465 45.6007 99.3845 45.8754 97.629L46.1934 95.5956L43.9384 95.5304C42.6982 95.4947 41.6909 95.5134 41.7002 95.5722C41.7095 95.631 41.4727 95.5919 41.174 95.4854C40.8755 95.379 40.5911 95.3865 40.5422 95.5019C40.4933 95.6177 40.4023 95.6403 40.34 95.5525C40.2776 95.4647 39.8141 95.3786 39.3101 95.3614L38.3936 95.33L58.1781 123.196ZM112.783 43.2787C115.162 42.2515 117.179 41.8895 118.402 42.27L119.35 42.5653L126.303 52.359L133.257 62.1526L133.223 63.1452C133.178 64.4368 132.171 66.2099 130.348 68.2025C128.396 70.3375 121.487 75.3015 119.056 76.3162C116.531 77.3703 114.542 77.4714 113.263 76.6108C112.918 76.3788 110.472 73.0629 106.005 66.7706C101.537 60.4784 99.2132 57.0761 99.1079 56.6739C98.7195 55.1916 99.4702 53.3334 101.233 51.4135C102.77 49.7399 103.311 49.3086 107.353 46.5386C110.12 44.6416 111.386 43.8816 112.783 43.2787ZM84.068 67.0903C83.2128 68.7059 82.5418 70.0685 82.5772 70.1183C82.6124 70.1679 84.142 69.9743 85.9763 69.6881L89.3111 69.1673L90.9023 66.1907C91.7774 64.5534 92.4646 63.1733 92.4293 63.1235C92.3731 63.0443 85.7451 64.0136 85.6572 64.114C85.6385 64.1352 84.9232 65.4747 84.068 67.0903ZM104.75 52.5882C103.281 53.9361 102.536 54.891 102.461 55.5199C102.403 56.0112 102.432 56.0527 102.905 56.1577C103.603 56.312 104.645 55.9245 106.887 54.677C109.18 53.4014 113.953 49.7934 115.454 48.2016C116.665 46.9174 117.417 45.7801 117.229 45.5159C117.043 45.2532 115.727 45.5846 114.106 46.3023C112.445 47.038 106.295 51.1697 104.75 52.5882ZM86.015 78.9189L89.7551 84.1867L91.5067 80.8962L93.2582 77.6056L91.4507 75.0597L89.6431 72.5138L85.9591 73.0824L82.275 73.6511L86.015 78.9189ZM94.0772 67.3338L92.361 70.5842L94.1685 73.1301L95.9761 75.676L99.6601 75.1074L103.344 74.5387L99.6049 69.2719C97.5483 66.3752 95.8493 64.0228 95.8295 64.0443C95.8097 64.0657 95.0212 65.5461 94.0772 67.3338ZM117.941 50.2967C115.412 53.2148 109.244 57.586 105.814 58.891L104.778 59.2853L108.722 64.841L112.667 70.3968L113.381 69.5482C115.595 66.9174 121.866 62.3908 125.179 61.0318C126.104 60.6523 126.891 60.2733 126.927 60.1894C126.963 60.1055 127.096 60.0805 127.222 60.1338C127.999 60.462 127.46 59.5652 123.67 54.2283C121.415 51.0518 119.52 48.5031 119.458 48.5646C119.396 48.6261 118.713 49.4055 117.941 50.2967ZM94.2419 82.8596C93.6273 84.0223 93.1537 85.0153 93.1899 85.0663C93.226 85.1171 94.3416 84.988 95.6689 84.7794L98.0822 84.4002L96.7563 82.5327C96.0271 81.5055 95.4144 80.6832 95.395 80.7052C95.3756 80.7272 94.8566 81.6968 94.2419 82.8596ZM99.4749 80.6041L100.8 82.4706L101.954 80.3172C102.588 79.1329 103.078 78.1223 103.042 78.0715C103.006 78.0207 101.89 78.1498 100.563 78.3584L98.1497 78.7376L99.4749 80.6041ZM62.5317 109.626C63.1045 109.632 63.5867 109.558 63.6029 109.462C63.6192 109.366 63.6886 109.367 63.7571 109.463C63.8739 109.628 65.5058 109.661 65.9607 109.508C66.0742 109.47 66.3093 109.477 66.4831 109.524C66.9654 109.655 73.0552 109.605 72.9604 109.471C72.9147 109.407 73.0573 109.405 73.2771 109.468C73.8044 109.617 79.9454 109.594 79.8381 109.443C79.7924 109.378 79.9351 109.376 80.1549 109.439C80.6821 109.589 86.8231 109.565 86.7158 109.414C86.6701 109.349 86.8128 109.348 87.0326 109.41C87.5599 109.56 93.7009 109.536 93.5935 109.385C93.5478 109.321 93.6903 109.319 93.9103 109.381C94.4376 109.531 100.579 109.507 100.471 109.356C100.426 109.292 100.568 109.29 100.788 109.353C101.315 109.502 107.456 109.479 107.349 109.327C107.303 109.263 107.446 109.261 107.666 109.324C108.308 109.506 114.258 109.433 114.29 109.242C114.306 109.147 114.374 109.146 114.44 109.239C114.506 109.333 115.192 109.4 115.964 109.389C116.736 109.378 117.536 109.453 117.743 109.557C118.396 109.881 118.754 110.605 118.628 111.344L118.508 112.057L99.6373 125.454L80.767 138.852L80.0541 138.731L79.3411 138.61L69.8028 125.175L60.2644 111.741L60.3855 111.028C60.5476 110.071 61.2471 109.614 62.5317 109.626ZM117.292 70.254C115.823 71.6019 115.078 72.5568 115.003 73.1857C114.945 73.6771 114.974 73.7186 115.448 73.8236C116.145 73.9778 117.187 73.5903 119.43 72.3428C121.722 71.0672 126.496 67.4592 127.997 65.8674C129.208 64.5832 129.959 63.4459 129.772 63.1818C129.585 62.919 128.269 63.2504 126.648 63.9682C124.987 64.7038 118.837 68.8355 117.292 70.254ZM73.003 123.925L80.7214 134.797L96.189 123.815C106.623 116.407 111.582 112.802 111.427 112.736C111.301 112.683 111.158 112.734 111.109 112.85C111.061 112.965 110.97 112.989 110.909 112.902C110.792 112.737 104.536 112.732 104.376 112.897C104.325 112.949 104.117 112.946 103.914 112.889C103.404 112.746 97.281 112.78 97.3838 112.924C97.4295 112.989 97.2868 112.99 97.067 112.928C96.5397 112.778 90.3987 112.802 90.5061 112.953C90.5518 113.017 90.4093 113.019 90.1893 112.957C89.662 112.807 83.521 112.831 83.6283 112.982C83.6741 113.046 83.5316 113.048 83.3116 112.985C82.6697 112.803 76.7198 112.876 76.6873 113.067C76.6712 113.162 76.6019 113.161 76.5334 113.064C76.3932 112.867 74.3327 112.874 74.1759 113.073C74.1204 113.143 74.0275 113.133 73.9694 113.052C73.8402 112.87 69.9754 112.897 69.8382 113.08C69.7843 113.153 69.693 113.146 69.6355 113.065C69.5453 112.938 67.5646 112.909 67.3217 113.031C67.274 113.055 66.8553 113.028 66.3917 112.971C65.928 112.914 65.4893 112.909 65.4166 112.96C65.3441 113.012 68.7579 117.946 73.003 123.925ZM131.431 72.6047C133.862 71.6824 136.897 71.7201 139.032 72.6992C139.575 72.9481 140.088 73.1601 140.173 73.1705C140.257 73.1809 140.427 73.2815 140.55 73.3941C140.673 73.5068 141.185 73.9439 141.687 74.3655C143.445 75.8422 144.626 78.039 144.998 80.5224C145.219 82.0043 144.885 84.4794 144.288 85.7818C144.039 86.3247 143.827 86.8379 143.817 86.9222C143.806 87.0065 143.706 87.1765 143.593 87.2997C143.48 87.4231 143.043 87.9345 142.622 88.4364C142.2 88.9382 141.429 89.6517 140.908 90.0218C140.386 90.392 139.458 90.885 138.846 91.1174C138.233 91.3499 137.606 91.5939 137.452 91.6596C137.299 91.7253 137.105 91.7642 137.022 91.7462C136.939 91.7283 136.385 91.7591 135.79 91.8152C134.363 91.9496 131.917 91.4487 130.591 90.7509C128.324 89.5583 126.667 87.7243 125.847 85.5026C125.603 84.8389 125.339 84.1974 125.261 84.0769C125.183 83.9566 125.169 83.8227 125.229 83.7798C125.29 83.7367 125.276 83.3346 125.198 82.8862C125.003 81.767 125.402 79.1495 125.95 77.955C126.198 77.4121 126.41 76.8988 126.421 76.8145C126.431 76.7302 126.536 76.5543 126.654 76.4235C126.772 76.2927 127.178 75.8114 127.555 75.3535C128.476 74.2371 130.026 73.1375 131.431 72.6047ZM129.369 78.6352C129.038 79.2135 128.727 80.245 128.63 81.0783C128.125 85.4619 131.936 89.0547 136.329 88.3349C138.266 88.0178 140.08 86.6584 141.054 84.796C141.645 83.6654 141.865 82.0728 141.616 80.7303L141.403 79.5783L138.379 81.5976C135.782 83.3315 135.282 83.6045 134.837 83.529C134.393 83.4537 134.01 83.0308 132.13 80.5378L129.941 77.6343L129.369 78.6352ZM134.124 77.589L135.513 79.5447L137.468 78.1562L139.424 76.7676L138.706 76.3194C137.766 75.7322 136.986 75.4328 136.78 75.5795C136.688 75.6442 136.532 75.5826 136.433 75.4425C136.333 75.3024 136.137 75.2691 135.997 75.3686C135.857 75.4681 135.689 75.4748 135.624 75.3836C135.478 75.177 134.643 75.2026 133.562 75.4468L132.736 75.6332L134.124 77.589ZM160.05 262.157C161.941 258.019 161.378 253.103 158.571 249.241L157.277 247.46L121.774 228.598C87.736 210.514 86.1974 209.726 84.477 209.484C80.87 208.977 77.5934 209.824 74.4969 212.061L72.859 213.245L44.5865 266.696L16.314 320.147L16.2465 322.348C16.1599 325.159 17.2097 328.566 18.8611 330.837L20.156 332.617L56.1297 351.645L92.1035 370.673L94.3045 370.741C97.1133 370.827 100.519 369.778 102.792 368.126L104.574 366.832L129.878 319.177C155.052 271.767 155.18 271.518 154.906 270.627C154.577 269.561 152.799 268.501 151.626 268.672C150.857 268.784 150.365 269.682 125.917 315.557C101.041 362.235 100.989 362.329 99.6894 363.316C98.115 364.512 95.4055 365.249 93.5801 364.979C92.4735 364.815 86.3457 361.663 58.5949 346.985C26.8771 330.208 24.8895 329.118 23.8686 327.944C22.5834 326.468 21.7227 323.551 22.0064 321.636C22.306 319.615 75.7914 218.498 77.2929 217.113C78.7161 215.801 81.6118 214.871 83.5558 215.102C85.1005 215.285 87.1199 216.315 118.838 233.092C120.761 234.109 122.578 235.07 124.296 235.979L124.35 236.007C151.295 250.254 153.715 251.533 154.552 253.49C154.634 253.683 154.701 253.883 154.775 254.102L154.775 254.102L154.776 254.103C154.824 254.246 154.874 254.397 154.934 254.56C155.628 256.454 155.578 258.394 154.779 260.611C154.479 261.443 154.354 262.506 154.5 262.979C154.871 264.185 156.794 265.163 158.039 264.779C158.881 264.52 159.1 264.235 160.05 262.157ZM148.761 259.998C148.922 258.251 148.265 255.999 147.179 254.569C146.34 253.466 144.914 252.68 116.443 237.62C87.9713 222.56 86.5185 221.824 85.1349 221.752C82.1412 221.596 79.3508 223.172 77.9565 225.808C76.9941 227.628 77.2447 228.799 78.7688 229.605C80.3513 230.442 81.0676 230.284 82.5304 228.774C83.667 227.6 84.039 227.416 85.0775 227.51C86.869 227.673 141.289 256.446 142.432 257.833C143.612 259.269 143.347 260.051 138.704 268.83C134.04 277.646 133.536 278.297 131.6 278.002C130.004 277.759 75.631 248.999 74.5322 247.817C73.3472 246.542 73.6136 245.295 76.0591 240.672C77.9386 237.119 78.117 236.643 77.8696 235.84C77.6867 235.246 77.2069 234.743 76.43 234.333C75.6531 233.922 74.9678 233.808 74.3741 233.991C73.5516 234.244 73.2811 234.649 70.8321 239.293C67.8609 244.928 67.605 245.965 68.5187 248.675C68.5451 248.753 68.5696 248.829 68.5927 248.902C68.6177 248.981 68.6412 249.057 68.664 249.132C68.7352 249.363 68.7993 249.571 68.8818 249.773C69.6406 251.624 71.9459 252.843 95.4748 265.276C97.0503 266.108 98.721 266.991 100.493 267.928C128.898 282.945 130.357 283.684 131.741 283.756C133.534 283.85 135.764 283.125 137.119 282.009C138.64 280.756 148.582 261.96 148.761 259.998ZM92.6968 272.434C92.4702 271.623 91.8888 270.439 91.4053 269.802C90.597 268.738 89.6231 268.168 79.3116 262.713C66.8041 256.098 66.7901 256.092 63.7436 257.12C60.9004 258.078 60.8463 258.155 54.3511 270.451C47.7807 282.89 47.7713 282.916 48.7973 285.959C49.7556 288.802 49.8325 288.857 62.1291 295.352C74.5677 301.922 74.5941 301.932 77.637 300.906C80.4769 299.949 80.5381 299.862 87.0023 287.641C93.4664 275.42 93.5038 275.32 92.6968 272.434ZM129.981 292.156C129.755 291.344 129.173 290.16 128.69 289.524C127.882 288.46 126.908 287.889 116.596 282.435C104.089 275.819 104.075 275.814 101.028 276.841C98.185 277.799 98.1309 277.876 91.6357 290.173C85.0653 302.611 85.0558 302.638 86.0818 305.681C87.0402 308.524 87.1171 308.578 99.4136 315.073C111.852 321.644 111.879 321.653 114.922 320.627C117.761 319.67 117.823 319.583 124.287 307.362C130.751 295.141 130.788 295.042 129.981 292.156ZM59.011 272.902C64.2623 262.974 64.7426 262.308 66.5491 262.445C68.1921 262.571 85.5772 271.753 86.6581 273.066C87.8576 274.525 87.6143 275.207 82.3417 285.176C77.0692 295.144 76.6417 295.729 74.7612 295.558C73.2202 295.418 56.0202 286.403 54.8107 285.101C53.4525 283.64 53.6786 282.983 59.011 272.902ZM96.2955 292.624C101.547 282.696 102.027 282.03 103.834 282.167C105.477 282.292 122.862 291.474 123.943 292.788C125.142 294.246 124.899 294.929 119.626 304.897C114.354 314.865 113.926 315.45 112.046 315.28C110.505 315.139 93.3048 306.124 92.0953 304.823C90.7371 303.361 90.9632 302.705 96.2955 292.624ZM75.1776 276.167C75.8967 274.808 76.0411 274.222 75.8276 273.529C75.6447 272.935 75.1649 272.433 74.3881 272.022C72.6459 271.1 71.6689 271.524 70.517 273.702L69.5926 275.45L67.8449 274.525C65.6672 273.373 64.6209 273.573 63.6994 275.315C62.7779 277.057 63.2021 278.034 65.3797 279.186L67.1274 280.11L66.203 281.858C65.0511 284.036 65.2504 285.082 66.9925 286.003C68.7347 286.925 69.7117 286.501 70.8635 284.323L71.788 282.575L73.5357 283.5C75.7134 284.652 76.7596 284.453 77.6812 282.71C78.6027 280.968 78.1785 279.991 76.0009 278.839L74.2532 277.915L75.1776 276.167ZM114.966 302.432C115.377 301.655 115.49 300.97 115.308 300.376C115.051 299.544 114.645 299.28 109.207 296.404C103.77 293.528 103.323 293.341 102.491 293.597C101.897 293.78 101.395 294.259 100.984 295.036C100.573 295.813 100.459 296.498 100.642 297.092C100.898 297.924 101.305 298.188 106.742 301.064C112.18 303.94 112.627 304.128 113.459 303.871C114.052 303.688 114.555 303.209 114.966 302.432ZM72.9754 309.719C72.7488 308.907 72.1674 307.723 71.6839 307.087C70.8756 306.023 69.9017 305.452 59.5902 299.998C47.0827 293.382 47.0687 293.377 44.0222 294.404C41.179 295.363 41.1249 295.439 34.6297 307.736C28.0593 320.175 28.0499 320.201 29.0759 323.244C30.0342 326.087 30.1111 326.141 42.4077 332.636C54.8463 339.207 54.8727 339.216 57.9156 338.19C60.7555 337.233 60.8167 337.146 67.2809 324.925C73.745 312.704 73.7824 312.605 72.9754 309.719ZM110.26 329.44C110.033 328.629 109.452 327.445 108.968 326.808C108.16 325.744 107.186 325.174 96.8748 319.719C84.3673 313.104 84.3532 313.098 81.3067 314.126C78.4636 315.084 78.4095 315.161 71.9143 327.457C65.3439 339.896 65.3344 339.922 66.3604 342.965C67.3188 345.808 67.3957 345.863 79.6922 352.358C92.1309 358.928 92.1572 358.938 95.2002 357.912C98.04 356.954 98.1013 356.868 104.565 344.647C111.03 332.426 111.067 332.326 110.26 329.44ZM39.2896 310.187C44.5409 300.259 45.0212 299.593 46.8277 299.73C48.4707 299.855 65.8558 309.038 66.9367 310.351C68.1362 311.809 67.8929 312.492 62.6203 322.46C57.3478 332.428 56.9203 333.014 55.0398 332.843C53.4988 332.702 36.2988 323.687 35.0893 322.386C33.7311 320.925 33.9572 320.268 39.2896 310.187ZM76.5741 329.908C81.8254 319.98 82.3057 319.314 84.1123 319.451C85.7552 319.577 103.14 328.759 104.221 330.072C105.421 331.531 105.177 332.213 99.9049 342.182C94.6323 352.15 94.2049 352.735 92.3243 352.564C90.7833 352.424 73.5834 343.409 72.3739 342.107C71.0157 340.646 71.2418 339.989 76.5741 329.908ZM94.2815 330.26C94.6924 329.483 94.8063 328.798 94.6234 328.204C94.4405 327.611 93.9607 327.108 93.1838 326.697C92.4069 326.287 91.7216 326.173 91.1279 326.356C90.5343 326.538 90.0318 327.018 89.6209 327.795C89.21 328.572 89.0962 329.257 89.2791 329.851C89.462 330.445 89.9418 330.947 90.7186 331.358C91.4955 331.769 92.1808 331.883 92.7745 331.7C93.3681 331.517 93.8706 331.037 94.2815 330.26ZM52.8973 312.581L52.4308 311.148C51.6359 308.704 49.3486 307.673 47.7176 309.024C46.6664 309.894 46.3892 311.195 46.8862 312.926L47.2963 314.355L45.8848 314.819C45.1083 315.075 44.1918 315.6 43.8479 315.986C42.456 317.547 43.2288 320.055 45.2577 320.562C45.7591 320.687 46.8123 320.605 47.5979 320.38L49.0263 319.97L49.4912 321.381C49.7467 322.158 50.2717 323.074 50.6576 323.418C52.2185 324.81 54.7267 324.037 55.2337 322.008C55.3591 321.507 55.2798 320.464 55.0578 319.69L54.6543 318.284L56.1166 317.727C57.9608 317.025 58.796 316.122 58.7647 314.864C58.7075 312.573 57.0823 311.583 54.4193 312.218L52.8973 312.581ZM95.2443 339.716C95.6552 338.939 95.7691 338.254 95.5862 337.66C95.33 336.829 94.9235 336.564 89.486 333.688C84.0486 330.812 83.6011 330.625 82.7696 330.881C82.1759 331.064 81.6735 331.544 81.2626 332.321C80.8517 333.098 80.7378 333.783 80.9207 334.377C81.1769 335.208 81.5834 335.473 87.0209 338.349C92.4583 341.225 92.9058 341.412 93.7373 341.156C94.331 340.973 94.8334 340.493 95.2443 339.716ZM86.886 344.242C87.2969 343.465 87.4107 342.78 87.2278 342.186C87.0449 341.592 86.5651 341.09 85.7883 340.679C85.0114 340.268 84.3261 340.154 83.7324 340.337C83.1387 340.52 82.6363 341 82.2254 341.777C81.8145 342.554 81.7006 343.239 81.8835 343.833C82.0664 344.426 82.5462 344.929 83.3231 345.34C84.1 345.751 84.7853 345.865 85.379 345.682C85.9726 345.499 86.4751 345.019 86.886 344.242ZM407.133 215L437.196 281.55L436.992 282.244L436.788 282.937L416.324 292.237C405.069 297.352 395.882 301.585 395.908 301.643C395.934 301.701 400.294 304.384 405.595 307.605C410.896 310.827 415.412 313.648 415.63 313.876C416.805 315.109 415.868 317.232 414.124 317.287C413.642 317.302 411.194 315.901 403.218 311.046C397.562 307.603 392.894 304.805 392.846 304.828C392.797 304.851 391.811 310.205 390.654 316.726C389.029 325.882 388.454 328.684 388.126 329.032C386.867 330.374 384.594 329.528 384.572 327.71C384.568 327.352 385.445 322.123 386.521 316.089C387.596 310.055 388.456 305.072 388.431 305.016C388.405 304.96 379.157 309.058 367.879 314.121L347.373 323.328L346.717 323.023L346.062 322.717L316 256.167L317.03 258.434C317.77 260.061 318.073 260.59 318.102 260.308C318.104 260.286 318.105 260.266 318.106 260.246C318.107 260.211 318.106 260.178 318.105 260.146V260.146C318.104 260.11 318.103 260.076 318.105 260.042C318.15 259.265 319.681 258.574 356.035 242.154L356.198 242.08L356.918 241.755C358.876 240.871 360.933 239.942 363.094 238.966C365.583 237.841 367.934 236.779 370.154 235.776C406.506 219.353 408.036 218.661 408.649 219.141C408.676 219.162 408.701 219.185 408.727 219.21C408.763 219.244 408.802 219.28 408.851 219.314C409.082 219.479 408.885 218.902 408.153 217.272L407.133 215ZM323.879 263.645L324.803 265.692L366.632 246.797L408.461 227.902L407.536 225.855L406.612 223.808L364.783 242.703L322.954 261.599L323.879 263.645ZM337.548 293.905L348.603 318.379L390.432 299.484L432.261 280.589L421.205 256.114L410.149 231.64L368.321 250.535L326.492 269.43L337.548 293.905ZM371.686 253.844C372.946 253.808 373.938 254.131 374.849 254.874C375.54 255.438 375.723 255.694 375.797 256.201C375.956 257.285 375.597 257.964 374.638 258.397C373.869 258.744 373.706 258.739 372.844 258.334C371.647 257.773 371.016 258.056 370.815 259.245C370.742 259.678 370.708 260.091 370.74 260.162C370.772 260.232 371.195 260.162 371.681 260.006C372.878 259.619 373.657 259.976 374.189 261.154C374.742 262.378 374.411 263.215 373.151 263.784L372.241 264.195L373.173 266.292C374.609 269.524 374.872 272.062 373.969 273.987C372.962 276.133 370.538 277.446 368.279 277.068C367.31 276.905 365.628 275.887 365.364 275.303C365.044 274.594 365.205 273.576 365.726 273.018C366.438 272.254 367.269 272.136 368.289 272.654C369.639 273.339 370.447 272.752 370.35 271.157C370.294 270.234 369.457 267.76 368.873 266.791L368.364 265.946L367.687 266.252C366.799 266.653 365.86 266.377 365.32 265.557C364.512 264.329 364.906 263.008 366.265 262.394C366.851 262.129 366.88 262.06 366.738 261.269C366.16 258.051 367.286 255.51 369.793 254.373C370.408 254.094 371.259 253.856 371.686 253.844ZM354.402 263.361C355.209 263.404 355.637 263.731 356.022 264.596C356.612 265.923 356.053 266.793 354.016 267.713L352.578 268.362L354.848 273.261C356.906 277.703 357.155 278.165 357.518 278.215C358.258 278.318 358.409 277.724 357.961 276.468C357.423 274.962 357.709 274.081 358.91 273.539C359.602 273.226 359.837 273.223 360.504 273.519C361.201 273.828 361.343 273.993 361.818 275.044C362.545 276.654 362.632 277.613 362.18 279.033C361.679 280.608 360.91 281.392 359.231 282.04C357.615 282.662 356.178 282.522 354.824 281.611L353.892 280.984L351.362 275.519L348.831 270.055L347.351 270.723L345.871 271.392L346.751 273.62C348.511 278.08 348.687 282.282 347.283 286.346C346.852 287.592 346.767 287.704 345.972 288.063C344.829 288.579 343.769 288.225 343.291 287.167C343.018 286.563 343.042 286.19 343.449 284.668C344.375 281.203 344.226 278.424 342.936 275.129L342.135 273.08L340.4 273.864L338.664 274.647L337.786 274.316C337.103 274.058 336.841 273.837 336.61 273.325C336.378 272.814 336.386 272.471 336.644 271.788L336.976 270.91L345.368 267.118C352.505 263.894 353.856 263.333 354.402 263.361ZM378.245 262.048L379.5 262.475L380.01 261.251C380.453 260.185 380.619 259.982 381.289 259.679C382.195 259.27 382.859 259.352 383.5 259.954C384.23 260.639 384.334 261.528 383.836 262.811L383.393 263.95L384.701 264.486C385.693 264.893 386.07 265.156 386.259 265.576C387.163 267.577 385.34 269.118 383.058 268.281L381.957 267.877L381.443 269.11C381.011 270.149 380.819 270.393 380.224 270.662C379.729 270.885 379.298 270.918 378.78 270.772C377.386 270.379 376.978 269.083 377.694 267.321L378.059 266.422L376.908 265.943C375.654 265.421 375.06 264.803 375.009 263.967C374.952 263.034 375.361 262.357 376.215 261.971C376.892 261.666 377.15 261.675 378.245 262.048ZM409.63 250.606C410.508 250.937 410.509 250.939 411.284 252.655C412.399 255.124 412.284 255.965 410.735 256.665C409.747 257.111 408.621 256.722 408.2 255.79L407.912 255.154L404.133 256.861L400.353 258.568L403.238 259.676C404.824 260.286 406.304 260.93 406.526 261.107C407.387 261.797 407.329 262.616 406.201 265.711L405.14 268.622L408.817 266.961L412.495 265.299L412.298 264.863C411.808 263.779 412.281 262.61 413.417 262.097C413.817 261.916 414.229 261.939 414.856 262.176C415.734 262.507 415.735 262.509 416.51 264.225C417.333 266.045 417.451 266.923 416.959 267.563C416.792 267.78 413.93 269.152 408.969 271.393L401.239 274.885L400.586 274.639C400.228 274.503 399.8 274.202 399.637 273.969C398.989 273.049 399.118 272.365 400.759 268.031L402.374 263.768L398.118 262.152C395.777 261.263 393.671 260.343 393.437 260.108C392.884 259.55 392.763 258.514 393.162 257.748C393.446 257.202 393.706 257.071 401.104 253.729L408.751 250.274L409.63 250.606ZM390.568 272.933C391.791 273.394 392.172 274.238 391.71 275.46L391.378 276.339L384.99 279.225L378.601 282.111L379.863 290.059C380.558 294.431 381.092 298.231 381.051 298.503C380.857 299.78 379.174 300.514 378.045 299.814C377.701 299.601 376.561 298.302 375.452 296.86L373.473 294.286L370.91 295.443C368.354 296.598 368.346 296.6 367.564 296.354C366.945 296.159 366.707 295.958 366.437 295.4C366.036 294.571 366.13 293.601 366.662 293.066C367.152 292.574 373.42 289.749 374.116 289.707C374.415 289.689 374.902 289.849 375.197 290.062L375.735 290.451L375.06 286.215C374.689 283.885 374.331 281.637 374.265 281.22C374.184 280.707 374.279 280.264 374.558 279.856C374.949 279.282 375.346 279.082 382.33 275.926L389.69 272.601L390.568 272.933ZM385.518 284.277L387.29 284.911L387.86 283.458C388.498 281.833 388.822 281.351 389.477 281.055C390.939 280.395 392.617 281.635 392.362 283.187C392.31 283.502 392.053 284.36 391.79 285.095L391.312 286.43L393.06 287.126C394.439 287.674 394.86 287.936 395.053 288.364C395.606 289.589 395.163 290.703 393.894 291.276C393.336 291.528 393.001 291.482 391.527 290.955L389.809 290.341L389.489 291.259C388.608 293.782 387.519 294.716 386.089 294.175C385.469 293.941 385.266 293.741 384.957 293.056C384.602 292.271 384.616 292.122 385.192 290.525L385.805 288.828L384.123 288.159C382.577 287.543 382.414 287.427 382.09 286.711C381.523 285.455 381.876 284.532 383.156 283.924C383.652 283.689 384.031 283.745 385.518 284.277ZM415.226 277.946C416.074 278.323 416.481 278.959 416.478 279.902C416.474 281.034 416.232 281.185 409.739 284.118L403.753 286.822L402.998 286.537C402.406 286.313 402.171 286.092 401.91 285.514C401.501 284.609 401.523 284.077 401.998 283.444C402.305 283.035 403.315 282.536 408.403 280.279L414.444 277.6L415.226 277.946ZM420.589 275.248C421.434 275.487 421.942 276.11 422.096 277.096C422.231 277.961 421.809 278.666 420.914 279.07C420.051 279.46 419.36 279.328 418.743 278.657C418.084 277.939 417.943 277.105 418.342 276.273C418.777 275.366 419.628 274.977 420.589 275.248ZM298.091 140.102L298.489 138.449L295.362 133.291C293.641 130.454 292.032 127.956 291.786 127.741C291.17 127.201 290.714 127.125 290.015 127.446C289.545 127.662 289.381 127.883 289.233 128.499C289.052 129.25 289.125 129.41 291.233 132.883L293.42 136.488L283.601 134.124L273.782 131.761L278.6 111.777L283.417 91.7925L284.13 93.1696C287.608 99.882 290.379 102.615 295.232 104.117C296.893 104.632 296.962 104.636 297.555 104.273C298.337 103.794 298.572 102.925 298.119 102.185C297.844 101.737 297.518 101.559 296.19 101.139C294.279 100.534 292.734 99.6086 291.3 98.2094C289.758 96.7055 288.904 95.386 286.712 91.114C283.21 84.2906 281.449 82.0972 277.847 80.0664C276.715 79.4284 275.99 79.1745 273.808 78.6524C270.831 77.9401 269.551 77.8922 267.004 78.3982C263.985 78.9983 261.712 80.1996 256.685 83.852C254.915 85.1385 252.826 86.5477 252.043 86.9839C250.762 87.6973 250.601 87.8517 250.439 88.5254C250.25 89.3097 250.47 89.8336 251.156 90.2367C252.099 90.791 253.577 90.0255 258.811 86.2722C262.826 83.3936 264.419 82.4541 266.313 81.8481C271.416 80.215 276.927 81.9832 280.254 86.321L281.206 87.5623L275.975 109.296L270.744 131.03L267.562 130.27C264.147 129.455 263.879 129.457 263.301 130.302C262.92 130.86 262.981 131.894 263.419 132.284C263.609 132.453 269.121 133.853 278.205 136.04L292.689 139.526L289.101 141.74C285.644 143.874 285.506 143.983 285.325 144.734C285.177 145.35 285.222 145.622 285.543 146.028C286.02 146.632 286.461 146.772 287.254 146.57C287.572 146.489 290.14 145 292.962 143.262L298.091 140.102ZM200.89 116.612L201.245 115.135L201.84 114.862C202.394 114.608 202.681 114.648 206.017 115.451L209.6 116.313L217.677 82.7525L225.755 49.1918L222.16 51.3878C218.699 53.5021 218.537 53.5769 217.79 53.3972C216.811 53.1615 216.491 52.6239 216.733 51.6186C216.907 50.8984 217.102 50.7568 222.392 47.5221C227.698 44.277 227.894 44.1773 228.624 44.353C229.354 44.5287 229.482 44.7059 232.733 50.0175C235.911 55.2094 236.08 55.5382 235.918 56.2083C235.693 57.1458 235.035 57.5477 234.096 57.3217C233.433 57.1621 233.236 56.9062 231.112 53.442L228.839 49.733L226.691 58.6557L224.544 67.5782L225.741 68.5534C227.988 70.3846 229.332 72.3488 232.338 78.193C235.34 84.0291 236.833 85.7865 240.182 87.4254C241.279 87.9622 242.041 88.1905 243.8 88.5104C245.614 88.8397 246.092 88.9861 246.365 89.2956C247.086 90.1121 246.562 91.5776 245.47 91.7965C245.158 91.8592 243.974 91.7343 242.838 91.5191L240.773 91.1279L237.054 106.577L233.336 122.026L246.033 125.082C258.591 128.105 258.734 128.144 259.135 128.652C259.677 129.339 259.441 130.453 258.659 130.899L258.12 131.206L235.014 125.644L211.907 120.083L210.767 124.816L209.628 129.55L209.033 129.823C208.251 130.182 207.657 130.018 207.138 129.299L206.716 128.712L207.783 124.03L208.85 119.347L205.192 118.467C201.774 117.644 201.513 117.555 201.212 117.099L200.89 116.612ZM256.533 59.3067C257.89 59.6333 258.982 57.9776 258.126 56.8924C257.61 56.2382 256.082 55.8385 255.047 56.0868C253.981 56.3423 253.367 56.9493 252.976 58.1338C252.703 58.9601 252.534 59.1953 252.105 59.3491C251.32 59.63 250.96 60.2564 251.096 61.1022C251.158 61.4879 251.374 61.9033 251.576 62.0252C251.928 62.2382 251.913 62.3686 251.198 65.3417C250.513 68.1849 250.475 68.4846 250.726 69.0314C251.091 69.8263 252.191 70.123 252.943 69.6295C253.433 69.3083 253.504 69.1127 254.224 66.121C254.925 63.2113 255.014 62.9591 255.324 63.0337C256.866 63.4049 257.703 60.9755 256.306 60.1845C255.492 59.7238 255.654 59.0953 256.533 59.3067ZM263.96 61.9199C264.67 60.6079 264.674 59.8629 263.975 59.3161C262.323 58.0239 260.855 59.809 259.786 64.409C258.695 69.1094 259.163 71.2445 261.199 70.85C262.068 70.6818 262.382 70.0454 262.389 68.4424C262.396 66.5653 263.159 63.3982 263.96 61.9199ZM283.375 69.7851C284.033 67.0526 284.094 65.2365 283.556 64.3544C283.083 63.5771 282.45 63.3848 281.62 63.7659C280.931 64.0818 280.876 64.2884 280.621 67.4689C280.516 68.7864 280.365 69.4237 279.833 70.7947L279.796 70.8891C278.749 73.5903 278.526 74.1649 278.7 74.5678C278.747 74.6767 278.823 74.773 278.92 74.8953L278.932 74.9112C279.502 75.6329 280.151 75.7506 280.929 75.2732C281.773 74.755 282.656 72.7744 283.375 69.7851ZM271.763 63.4786C271.604 63.0572 271.325 62.4484 271.144 62.1257C270.534 61.0384 268.875 61.0458 268.344 62.138C268.036 62.7713 268.129 63.2014 268.975 65.0649L269.616 66.4759L267.983 67.8198C266.309 69.1965 265.952 69.7698 266.194 70.6949C266.254 70.9285 266.505 71.2568 266.75 71.4243C267.519 71.9498 268.348 71.7107 269.705 70.5726C270.862 69.6023 270.948 69.5652 271.115 69.9657C272.236 72.6652 272.442 72.9795 273.22 73.1667C274.198 73.4021 274.862 73.021 275.085 72.097C275.212 71.5672 275.085 71.0479 274.494 69.6948C274.08 68.7453 273.703 67.8456 273.657 67.6957C273.605 67.5285 274.117 66.9612 274.977 66.2307C275.989 65.3722 276.423 64.868 276.528 64.4305C276.728 63.6014 276.207 62.8368 275.294 62.617C274.663 62.4652 274.479 62.5402 273.435 63.3749C272.798 63.8844 272.226 64.2886 272.165 64.273C272.103 64.2574 271.923 63.8999 271.763 63.4786ZM212.638 117.045L218.168 94.0679C221.21 81.4307 223.769 71.1083 223.857 71.1293C224.159 71.2021 225.892 73.2703 226.67 74.4873C227.1 75.1604 228.301 77.3686 229.339 79.394C230.377 81.4196 231.608 83.6432 232.076 84.3353C233.518 86.4697 235.491 88.4499 237.121 89.3979L237.87 89.8334L234.084 105.564L230.298 121.295L221.468 119.17L212.638 117.045ZM261.35 104.956C261.525 104.232 260.967 103.293 259.99 102.666C257.423 101.017 254.837 101.427 253.921 103.628C253.248 105.242 253.804 106.499 255.817 107.913C256.526 108.411 257.069 108.888 257.025 108.972C256.853 109.298 255.886 108.994 255.454 108.478C254.751 107.641 254.233 107.358 253.526 107.428C252.248 107.556 251.81 108.811 252.604 110.068C254.31 112.766 258.801 112.991 259.948 110.435C260.728 108.695 260.213 107.229 258.317 105.794C257.571 105.229 257.236 104.883 257.494 104.943C257.734 104.999 258.233 105.303 258.603 105.62C259.756 106.607 261.027 106.3 261.35 104.956ZM268.479 137.936C268.847 136.409 268.771 135.714 268.188 135.258C267.589 134.789 267.162 134.735 266.491 135.043L265.896 135.316L264.391 141.569C262.947 147.568 262.898 147.84 263.174 148.292C263.517 148.852 264.786 149.23 265.225 148.902C265.475 148.714 265.593 148.743 266.096 149.111C266.417 149.346 267.263 149.678 267.977 149.85C270.101 150.361 271.81 149.786 273.327 148.047C274.084 147.18 274.667 144.923 274.446 143.719C273.981 141.187 271.7 139.361 268.908 139.285L268.159 139.265L268.479 137.936ZM231.489 135.543C232.502 131.334 232.546 131.054 232.274 130.61C231.907 130.009 230.883 129.751 230.169 130.079C229.697 130.295 229.515 130.272 228.699 129.889C224.628 127.982 220.324 132.156 222.047 136.34C222.776 138.11 224.853 139.441 226.786 139.377C227.424 139.356 227.567 139.416 227.772 139.792C228.102 140.395 229.318 140.677 229.944 140.294C230.388 140.022 230.476 139.753 231.489 135.543ZM267.756 143.009C268.117 142.743 268.701 142.518 269.053 142.51C270.909 142.465 272.021 144.556 270.887 145.96C269.444 147.747 266.708 146.633 266.989 144.374C267.083 143.621 267.195 143.423 267.756 143.009ZM224.868 133.839C224.922 133.615 225.339 133.203 225.796 132.923C226.507 132.488 226.707 132.454 227.2 132.682C228.349 133.214 228.761 134.524 228.076 135.466C227.72 135.954 226.785 136.32 226.231 136.186C225.33 135.97 224.641 134.782 224.868 133.839ZM385.615 53.0599C393.091 51.1279 399.471 49.5212 399.793 49.4895C400.731 49.3964 402.416 49.9365 403.217 50.5872C403.644 50.9349 404.186 51.645 404.501 52.2719C405.119 53.4995 415.48 93.2449 415.551 94.6591C415.638 96.3737 414.431 98.5655 413.011 99.2726L412.551 99.5017L414.537 103.49L416.523 107.478L437.994 114.781C457.606 121.453 459.5 122.143 459.873 122.751C460.14 123.187 460.229 123.601 460.131 123.951C459.984 124.473 459.023 124.962 418.61 145.088C380.387 164.123 377.201 165.68 376.726 165.546C376.231 165.407 375.501 163.974 357.346 127.519C339.927 92.541 338.492 89.5972 338.625 89.1227C338.762 88.6325 339.516 88.2366 354.817 80.6166L370.865 72.6246L370.749 72.1388C370.684 71.8716 370.092 69.5821 369.433 67.0511C368.085 61.8764 368.022 61.4662 368.379 60.115C368.723 58.8159 369.594 57.7939 370.93 57.1221C371.611 56.7793 377.139 55.2502 385.615 53.0599ZM371.627 60.9752C371.453 61.5532 372.218 64.7368 376.718 82.1711C380.61 97.2445 382.119 102.783 382.407 103.049C382.623 103.248 383.068 103.443 383.397 103.482C383.848 103.536 398.473 99.883 410.898 96.6136C411.72 96.3975 412.356 95.3983 412.224 94.5302C412.031 93.2535 401.947 54.4164 401.659 53.8371C401.278 53.0725 400.778 52.7644 400.015 52.8239C399.048 52.8992 373.203 59.6117 372.466 59.979C372.047 60.1874 371.762 60.5264 371.627 60.9752ZM387.523 59.7206C394.316 57.9664 397.72 57.1801 398.08 57.2815C398.441 57.3828 398.737 57.6866 399.001 58.2274C399.504 59.2591 401.064 65.4615 400.947 65.9627C400.897 66.1738 400.679 66.4988 400.462 66.6844C400.24 66.8743 395.484 68.2013 389.591 69.7174C380.661 72.0149 379.033 72.376 378.565 72.1625C378.263 72.0247 377.938 71.755 377.842 71.5634C377.399 70.6731 375.812 63.9669 375.938 63.5171C376.024 63.2099 376.354 62.879 376.788 62.6625C377.179 62.468 382.01 61.1442 387.523 59.7206ZM379.57 65.4287C379.633 66.0178 380.391 68.6004 380.511 68.6341C380.695 68.6859 397.26 64.3684 397.292 64.2603C397.366 64.005 396.443 60.9553 396.278 60.9102C396.173 60.8815 392.556 61.7774 388.24 62.9012C383.924 64.0248 380.201 64.9845 379.965 65.0337C379.722 65.0847 379.552 65.2548 379.57 65.4287ZM423.201 47.059C425.813 46.3984 427.05 46.4809 428.441 47.4088C429.31 47.9877 429.636 48.3573 430.103 49.2924C430.496 50.0777 432.592 57.8364 436.553 73.1633C439.78 85.6524 442.469 96.0722 442.529 96.3183C442.629 96.7331 440.74 104.991 439.99 107.418C439.722 108.287 439.521 108.559 438.928 108.854C438.382 109.126 438.071 109.144 437.699 108.922C437.05 108.537 429.831 100.697 429.485 100.001C429.339 99.7073 426.524 89.0251 423.23 76.2626C418.415 57.6026 417.256 52.8475 417.315 51.9812C417.364 51.2701 417.634 50.5368 418.109 49.8235C419.003 48.4832 420.253 47.8047 423.201 47.059ZM360.042 126.135L377.893 161.98L399.691 151.125L421.488 140.269L420.62 138.526L419.752 136.782L400.018 146.609C381.147 156.007 380.263 156.428 379.788 156.241C379.116 155.978 378.561 154.815 378.807 154.187C378.985 153.731 380.642 152.873 398.701 143.88L418.401 134.069L417.629 132.519L416.857 130.969L397.124 140.796C378.252 150.194 377.369 150.615 376.893 150.429C376.221 150.166 375.666 149.003 375.912 148.374C376.091 147.919 377.748 147.06 395.806 138.067L415.506 128.256L414.734 126.706L413.962 125.156L394.229 134.983C375.358 144.381 374.474 144.802 373.999 144.616C373.327 144.353 372.771 143.19 373.018 142.562C373.196 142.106 374.853 141.247 392.912 132.254L412.611 122.444L411.839 120.894L411.067 119.344L391.334 129.171C372.463 138.569 371.579 138.989 371.104 138.803C370.432 138.54 369.877 137.377 370.123 136.749C370.301 136.293 371.958 135.435 390.017 126.441L409.717 116.631L408.945 115.081L408.173 113.531L388.439 123.358C369.568 132.756 368.685 133.177 368.209 132.991C367.537 132.728 366.982 131.565 367.228 130.936C367.406 130.481 369.064 129.622 387.122 120.629L406.822 110.818L406.05 109.268L405.278 107.718L385.545 117.545C366.674 126.943 365.79 127.364 365.314 127.178C364.642 126.915 364.087 125.752 364.333 125.123C364.512 124.667 366.244 123.772 385.303 114.28L406.079 103.934L409.278 105.061L412.477 106.189L411.013 103.23C410.208 101.603 409.484 100.303 409.403 100.342C408.647 100.711 384.049 106.848 383.367 106.838C382.103 106.819 380.581 106.016 379.709 104.908C379.051 104.073 378.879 103.592 377.923 99.9285C376.591 94.8271 371.921 76.7575 371.766 76.1057L371.65 75.6193L356.921 82.9545L342.191 90.2897L360.042 126.135ZM420.738 51.8536C420.536 52.2948 420.634 53.0361 421.176 55.1929C421.559 56.7177 421.932 57.9852 422.005 58.0095C422.206 58.0773 428.667 56.3872 428.712 56.2552C428.793 56.0113 427.645 51.6804 427.32 51.0054C426.789 49.9042 426.118 49.7327 424.142 50.1939C421.945 50.7069 421.065 51.1359 420.738 51.8536ZM353.834 89.2675C354.199 89.4137 361.67 95.757 363.073 97.1127C363.553 97.576 363.561 98.6836 363.088 99.2271C362.409 100.007 361.503 99.9249 360.315 98.9767L359.335 98.195L357.456 99.131L355.576 100.067L355.658 101.054C355.775 102.452 355.581 102.966 354.788 103.361C353.901 103.803 353.165 103.586 352.755 102.762C352.407 102.064 351.569 91.1232 351.798 90.2811C351.88 89.9821 352.211 89.6526 352.647 89.4352C353.084 89.2178 353.546 89.1526 353.834 89.2675ZM390.527 73.2427C397.102 71.541 400.934 70.6466 401.359 70.7153C401.721 70.7737 402.161 71.0413 402.337 71.3102C402.513 71.5788 403.845 76.4001 405.296 82.024C408.045 92.6762 408.136 93.2371 407.195 93.7056C406.663 93.9706 386.701 99.1142 386.073 99.148C384.905 99.2107 384.841 99.034 381.949 87.8311C379.646 78.9069 379.265 77.2026 379.473 76.7408C379.608 76.4407 379.862 76.1236 380.036 76.0358C380.21 75.9482 384.931 74.6913 390.527 73.2427ZM383.39 80.3521C383.631 81.2627 383.868 82.0242 383.918 82.0442C383.967 82.0642 384.772 81.8867 385.706 81.6497L387.405 81.2191L386.961 79.5144C386.716 78.5767 386.458 77.7897 386.386 77.7658C386.229 77.7131 383.676 78.3562 383.251 78.5553C383.034 78.6578 383.071 79.1487 383.39 80.3521ZM389.779 77.3222C389.841 77.5733 390.041 78.373 390.222 79.0993L390.551 80.4197L392.263 79.9569C393.424 79.643 393.982 79.4092 393.999 79.23C394.045 78.7318 393.22 76.171 392.992 76.1021C392.866 76.0642 392.066 76.2205 391.214 76.4494C389.687 76.8598 389.667 76.8718 389.779 77.3222ZM355.295 95.8543L355.377 96.7809L356.121 96.4105L356.865 96.0401L356.174 95.4166C355.795 95.0737 355.423 94.8235 355.349 94.8604C355.275 94.8974 355.251 95.3447 355.295 95.8543ZM422.867 61.6594C422.962 62.2284 431.821 96.4697 431.993 96.929C432.12 97.2696 432.537 97.2127 435.457 96.4562C437.283 95.9831 438.799 95.5112 438.827 95.407C438.877 95.2147 430.038 60.9245 429.708 60.0312C429.534 59.5601 429.408 59.5719 426.303 60.3508C425.964 60.4359 425.657 60.5125 425.38 60.5818C423.277 61.107 422.866 61.2095 422.826 61.393C422.816 61.4375 422.828 61.4868 422.843 61.5481C422.852 61.5813 422.861 61.618 422.867 61.6594ZM396.619 76.162C396.766 76.7313 396.985 77.5393 397.106 77.9572L397.325 78.7174L398.866 78.2529C399.714 77.9975 400.493 77.7409 400.597 77.6826C400.7 77.6245 400.579 76.8146 400.326 75.883L399.867 74.1889L398.574 74.5495C397.864 74.748 397.072 74.9589 396.816 75.0185C396.408 75.1133 396.384 75.2559 396.619 76.162ZM384.941 86.3022C385.323 87.8917 385.471 88.5072 385.821 88.6593C386.042 88.7554 386.343 88.6665 386.835 88.5215C386.915 88.498 386.999 88.4731 387.089 88.4473C387.841 88.231 388.606 88.0399 388.788 88.0224C389.039 87.9984 389.03 87.6207 388.752 86.4769C388.55 85.6443 388.324 84.8416 388.25 84.6932C388.164 84.5215 387.665 84.5375 386.881 84.7367C386.202 84.9091 385.432 85.1015 385.17 85.1641C384.801 85.2522 384.721 85.3924 384.816 85.7844C384.86 85.9675 384.902 86.1399 384.941 86.3022ZM391.736 84.901C391.918 85.5749 392.117 86.3362 392.178 86.5925C392.301 87.1097 392.364 87.1091 394.348 86.568C395.034 86.381 395.628 86.12 395.668 85.9879C395.708 85.8558 395.555 85.0566 395.328 84.2118L394.915 82.676L393.447 83.0327L393.324 83.0624C392.212 83.3325 391.731 83.4492 391.588 83.735C391.479 83.9522 391.564 84.267 391.714 84.8211L391.736 84.901ZM398.162 81.9731C398.155 82.0591 398.308 82.704 398.5 83.4061C398.693 84.1081 398.881 84.8419 398.918 85.0367C398.972 85.3221 399.325 85.2992 400.731 84.9191C401.691 84.6592 402.485 84.4159 402.495 84.3779C402.563 84.1335 401.627 81.0938 401.469 81.0445C401.173 80.9523 398.175 81.7941 398.162 81.9731ZM373.154 98.968C373.803 99.1503 374.397 100.294 374.202 100.989C374.067 101.472 373.549 101.756 365.626 105.702C358.052 109.474 357.142 109.886 356.681 109.757C356.031 109.574 355.437 108.43 355.632 107.736C355.768 107.253 356.286 106.968 364.208 103.023C371.782 99.251 372.692 98.8384 373.154 98.968ZM386.839 93.7073C387.084 94.6639 387.324 95.4559 387.372 95.4673C387.675 95.5391 390.672 94.6527 390.725 94.4756C390.761 94.3562 390.601 93.5555 390.37 92.6961C390.065 91.5588 389.882 91.1452 389.697 91.1759C389.558 91.1993 388.914 91.3555 388.266 91.5231C387.618 91.691 386.932 91.8596 386.741 91.8979C386.467 91.9533 386.488 92.3311 386.839 93.7073ZM393.568 92.0503C393.908 93.2636 394.122 93.7561 394.299 93.732C394.436 93.7131 396.7 93.1378 399.33 92.4535C402.923 91.519 404.119 91.1333 404.14 90.9039C404.181 90.4596 403.398 87.8252 403.206 87.7608C403.052 87.7092 393.74 90.0382 393.295 90.2396C393.18 90.2918 393.303 91.1064 393.568 92.0503ZM374.738 105.372C375.445 105.493 376.148 106.905 375.819 107.541C375.625 107.915 374.177 108.698 367.836 111.856C360.9 115.31 360.036 115.698 359.575 115.569C358.926 115.387 358.332 114.243 358.527 113.548C358.662 113.067 359.16 112.791 366.451 109.16C372.821 105.988 374.323 105.301 374.738 105.372ZM376.424 111.848C377.074 112.03 377.668 113.174 377.473 113.869C377.338 114.349 376.859 114.617 370.156 117.954C363.754 121.143 362.929 121.511 362.47 121.382C361.82 121.2 361.227 120.056 361.422 119.361C361.557 118.881 362.036 118.613 368.738 115.275C375.14 112.087 375.965 111.719 376.424 111.848ZM416.845 123.662L424.395 138.822L439.446 131.327L454.496 123.832L434.473 117.058C423.46 113.332 413.29 109.883 411.873 109.393L409.295 108.502L416.845 123.662ZM433.966 100.246C433.986 100.279 434.777 101.147 435.724 102.176L437.446 104.047L438.025 101.712C438.344 100.428 438.567 99.3019 438.521 99.2097C438.475 99.1173 437.598 99.2673 436.572 99.5432C435.545 99.819 434.531 100.077 434.318 100.116C434.105 100.155 433.946 100.214 433.966 100.246ZM430.734 119.636C440.726 123.067 441.62 123.418 441.928 124.026C442.112 124.39 442.197 124.918 442.118 125.201C441.983 125.683 441.493 125.954 434.397 129.485C430.23 131.558 426.693 133.238 426.537 133.218C425.727 133.115 425.356 132.498 421.774 125.305C418.266 118.261 418.166 118.032 418.31 117.341C418.42 116.809 418.635 116.54 419.166 116.269C419.846 115.921 420.309 116.056 430.734 119.636ZM425.288 125.078L427.507 129.534L432.011 127.291L436.514 125.049L429.841 122.81C426.171 121.579 423.146 120.583 423.119 120.596C423.091 120.61 424.067 122.627 425.288 125.078Z" fill="url(#paint0_linear_11_433)"/>
<g filter="url(#filter0_d_11_433)">
<path d="M191.501 166.547C188.789 166.547 186.317 166.023 184.084 164.975C181.851 163.926 180.074 162.377 178.752 160.326C177.453 158.253 176.804 155.712 176.804 152.704V137.631H188.698V151.986C188.698 153.035 188.903 153.878 189.313 154.516C189.746 155.154 190.43 155.473 191.364 155.473C193.164 155.473 194.064 154.368 194.064 152.157V105.844H206.198V150.961C206.198 154.151 205.572 156.92 204.318 159.267C203.065 161.591 201.333 163.391 199.123 164.667C196.913 165.92 194.372 166.547 191.501 166.547ZM210.847 166V105.844H234.909V117.465H223.083V129.188H234.431V140.502H223.083V154.276H235.695V166H210.847ZM253.605 166.547C248.592 166.547 244.901 165.146 242.531 162.343C240.161 159.517 238.977 155.37 238.977 149.901V105.844H250.666V149.423C250.666 150.425 250.723 151.394 250.837 152.328C250.951 153.24 251.213 153.992 251.623 154.584C252.033 155.176 252.694 155.473 253.605 155.473C254.54 155.473 255.212 155.188 255.622 154.618C256.032 154.026 256.283 153.262 256.374 152.328C256.488 151.394 256.545 150.425 256.545 149.423V105.844H268.234V149.901C268.234 155.37 267.049 159.517 264.68 162.343C262.31 165.146 258.618 166.547 253.605 166.547ZM271.105 166L277.565 134.11L272.438 105.81H284.196L287.307 126.488L290.075 105.81H301.867L296.74 134.11L303.166 166H290.998L287.204 142.484L283.308 166H271.105ZM120.646 271V210.844H137.189C141.519 210.844 144.777 212.051 146.965 214.467C149.152 216.859 150.246 220.368 150.246 224.994V253.158C150.246 258.855 149.243 263.253 147.238 266.352C145.256 269.451 141.77 271 136.779 271H120.646ZM132.746 260.37H134.831C137.041 260.37 138.146 259.299 138.146 257.157V226.122C138.146 224.117 137.873 222.829 137.326 222.26C136.802 221.667 135.72 221.371 134.079 221.371H132.746V260.37ZM155.168 271V210.844H179.23V222.465H167.404V234.188H178.752V245.502H167.404V259.276H180.017V271H155.168ZM200.422 271V210.844H218.742L223.801 247.519L228.825 210.844H247.316V271H236.311V227.66L229.406 271H218.605L211.291 227.66V271H200.422ZM251.008 271L256.818 210.844H277.224L282.932 271H271.55L270.695 261.293H263.449L262.697 271H251.008ZM264.304 251.688H269.772L267.141 221.098H266.594L264.304 251.688ZM290.896 271V222.396H283.752V210.844H310.07V222.396H302.927V271H290.896ZM313.42 271V210.844H325.383V232.343H331.057V210.844H343.02V271H331.057V243.725H325.383V271H313.42ZM362.639 271.547C357.147 271.547 353.182 270.18 350.744 267.445C348.329 264.711 347.121 260.359 347.121 254.389V248.51H359.016V256.029C359.016 257.419 359.221 258.513 359.631 259.311C360.064 260.085 360.804 260.473 361.853 260.473C362.946 260.473 363.698 260.154 364.108 259.516C364.541 258.878 364.758 257.829 364.758 256.371C364.758 254.525 364.576 252.987 364.211 251.757C363.846 250.504 363.208 249.319 362.297 248.202C361.408 247.063 360.166 245.741 358.571 244.237L353.171 239.11C349.138 235.305 347.121 230.953 347.121 226.054C347.121 220.927 348.306 217.019 350.676 214.33C353.068 211.641 356.521 210.297 361.032 210.297C366.547 210.297 370.454 211.767 372.756 214.706C375.08 217.646 376.242 222.112 376.242 228.104H364.006V223.969C364.006 223.148 363.767 222.51 363.288 222.055C362.832 221.599 362.206 221.371 361.408 221.371C360.451 221.371 359.745 221.645 359.289 222.191C358.856 222.715 358.64 223.399 358.64 224.242C358.64 225.085 358.868 225.997 359.323 226.977C359.779 227.956 360.679 229.084 362.023 230.36L368.962 237.025C370.352 238.347 371.628 239.748 372.79 241.229C373.952 242.688 374.886 244.397 375.593 246.356C376.299 248.293 376.652 250.663 376.652 253.466C376.652 259.117 375.604 263.549 373.508 266.762C371.434 269.952 367.811 271.547 362.639 271.547Z" fill="white"/>
</g>
<defs>
<filter id="filter0_d_11_433" x="120.646" y="105.81" width="266.006" height="175.737" filterUnits="userSpaceOnUse" color-interpolation-filters="sRGB">
<feFlood flood-opacity="0" result="BackgroundImageFix"/>
<feColorMatrix in="SourceAlpha" type="matrix" values="0 0 0 0 0 0 0 0 0 0 0 0 0 0 0 0 0 0 127 0" result="hardAlpha"/>
<feOffset dx="10" dy="10"/>
<feComposite in2="hardAlpha" operator="out"/>
<feColorMatrix type="matrix" values="0 0 0 0 0.611765 0 0 0 0 0.250353 0 0 0 0 0.0470588 0 0 0 1 0"/>
<feBlend mode="normal" in2="BackgroundImageFix" result="effect1_dropShadow_11_433"/>
<feBlend mode="normal" in="SourceGraphic" in2="effect1_dropShadow_11_433" result="shape"/>
</filter>
<linearGradient id="paint0_linear_11_433" x1="479" y1="1.7807e-05" x2="2.59536e-05" y2="384" gradientUnits="userSpaceOnUse">
<stop stop-color="#610C9F"/>
<stop offset="0.295" stop-color="#940B92"/>
<stop offset="0.666667" stop-color="#DA0C81"/>
<stop offset="1" stop-color="#E95793"/>
</linearGradient>
</defs>
</svg>
