<svg width="479" height="384" viewBox="0 0 479 384" fill="none" xmlns="http://www.w3.org/2000/svg">
<path fill-rule="evenodd" clip-rule="evenodd" d="M0 48C0 21.4903 21.4903 0 48 0H431C457.51 0 479 21.4903 479 48V336C479 362.51 457.51 384 431 384H48C21.4903 384 0 362.51 0 336V48ZM435.394 25.1562C438.049 23.9306 438.399 23.5329 437.959 22.2409C437.428 20.6824 435.38 20.7575 432.283 22.4488C431.117 23.0855 428.615 25.1157 428.075 25.8633C427.76 26.2989 427.699 26.2914 426.48 25.6671C422.591 23.6757 417.215 22.4488 412.484 22.4734C409.716 22.4877 408.173 22.7611 406.355 23.5598C404.532 24.3606 403.521 25.3944 402.938 27.0539C402.062 29.5447 402.882 32.6145 405.161 35.3831C405.742 36.0881 406.284 36.7213 406.366 36.7906C406.448 36.8598 403.834 43.0825 400.556 50.619C397.278 58.1554 394.561 64.5457 394.519 64.8197C394.477 65.0938 394.978 66.6424 395.632 68.2609C396.286 69.8796 397.3 72.4313 397.885 73.9311C398.735 76.1115 399.104 76.772 399.73 77.2271L400.511 77.7961L400.045 78.7038C399.057 80.6291 396.544 82.3309 394.267 82.6164C393.847 82.669 391.835 82.6383 389.795 82.5478C373.334 81.8186 362.951 84.1217 358.463 89.4979C357.689 90.4256 348.291 107.816 347.667 109.476C347.261 110.558 347.629 111.366 348.701 111.743C349.899 112.164 350.483 111.794 351.447 110.001C351.893 109.173 352.38 108.294 352.53 108.046L352.804 107.595L396.045 122.798L439.285 138.001L439.198 138.638C439.149 138.989 438.972 139.993 438.803 140.869C438.368 143.126 439.009 144.205 440.696 144.054C441.911 143.945 441.995 143.663 444.108 132.641C445.199 126.946 446.118 121.695 446.151 120.971C446.468 113.915 439.882 105.376 426.71 95.7631C424.742 94.3267 422.812 92.7791 422.423 92.3237C421.18 90.871 420.427 88.2149 420.705 86.2613C420.768 85.8157 420.832 85.2766 420.846 85.063C420.862 84.8081 421.056 84.6899 421.41 84.7181C422.001 84.7657 432.04 79.1633 432.655 78.4432C432.967 78.0788 438.942 56.8368 440.499 50.5586L440.833 49.2106L442.959 48.949C446.773 48.479 448.587 47.38 449.396 45.0494C450.031 43.2175 449.793 41.9929 448.156 38.675C445.455 33.2008 441.604 29.8673 436.238 28.3607C434.402 27.845 434.136 27.8276 433.518 28.1822C432.752 28.6216 432.517 29.0945 432.601 30.0303C432.678 30.8927 433.054 31.1326 436.045 32.2283C439.254 33.4042 441.15 34.7677 442.991 37.2227C444.508 39.2468 446.235 42.9932 445.982 43.7118C445.252 45.7901 439.425 45.9392 430.976 44.0962C427.194 43.2712 418.565 40.3156 416.001 38.9671C410.762 36.2116 407.164 32.9099 406.467 30.2195C406.021 28.4967 406.393 27.6826 407.95 26.9764C409.842 26.1178 412.98 25.9265 416.865 26.4327C418.92 26.7006 423.426 28.1319 424.747 28.9366C425.489 29.3889 425.493 29.4042 425.069 30.1871C424.704 30.8606 424.693 31.0929 425 31.7314C425.452 32.6734 426.578 33.1338 427.375 32.7016C427.676 32.5382 428.44 31.6246 429.072 30.6711C430.908 27.9034 432.554 26.4676 435.394 25.1562ZM408.221 42.1746C408.368 41.9814 408.694 41.2367 408.946 40.5199C409.312 39.479 409.458 39.2623 409.672 39.4438C409.819 39.5689 410.264 39.8586 410.661 40.0878C411.057 40.3167 411.359 40.5658 411.33 40.641C411.301 40.7164 410.53 41.1713 409.616 41.652C408.702 42.1327 408.074 42.368 408.221 42.1746ZM435.495 50.3881C434.719 48.7974 434.736 48.5673 435.615 48.6574C436.795 48.7781 437.024 48.9619 436.919 49.702C436.863 50.1 436.694 50.7751 436.544 51.2023L436.27 51.9791L435.495 50.3881ZM419.325 44.3628C421.473 45.1882 424.333 46.1495 425.68 46.4996C427.027 46.8496 428.599 47.2853 429.171 47.468L430.213 47.8L432.381 52.3373C433.574 54.8326 434.516 56.9695 434.475 57.0855C434.434 57.2014 432.161 59.4636 429.423 62.112L424.446 66.9276L423.555 65.6154C420.301 60.8237 415.237 58.955 409.821 60.5475C408.118 61.0485 407.932 61.0568 407.819 60.6384C407.75 60.3847 407.298 57.7958 406.814 54.8853C406.331 51.9748 405.86 49.2285 405.769 48.7826L405.603 47.9718L410.512 45.4171L415.421 42.8626L419.325 44.3628ZM424.668 71.5164C424.962 71.4324 426.941 69.6719 429.066 67.6043C431.191 65.5367 432.949 63.8859 432.973 63.9361C432.997 63.9862 432.297 66.7003 431.417 69.9676C430.112 74.8123 429.743 75.9552 429.416 76.1653C427.142 77.6247 420.815 80.9802 420.42 80.9362C416.545 80.5042 410.746 79.6009 410.356 79.3685C405.963 76.7505 402.031 74.2994 401.964 74.1367C401.917 74.0233 401.081 71.9112 400.107 69.4433L398.336 64.956L400.583 59.7673C401.82 56.9135 402.861 54.5636 402.898 54.5454C402.935 54.5274 403.316 56.5757 403.746 59.097C404.176 61.6186 404.646 63.9695 404.792 64.3214C405.264 65.4662 406.154 65.5415 408.996 64.6764C413.278 63.3725 415.211 63.3778 417.41 64.6999C418.887 65.588 419.287 66.022 421.251 68.8657C422.95 71.328 423.592 71.8252 424.668 71.5164ZM418.224 71.7606C419.182 71.4342 419.698 70.1261 419.225 69.223C418.93 68.6609 418.631 68.5187 415.21 67.3159C412.3 66.2929 411.392 66.0501 410.945 66.1755C409.743 66.5117 409.299 68.3015 410.203 69.1697C410.477 69.4333 411.993 70.0736 414.075 70.8056C417.209 71.9075 417.558 71.9879 418.224 71.7606ZM399.417 84.629C400.937 83.6494 402.491 82.0088 403.24 80.5908L403.735 79.6546L406.369 81.2651C407.817 82.151 409.265 82.9684 409.587 83.0816C409.909 83.1948 411.679 83.4891 413.521 83.7356C415.363 83.9821 416.959 84.2152 417.068 84.2536C417.177 84.292 417.18 84.9682 417.073 85.7563C416.819 87.6352 417.108 89.9951 417.807 91.7407L418.369 93.1456L412.587 96.4349L411.427 97.0947L411.426 97.095L411.426 97.0952C404.531 101.018 403.482 101.615 403.229 101.374C403.183 101.331 403.163 101.261 403.14 101.178L403.134 101.157C403.129 101.139 403.123 101.12 403.117 101.101C403.022 100.8 401.843 97.1689 400.498 93.0312L398.052 85.5082L399.417 84.629ZM389.078 86.2287C391.835 86.3243 394.157 86.371 394.237 86.3327C394.368 86.2694 396.374 92.1773 396.296 92.3992C396.278 92.4511 392.298 91.093 387.453 89.381L378.643 86.2682L381.354 86.1615C382.845 86.1029 386.321 86.1331 389.078 86.2287ZM415.266 99.1752L418.066 97.5962C419.605 96.7278 420.962 96.1003 421.081 96.2014C421.201 96.3026 422.383 97.1675 423.709 98.1234C427.019 100.51 432.189 104.659 432.4 105.098C432.432 105.165 428.59 103.86 423.863 102.197L415.266 99.1752ZM360.937 92.3499C362.326 90.4466 365.078 88.8207 368.576 87.8371L370.455 87.3086L384.133 92.1179L397.812 96.9271L398.732 99.7401C399.239 101.287 399.874 103.249 400.143 104.099C401.055 106.97 401.731 106.952 407.026 103.915L411.077 101.591L424.651 106.363L438.224 111.136L439.367 112.74C441.454 115.67 442.719 119.224 442.421 121.324L442.318 122.054L401.311 107.636L360.303 93.2184L360.937 92.3499ZM354.558 104.263C354.53 104.199 357.258 99.0177 358.283 97.1868L358.653 96.5269L400.161 111.121L441.669 125.715L441.461 126.796C441.347 127.391 440.984 129.314 440.654 131.069L440.055 134.261L397.322 119.298C373.82 111.069 354.576 104.303 354.558 104.263ZM280.309 272.61C283.939 273.451 285.867 274.624 287.405 276.927C288.649 278.791 289.103 280.506 288.981 282.881C288.873 284.968 288.563 285.974 287.525 287.603C286.177 289.718 285.615 290.09 278.001 293.91C270.277 297.785 269.837 297.936 269.072 296.963C268.577 296.333 268.546 295.742 268.974 295.129C269.165 294.857 271.996 293.325 276.075 291.284C283.388 287.627 284.247 287.054 285.184 285.215C285.846 283.915 286.022 281.755 285.574 280.439C284.581 277.526 282.389 276.095 277.88 275.415C272.925 274.668 267.599 275.535 263.042 277.83L261.584 278.564L262.811 279.121C265.79 280.473 269.856 283.83 269.856 284.937C269.856 285.599 269.207 286.424 268.557 286.587C267.894 286.754 267.415 286.483 265.936 285.106C263.725 283.048 261.129 281.645 258.338 280.998L257.055 280.7L253.62 282.366C251.731 283.282 249.893 284.16 249.536 284.318C249.179 284.476 248.887 284.657 248.887 284.719C248.887 284.782 249.359 285.03 249.935 285.269C251.589 285.956 253.897 287.532 255.553 289.104C256.87 290.356 257.075 290.642 257.075 291.233C257.075 292.023 256.339 292.896 255.673 292.896C255.033 292.896 254.501 292.552 253.078 291.219C251.425 289.669 249.338 288.411 247.204 287.675C244.5 286.743 244.377 286.765 239.825 288.989L235.857 290.929L237.374 291.695C239.179 292.607 239.709 292.966 241.753 294.654C243.937 296.456 244.367 297.433 243.403 298.397C242.56 299.241 241.864 299.071 240.229 297.622C237.719 295.398 235.244 294.004 232.71 293.383L231.412 293.065L226.967 295.212L222.522 297.36L224.071 298.098C225.877 298.958 227.942 300.395 229.564 301.918C230.604 302.894 230.713 303.075 230.713 303.823C230.713 304.478 230.603 304.736 230.186 305.064C229.321 305.744 228.88 305.593 226.984 303.961C224.82 302.098 222.702 300.826 220.727 300.2L220.526 300.136C219.764 299.894 219.262 299.734 218.753 299.713C217.765 299.672 216.755 300.157 213.783 301.582L213.783 301.582L213.38 301.776L208.823 303.96L210.201 304.621C212.166 305.562 214.292 307.087 215.735 308.59C216.861 309.762 216.968 309.946 216.854 310.514C216.665 311.457 216.192 311.868 215.296 311.868C214.617 311.868 214.349 311.708 213.147 310.578C210.922 308.489 208.349 307.032 205.719 306.373L204.451 306.054L199.677 308.37C197.051 309.643 194.575 310.945 194.175 311.262C193.774 311.579 193.181 312.317 192.857 312.902C192.335 313.846 192.268 314.157 192.268 315.663C192.268 317.153 192.335 317.474 192.814 318.289C193.647 319.706 194.852 320.619 197.989 322.209C201.545 324.011 202.717 324.328 205.849 324.337C209.158 324.347 210.238 323.995 216.531 320.86C219.403 319.43 221.959 318.259 222.211 318.259C222.464 318.259 222.907 318.446 223.197 318.673C223.893 319.221 223.932 320.394 223.273 320.998C222.752 321.476 213.593 325.999 211.881 326.625C208.12 327.999 203.223 327.929 199.391 326.446C196.835 325.458 192.782 323.14 191.629 322.009C189.685 320.1 188.858 317.9 189.02 315.066C189.106 313.555 189.231 313.049 189.836 311.776C191.069 309.179 191.795 308.623 197.718 305.737C200.542 304.361 203.572 302.896 204.451 302.481C205.329 302.066 207.666 300.943 209.643 299.985C213.127 298.298 221.312 294.35 226.619 291.796C228.047 291.109 230.653 289.852 232.41 289.002C234.168 288.152 236.684 286.939 238.002 286.306C239.32 285.672 241.837 284.459 243.594 283.61C245.352 282.761 247.778 281.592 248.986 281.013C250.195 280.434 253.071 279.042 255.377 277.92C263.807 273.82 265.691 273.06 268.958 272.442C271.407 271.978 271.732 271.956 275.049 272.035C277.451 272.092 278.629 272.22 280.309 272.61ZM266.607 297.9C270.036 298.777 272.432 300.625 273.783 303.435C274.428 304.776 274.525 305.179 274.606 306.865C274.718 309.185 274.458 310.543 273.531 312.492C272.931 313.752 272.447 314.342 270.188 316.569C263.696 322.969 255.34 327.831 247.057 330.029C236.615 332.8 228.168 331.24 225.758 326.095C225.281 325.079 225.221 324.713 225.223 322.853C225.225 320.589 225.654 318.775 226.662 316.766C228.684 312.735 233.056 308.31 238.097 305.192C244.502 301.23 253.094 298.214 260.27 297.408C261.642 297.254 265.143 297.526 266.607 297.9ZM260.37 300.606C260.041 300.654 259.166 300.789 258.426 300.906L257.082 301.119L258.243 301.895C260.002 303.069 262.638 305.818 262.792 306.638C262.972 307.603 262.378 308.352 261.367 308.437C260.646 308.498 260.508 308.405 258.79 306.709C256.741 304.685 255.291 303.691 253.514 303.092C251.889 302.545 251.621 302.564 249.344 303.394C246.325 304.495 246.29 304.509 246.29 304.655C246.29 304.731 246.891 305.089 247.624 305.451C250.738 306.986 254.505 310.612 254.988 312.538C255.263 313.634 253.952 314.709 252.883 314.266C252.595 314.146 251.893 313.426 251.323 312.664C250.753 311.903 249.68 310.776 248.938 310.161C247.383 308.871 244.466 307.374 242.846 307.034L241.731 306.8L240.166 307.747C239.306 308.268 238.391 308.853 238.135 309.047L237.669 309.399L239.032 310.184C239.884 310.675 241.203 311.767 242.544 313.09C244.575 315.094 244.693 315.255 244.693 316.021C244.693 316.66 244.581 316.92 244.166 317.246C243.154 318.042 242.622 317.835 240.845 315.955C239.114 314.122 236.793 312.43 235.466 312.033L234.645 311.787L233.003 313.508C229.992 316.665 228.435 319.807 228.423 322.753C228.415 324.653 228.824 325.492 230.235 326.462C235.582 330.141 248.858 327.741 259.082 321.247C264.427 317.852 269.706 313.116 270.796 310.739C271.559 309.072 271.662 306.824 271.048 305.197C270.287 303.178 268.392 301.677 265.729 300.984C264.546 300.676 261.41 300.454 260.37 300.606ZM267.79 20.9687C267.673 20.3124 267.42 19.8495 267.034 19.5802C266.458 19.1788 266.125 19.2347 218.219 27.8031C170.312 36.3716 169.982 36.4343 169.58 37.0105C169.311 37.3972 169.235 37.9187 169.352 38.5751C169.47 39.2314 169.722 39.6942 170.108 39.9636C170.634 40.3294 171.017 40.3091 174.134 39.7516L177.579 39.1353L178.636 45.0416L179.692 50.9479L176.247 51.5641C173.129 52.1216 172.763 52.2354 172.397 52.7605C172.137 53.1345 172.052 53.6688 172.158 54.2636C172.373 55.4655 178.304 66.3538 179.012 66.8472C179.423 67.1336 179.917 67.1616 181.033 66.962L182.509 66.6979L187.791 96.2293L193.073 125.761L191.596 126.025C190.448 126.23 190.03 126.418 189.716 126.869C189.167 127.656 189.456 129.274 190.244 129.822C190.813 130.218 191.152 130.168 207.558 127.233C223.965 124.299 224.301 124.229 224.697 123.66C225.245 122.873 224.956 121.255 224.169 120.707C223.717 120.392 223.261 120.361 222.112 120.567L220.635 120.831L217.369 102.558C215.573 92.508 214.045 83.3694 213.976 82.25C213.686 77.6197 215.184 73.8053 218.514 70.6988C220.502 68.8432 222.028 68.1375 225.328 67.5474C228.627 66.9574 230.303 67.0903 232.811 68.1416C237.011 69.9014 239.739 72.9599 241.072 77.4036C241.394 78.4779 243.129 87.5793 244.928 97.6289L248.198 115.901L246.722 116.165C245.573 116.371 245.155 116.558 244.841 117.009C244.292 117.797 244.582 119.414 245.369 119.963C245.938 120.359 246.277 120.308 262.684 117.374C279.09 114.439 279.426 114.369 279.822 113.8C280.371 113.013 280.081 111.396 279.294 110.847C278.843 110.533 278.386 110.502 277.237 110.707L275.761 110.971L270.479 81.4399L265.197 51.9086L266.673 51.6445C267.789 51.4449 268.243 51.2475 268.529 50.8364C269.022 50.128 270.811 37.8592 270.596 36.6572C270.49 36.0624 270.225 35.5907 269.851 35.3302C269.326 34.9645 268.942 34.9847 265.825 35.5423L262.38 36.1585L261.323 30.2522L260.267 24.346L263.712 23.7297C266.83 23.1722 267.196 23.0584 267.562 22.5333C267.831 22.1466 267.907 21.625 267.79 20.9687ZM183.554 53.9934C184.195 53.2858 183.914 51.7428 183.173 47.668C183.069 47.1006 182.957 46.4841 182.837 45.8139L181.517 38.4311L218.923 31.7407L256.33 25.0502L257.65 32.4331C257.77 33.1032 257.878 33.7203 257.978 34.2883V34.2885C258.695 38.3676 258.967 39.9122 259.813 40.3538C260.329 40.6228 261.059 40.4822 262.233 40.256C262.502 40.2043 262.793 40.1481 263.11 40.0913C265.391 39.6834 266.076 39.6353 266.03 39.8866C265.997 40.0672 265.724 41.9444 265.422 44.0588L264.875 47.9027L263.207 48.201C261.868 48.4406 261.46 48.6136 261.135 49.0795C260.735 49.6536 260.79 49.9877 266.277 80.6676L271.823 111.676L261.979 113.436L252.136 115.197L248.555 95.1795C245.138 76.0744 244.938 75.0797 244.152 73.3546C241.495 67.5217 235.558 63.3864 229.166 62.9162C226.478 62.7185 222.575 63.4165 220.121 64.534C214.289 67.1907 210.153 73.1275 209.683 79.5196C209.544 81.4101 209.701 82.4127 213.118 101.518L216.698 121.535L206.854 123.296L197.01 125.056L191.464 94.0485C185.977 63.3686 185.912 63.0363 185.338 62.6364C184.872 62.3118 184.43 62.2909 183.09 62.5305L181.423 62.8287L179.577 59.4129C178.561 57.5341 177.654 55.8681 177.56 55.7101C177.43 55.4903 178.089 55.298 180.37 54.8901C180.687 54.8333 180.98 54.785 181.25 54.7405C182.43 54.5457 183.163 54.4247 183.554 53.9934ZM200.996 45.1057C200.879 44.4494 200.627 43.9865 200.24 43.7172C199.724 43.3579 199.332 43.3717 196.707 43.8412C193.25 44.4594 192.812 44.7859 193.121 46.5142C193.43 48.2425 193.954 48.3969 197.411 47.7787C200.867 47.1605 201.305 46.834 200.996 45.1057ZM216.746 42.2887C216.629 41.6324 216.377 41.1695 215.99 40.9002C215.474 40.5409 215.082 40.5547 212.457 41.0242C209 41.6424 208.562 41.9689 208.871 43.6972C209.18 45.4255 209.705 45.5799 213.161 44.9617C216.617 44.3435 217.055 44.017 216.746 42.2887ZM232.496 39.4717C232.379 38.8153 232.127 38.3525 231.74 38.0831C231.224 37.7238 230.832 37.7377 228.207 38.2072C224.75 38.8254 224.312 39.1519 224.621 40.8802C224.93 42.6085 225.455 42.7629 228.911 42.1447C232.367 41.5265 232.805 41.2 232.496 39.4717ZM248.246 36.6547C248.129 35.9983 247.877 35.5355 247.49 35.2661C246.974 34.9068 246.582 34.9206 243.957 35.3901C240.5 36.0084 240.062 36.3348 240.371 38.0632C240.681 39.7915 241.205 39.9459 244.661 39.3277C248.117 38.7095 248.556 38.383 248.246 36.6547ZM347 263.539L444.653 242L407.609 250.194C377.032 256.958 370.741 258.395 371.573 258.424C372.127 258.443 373.552 258.253 374.74 258.001C377.074 257.507 377.595 257.545 378.674 258.285C379.471 258.832 379.973 259.795 380.352 261.506C381.177 265.234 380.349 268.252 378.027 269.977L377.001 270.739L377.622 271.644C379.185 273.924 381.051 277.7 381.026 278.536C381.006 279.257 380.079 279.915 379.227 279.814C378.529 279.731 378.299 279.442 377.25 277.331C376.394 275.611 374.819 273.035 374.053 272.103C373.302 271.188 371.72 270.129 370.704 269.861C369.201 269.464 365.777 270.522 364.686 271.721L364.35 272.091L365.336 273.316C366.228 274.425 366.359 274.7 366.713 276.213C367.086 277.802 367.141 277.911 367.857 278.436C372.16 281.594 372.427 288.239 368.699 299.354C367.125 304.048 366.91 305.841 367.521 309.215C368.799 316.28 373.344 320.865 381.005 322.816C383.255 323.39 385.028 323.656 389.973 324.163C394.979 324.677 396.131 324.943 397.931 325.997C400.191 327.32 403.186 330.436 404.727 333.066C405.276 334.003 405.889 334.203 406.774 333.735C407.155 333.534 407.729 333.35 408.051 333.327C408.581 333.289 408.652 333.2 408.821 332.364C409.335 329.821 408.806 328.044 406.776 325.493C405.271 323.603 404.921 322.785 405.081 321.531C405.146 321.021 405.201 320.524 405.204 320.425C405.207 320.327 403.815 320.264 402.11 320.285C398.391 320.332 395.941 320.181 392.893 319.72C383.956 318.366 376.729 314.778 373.875 310.277C372.875 308.7 372.34 306.069 372.655 304.282C373.153 301.468 374.861 298.675 377.235 296.792C379.102 295.312 380.569 294.657 383.433 294.028L385.919 293.481L385.012 292.415C383.343 290.454 381.069 286.496 380.725 284.951C380.535 284.098 380.99 283.443 381.915 283.239C382.896 283.022 383.357 283.384 384.044 284.91C385.498 288.139 387.682 291.03 390.167 293.014C391.255 293.883 391.843 294.158 394.265 294.925C397.139 295.836 398.763 296.123 399.774 295.9C400.283 295.788 403.2 293.902 403.457 293.52C403.516 293.432 403.265 292.662 402.899 291.809C401.929 289.541 400.573 283.407 400.531 281.096C400.357 271.353 405.173 263.117 413.529 258.864C415.472 257.875 416.426 257.658 417.054 258.059C417.657 258.444 417.946 259.555 417.588 260.115C417.449 260.332 416.423 260.96 415.308 261.51C411.625 263.327 408.096 266.648 406.28 270.009C403.153 275.795 402.872 282.449 405.454 289.579C405.887 290.777 406.283 291.783 406.333 291.815C406.383 291.846 406.841 291.682 407.351 291.449C407.861 291.216 408.996 290.808 409.874 290.543L411.47 290.06L411.257 289.587C409.684 286.089 408.844 281.385 409.142 277.733C409.286 275.978 410.099 272.828 410.647 271.9C411.167 271.022 412.014 270.793 412.826 271.312C413.646 271.835 413.684 272.408 413.037 274.473C411.616 279.01 412.091 283.993 414.412 288.898C414.786 289.689 414.854 289.735 415.579 289.692C416.772 289.622 419.567 289.907 421.232 290.268C422.882 290.626 423.483 291.107 423.741 292.277C423.905 293.022 423.509 294.004 422.875 294.42C422.069 294.949 422.759 295.006 424.701 294.571C428.387 293.747 431.79 294.246 435.018 296.084L435.879 296.574L435.358 295.62C434.534 294.11 432.79 292.021 431.527 291.031C429.523 289.461 429.258 289.177 429.094 288.433C428.884 287.482 429.351 286.364 430.188 285.814C430.803 285.411 430.982 285.384 432.383 285.481C434.502 285.627 436.719 286.171 439.165 287.144L441.246 287.973L440.856 286.831C440.315 285.253 439.304 283.517 438.19 282.253C436.921 280.815 434.313 279.091 432.157 278.267C431.154 277.883 430.236 277.392 430.043 277.135C429.25 276.079 429.336 274.433 430.223 273.694C430.49 273.472 431.468 273.013 432.397 272.675C435.379 271.588 439.144 271.583 442.237 272.661L443.768 273.194L443.463 272.413C441.864 268.313 438.766 264.592 435.117 262.388C431.779 260.371 428.789 259.536 424.495 259.424C421.966 259.358 421.651 259.223 421.404 258.104C421.175 257.066 421.783 256.367 422.997 256.272C426.326 256.014 431.003 256.85 434.151 258.267C440.352 261.059 445.168 266.703 447.142 273.493C447.696 275.397 447.588 275.991 446.558 276.715C445.68 277.333 444.973 277.285 443.288 276.491C440.473 275.165 437.117 274.666 434.677 275.211L433.724 275.424L434.386 275.702C435.641 276.229 439.252 278.714 440.128 279.653C441.165 280.764 442.181 282.212 442.959 283.687C443.716 285.123 444.833 289.345 444.682 290.197C444.513 291.15 443.917 291.764 442.954 291.977C442.22 292.138 441.952 292.065 440.589 291.333C438.766 290.353 436.843 289.57 435.309 289.182C434.092 288.875 434.016 288.923 434.717 289.562C436.44 291.131 438.385 294.249 439.341 296.974C440.021 298.915 440.042 299.426 439.473 300.276C439.11 300.818 438.857 300.98 438.117 301.144C437.215 301.343 437.189 301.332 434.777 299.77C432.946 298.584 431.98 298.098 430.86 297.801C429.381 297.41 427.179 297.166 426.87 297.359C426.781 297.414 427.166 297.899 427.725 298.436C429.237 299.887 430.247 301.176 431.462 303.202C432.878 305.565 433.02 306.201 432.36 307.234C431.879 307.987 431.789 308.039 430.48 308.328C429.333 308.581 429.134 308.675 429.28 308.895C429.8 309.684 430.49 311.804 430.732 313.361C431.144 316.012 430.736 318.469 429.479 320.901C428.7 322.408 428.042 322.972 426.996 323.031C426.069 323.084 425.519 322.755 424.72 321.669C424.361 321.182 423.538 320.431 422.892 320.001C421.8 319.275 421.281 319.209 421.414 319.813C421.535 320.361 420.683 323.096 420.177 323.786C419.753 324.364 419.463 324.559 418.813 324.702C417.754 324.936 416.994 324.577 416.198 323.471C415.377 322.329 413.703 321.381 411.645 320.891C409.956 320.49 409.941 320.49 409.17 320.958C407.916 321.719 407.923 321.829 409.337 323.625C410.973 325.703 411.742 327.307 412.018 329.214C412.134 330.021 412.182 330.955 412.124 331.291C412.066 331.626 412.21 333.074 412.444 334.507C412.969 337.728 413.018 340.433 412.619 344.219C412.451 345.823 412.391 347.119 412.487 347.098C412.583 347.077 413.101 346.819 413.639 346.526C414.176 346.232 414.828 345.998 415.087 346.006C415.347 346.013 416.159 346.46 416.893 346.998C418.012 347.82 418.252 348.093 418.386 348.703C418.476 349.112 418.442 349.613 418.308 349.849C418.077 350.253 418.829 350.099 441.995 344.99L416.456 350.623L415.655 350.044L414.854 349.465L413.498 350.117C411.286 351.181 408.56 352.006 406.669 352.183C404.991 352.341 401.971 352.224 399.817 351.918C399.171 351.827 398.618 351.757 398.588 351.764C398.558 351.77 398.003 352.391 397.355 353.143C395.971 354.748 395.62 354.96 394.738 354.726C393.995 354.528 393.577 353.879 393.672 353.07C393.755 352.358 396.832 348.751 397.477 348.609C397.738 348.551 399.307 348.654 400.963 348.836C402.62 349.019 404.02 349.093 404.074 349C404.393 348.459 404.199 342.22 403.752 338.66C403.523 336.834 403.413 336.396 403.113 336.101C402.914 335.905 402.238 335.002 401.611 334.093C399.46 330.976 396.958 328.714 394.937 328.061C394.439 327.899 391.829 327.54 389.138 327.261C383.933 326.723 380.932 326.206 378.527 325.431C372.856 323.605 369.126 320.635 366.388 315.764C365.555 314.281 365.432 313.91 364.722 310.732C364.11 307.995 363.969 307.035 364.024 305.986C364.149 303.601 364.484 301.898 365.31 299.444C366.272 296.59 367.331 293.149 367.297 292.994C367.284 292.934 366.885 292.858 366.41 292.825C365.138 292.737 363.103 291.389 362.483 290.225C361.4 288.192 361.492 286.465 362.828 283.719C363.197 282.962 363.564 281.906 363.643 281.372C363.817 280.202 363.762 280.167 361.854 280.244C360.538 280.297 360.132 280.427 358.147 281.432C357.312 281.854 356.349 281.796 355.727 281.285C354.341 280.148 354.798 276.009 356.548 273.855C357.071 273.211 358.749 271.948 359.218 271.844C359.308 271.824 359.217 271.462 359.016 271.039C358.481 269.913 358.374 268.301 358.733 266.809C359.272 264.574 360.619 263.236 363.045 262.526C363.992 262.249 364.216 262.093 364.692 261.382C365.246 260.555 366.044 259.809 366.874 259.342C367.119 259.204 362.748 260.092 357.16 261.315L347 263.539ZM368.036 262.336C367.852 262.501 367.447 262.987 367.136 263.417C366.299 264.575 365.69 265.006 364.349 265.392C362.904 265.807 362.198 266.351 361.867 267.305C361.598 268.081 361.577 269.381 361.83 269.642C361.926 269.74 362.271 269.552 362.695 269.168C363.832 268.14 365.732 267.354 368.197 266.893C370.072 266.542 370.504 266.527 371.528 266.776C372.175 266.934 373.155 267.326 373.706 267.648C374.584 268.16 374.783 268.2 375.319 267.972C377.254 267.148 377.994 264.789 377.21 261.943L376.906 260.843L374.494 261.24C373.167 261.458 371.761 261.611 371.37 261.579C370.446 261.503 368.463 261.954 368.036 262.336ZM370.729 272.426C371.006 272.541 371.354 272.821 371.503 273.047C371.842 273.564 371.74 274.617 371.317 274.98C370.854 275.377 369.414 275.635 368.888 275.416C367.937 275.021 367.713 273.464 368.515 272.832C369.075 272.39 370.163 272.191 370.729 272.426ZM360.248 274.902C359.337 275.376 358.575 276.32 358.309 277.303L358.148 277.897L359.049 277.569C359.846 277.279 361.992 277.03 363.362 277.068C363.823 277.081 363.831 277.053 363.543 276.369C363.378 275.977 362.951 275.339 362.594 274.95C361.874 274.166 361.67 274.162 360.248 274.902ZM366.476 283.118C366.324 283.742 365.907 284.834 365.549 285.544C365.191 286.255 364.885 287.077 364.869 287.37C364.803 288.594 365.908 289.664 367.243 289.67L367.962 289.674L368.077 288.32C368.262 286.131 368.053 284.186 367.501 282.968C367.24 282.393 366.965 281.936 366.889 281.953C366.814 281.969 366.628 282.494 366.476 283.118ZM381.564 297.829C378.786 299.101 376.615 301.603 375.956 304.292C375.213 307.321 376.559 309.646 380.509 312.161C385.931 315.612 393.366 317.285 402.519 317.116C410.697 316.965 414.609 317.739 417.361 320.054L418.105 320.679L418.211 320.095C418.269 319.774 418.282 319.069 418.239 318.528C418.095 316.706 418.521 315.95 419.873 315.632C420.719 315.433 421.187 315.542 422.845 316.323C424.276 316.998 425.282 317.667 426.196 318.551L426.85 319.184L427.236 318.122C428.107 315.721 427.885 313.242 426.561 310.602C425.201 307.888 425.592 306.721 428.199 305.722C428.659 305.546 429.018 305.318 428.995 305.217C428.899 304.78 427.297 302.608 426.206 301.435C424.621 299.73 422.543 298.282 420.413 297.396C418.344 296.536 417.765 295.921 417.857 294.682C417.888 294.263 418.086 293.71 418.298 293.452L418.682 292.984L417.217 292.884C414.019 292.667 410.639 293.286 408.142 294.548C406.78 295.236 403.633 297.307 403.731 297.451C403.772 297.51 404.566 297.934 405.496 298.393C409.481 300.361 414.124 304.02 416.539 307.097C417.863 308.784 417.96 309.592 416.927 310.314C415.998 310.963 415.322 310.677 414.024 309.086C412.213 306.865 409.975 304.903 407.234 303.13C403.499 300.714 400.422 299.405 397.511 298.995C396.66 298.875 394.685 298.378 393.123 297.89C388.19 296.349 384.834 296.331 381.564 297.829ZM407.545 336.836L406.702 337.207L406.93 338.867C407.227 341.033 407.414 344.622 407.359 347.079L407.315 349.039L407.952 348.898C408.408 348.798 408.643 348.614 408.782 348.25C409.079 347.466 409.601 343.553 409.693 341.417C409.765 339.761 409.707 336.453 409.606 336.412C409.353 336.31 408.202 336.547 407.545 336.836ZM125.106 234.882L93.21 227.378L92.6235 227.741C92.0668 228.086 91.9635 228.417 90.6039 234.219L89.1709 240.334L84.7919 242.937C81.05 245.161 80.389 245.644 80.2482 246.253C80.0817 246.973 79.9932 249.001 79.988 252.205C79.9837 254.918 78.186 260.293 73.6184 271.252C72.6768 273.511 71.7343 275.827 71.5239 276.397C71.0992 277.548 67.7006 284.782 67.4807 285.002C67.4042 285.078 66.8781 286.141 66.3118 287.364C64.7836 290.662 59.7413 299.826 58.8856 300.86C58.6947 301.091 57.6284 302.74 56.5161 304.524C54.1524 308.315 49.6441 314.854 47.2023 318.032C46.2605 319.257 44.9377 321.014 44.2623 321.936C42.4774 324.372 35.7399 331.826 31.6955 335.837C29.3986 338.115 28.9841 338.984 29.6457 340.132L30.0328 340.802L65.5631 349.161L126.343 363.459L113.582 360.453C106.564 358.8 100.958 357.397 101.124 357.335C101.58 357.164 102.201 356.378 102.337 355.797C102.404 355.514 101.94 353.734 101.306 351.843C99.14 345.381 96.6918 336.221 95.9718 331.885C95.7812 330.737 95.4976 329.177 95.3415 328.418C94.8139 325.85 93.9877 320.167 93.4462 315.38C93.1498 312.761 92.8574 310.381 92.7961 310.091C92.4662 308.53 92.0677 299.007 92.1501 294.655C92.1732 293.42 92.1679 291.558 92.1379 290.517C92.0055 285.929 92.4536 277.65 93.4235 266.766C93.8319 262.181 94.7335 258.182 95.8646 255.94C97.2202 253.252 98.1199 251.239 98.2928 250.505C98.4337 249.906 98.04 249.146 95.7063 245.511L92.9533 241.224L94.4041 235.07C95.6759 229.675 95.8189 228.852 95.564 228.39C95.2825 227.88 96.2196 228.086 125.106 234.882ZM65.5631 349.161C50.5972 345.64 50.0992 345.508 50.7083 345.214C51.2349 344.96 51.4536 344.566 52.0392 342.817C54.1444 336.528 59.6152 332.414 66.0874 332.251C68.4698 332.191 70.4096 332.643 72.5419 333.757C78.3379 336.785 81.4228 342.895 80.4969 349.511C80.2413 351.338 80.2615 351.788 80.6195 352.251C81.0337 352.785 80.5289 352.681 65.5631 349.161ZM84.0332 248.145L87.045 246.327C88.7018 245.326 90.1113 244.518 90.1774 244.529C90.2435 244.541 91.085 245.884 92.0475 247.513L93.7976 250.475L93.0895 252.297C92.6999 253.299 92.1457 254.655 91.8576 255.31L91.3341 256.503L87.5693 255.617L83.8043 254.731L83.8558 253.428C83.8842 252.711 83.9356 251.229 83.97 250.135L84.0332 248.145ZM75.8136 276.404C77.0678 273.821 79.7507 267.317 81.3958 262.872L82.9952 258.551L86.4801 259.37L89.9651 260.19L89.7973 261.591C89.4945 264.12 88.5653 274.805 88.5401 276.047C88.5264 276.716 88.4567 278.433 88.3851 279.863C88.1165 285.221 88.0339 288.024 88.041 291.521C88.0451 293.499 88.0384 295.16 88.0261 295.213C88.0138 295.265 83.7237 294.301 78.4929 293.07C73.262 291.84 69.0531 290.762 69.1398 290.675C69.4262 290.388 74.2055 280.37 74.6592 279.106C74.9038 278.424 75.4232 277.208 75.8136 276.404ZM62.5305 302.47C62.717 302.314 64.4042 299.411 66.9816 294.81C67.1842 294.448 67.9049 294.589 77.7479 296.904C86.7872 299.031 88.2856 299.435 88.2165 299.729C88.1156 300.158 88.6511 309.185 88.8203 309.907C88.8887 310.199 89.1412 312.288 89.3812 314.549C89.6214 316.811 89.9418 319.761 90.0933 321.106C90.2449 322.451 90.3522 323.632 90.332 323.73C90.3118 323.829 88.1785 323.412 85.5911 322.803L80.8869 321.696L79.9316 310.574C79.1998 302.055 78.8763 299.34 78.5493 298.974C77.9298 298.28 76.8856 298.115 76.1308 298.591C75.6836 298.873 73.6964 301.932 69.7767 308.371L64.073 317.741L59.1436 316.581L54.2143 315.422L55.0082 314.293C55.4447 313.672 55.9059 312.963 56.0328 312.717C56.16 312.472 57.0205 311.096 57.9451 309.659C58.8696 308.223 60.2269 306.062 60.9612 304.857C61.6955 303.651 62.4017 302.577 62.5305 302.47ZM68.256 318.542C68.2784 318.447 69.8903 315.782 71.8381 312.62C73.7859 309.458 75.4358 306.884 75.5049 306.9C75.6252 306.928 76.8869 320.197 76.8032 320.553C76.7807 320.648 74.8393 320.274 72.4888 319.721C70.1383 319.168 68.2336 318.637 68.256 318.542ZM56.4783 325.772C54.9838 323.758 53.2589 321.369 52.645 320.464L51.5288 318.818L71.2822 323.456C85.0399 326.685 91.065 328.181 91.1327 328.383C91.1861 328.543 90.6726 328.957 89.9915 329.305C89.3105 329.652 88.4211 330.149 88.0151 330.41C86.604 331.315 80.3941 334.359 80.0999 334.29C79.9372 334.251 79.5674 333.953 79.2783 333.627C78.2974 332.522 76.5859 331.216 74.8497 330.251C72.59 328.993 68.2378 327.908 65.783 327.989C63.9949 328.048 60.4827 328.724 59.6911 329.161C59.2338 329.413 58.9847 329.15 56.4783 325.772ZM45.5783 326.534C47.0475 324.681 48.3872 323.06 48.5555 322.932C48.7238 322.805 48.8908 322.703 48.9264 322.706C49.3167 322.741 51.5513 325.591 53.9115 329.066L55.4245 331.293L53.982 332.494C51.9932 334.149 49.9526 336.817 48.9207 339.111L48.057 341.032L41.6823 339.533L35.3076 338.034L36.0586 337.271C38.7828 334.503 43.3081 329.399 45.5783 326.534ZM85.6975 335.999C86.4148 335.586 88.0541 334.743 89.3402 334.126C90.6264 333.509 91.7812 333.029 91.9068 333.058C92.0324 333.088 92.7413 335.763 93.4823 339.004C94.2233 342.245 95.3494 346.568 95.9847 348.612C96.6201 350.657 97.1273 352.383 97.112 352.448C97.0965 352.514 94.2549 351.902 90.7968 351.088L84.5097 349.609L84.5269 349.049C84.6523 344.943 84.2745 342.444 83.0741 339.444L82.4102 337.786L83.4017 337.268C83.9469 336.983 84.9801 336.412 85.6975 335.999ZM8 37H108L84.416 37.0266C71.4447 37.041 61.4895 37.1217 62.2928 37.2057C63.0963 37.2896 63.8434 37.3076 63.9529 37.2455C64.0627 37.1834 64.0883 37.2035 64.01 37.29C63.9316 37.3766 64.4943 37.6584 65.2602 37.9164C67.5986 38.7037 70.1074 40.3984 71.5611 42.1727C71.9607 42.6604 72.3711 43.0078 72.4729 42.9447C72.5748 42.8818 72.634 42.9186 72.6045 43.0262C72.5307 43.2959 74.9152 46.0846 75.8625 46.8361C77.1365 47.8469 79.3117 49.1184 79.5332 48.9816C79.6469 48.9113 79.6844 48.9439 79.6162 49.0541C79.4799 49.2746 81.2775 50.2842 82.5117 50.6803C83.2578 50.9197 88.2029 52.0078 88.8988 52.0855C89.0818 52.1061 89.1922 52.1619 89.1443 52.21C89.0121 52.3422 89.9055 52.924 90.1289 52.8514C90.2363 52.8164 90.2613 52.8506 90.1846 52.9273C89.9842 53.1279 91.7924 55.185 92.0365 55.0342C92.1484 54.965 92.1855 54.9965 92.1191 55.1039C92.0527 55.2115 92.2498 55.5404 92.557 55.835C93.0109 56.2697 93.7396 56.5271 96.4369 57.2049C99.5498 57.9871 100.516 58.3867 101.155 59.1566C101.292 59.3217 101.504 59.3996 101.626 59.3299C101.748 59.2602 101.785 59.2723 101.709 59.3566C101.633 59.4412 101.702 59.7643 101.862 60.0742C102.373 61.0635 102.517 62.3598 102.236 63.4447C102.094 63.9895 102.029 64.5162 102.09 64.615C102.151 64.7139 102.116 64.742 102.011 64.6775C101.907 64.6131 101.656 64.8412 101.453 65.1844C101.169 65.6643 101.081 66.2033 101.075 67.5164C101.07 68.4557 101.001 69.2246 100.92 69.2254C100.839 69.226 100.772 69.6881 100.77 70.252C100.767 70.8158 100.672 71.8486 100.557 72.5469C100.442 73.2451 100.337 73.966 100.324 74.1488C100.31 74.3318 100.265 74.4471 100.223 74.4049C100.181 74.3629 99.8689 74.6918 99.5303 75.1359C98.7486 76.1607 97.4426 76.8354 95.9693 76.9754C95.3352 77.0355 94.6096 77.2145 94.3566 77.3728C93.8342 77.6998 92.6838 80.0691 92.8875 80.3984C92.9617 80.5188 92.9332 80.5605 92.8232 80.4926C92.5873 80.3469 91.9404 81.8881 92.1174 82.1742C92.1848 82.2836 92.1566 82.3213 92.0549 82.2584C91.9531 82.1955 91.4018 83.2102 90.8297 84.5135C89.6494 87.2018 89.665 87.4156 91.0566 87.6156C92.4463 87.8152 93.342 88.3402 93.9809 89.3297C94.5479 90.2074 94.5555 90.2553 94.4342 92.1232L94.3107 94.0238L95.1008 95.3336C95.5352 96.0539 95.9029 96.8686 95.9178 97.144C95.9945 98.5574 95.9756 99.2586 95.8627 99.1893C95.7936 99.1469 95.6857 99.3162 95.623 99.5658C95.5184 99.9834 95.1629 100.381 93.6934 101.725C93.2977 102.087 93.1562 102.402 93.1562 102.921C93.1562 103.403 93.2271 103.581 93.3818 103.485C93.5221 103.399 93.5541 103.432 93.4668 103.573C93.3164 103.816 93.8613 106.795 94.1592 107.358C94.2576 107.544 95.0139 108.204 95.8395 108.824C97.7973 110.296 98.4473 111.321 98.5777 113.146C98.66 114.295 98.6027 114.649 98.1904 115.542C97.709 116.585 95.7014 119.201 94.5537 120.282C94.2225 120.594 94.0063 120.945 94.0734 121.063C94.1406 121.181 94.1254 121.214 94.0396 121.137C93.9541 121.059 93.6361 121.172 93.3334 121.388C91.6916 122.557 87.7586 123.579 84.8555 123.591C83.0717 123.599 82.7354 123.537 80.9777 122.879C79.9191 122.483 78.9607 122.215 78.8479 122.285C78.7352 122.355 78.6963 122.325 78.7617 122.219C78.9061 121.986 76.0145 120.933 75.7232 121.113C75.6102 121.183 75.5721 121.152 75.6383 121.045C75.7787 120.818 74.435 120.358 74.1484 120.535C74.0422 120.6 74.0145 120.558 74.0869 120.441C74.2951 120.104 72.6408 119.943 71.658 120.204C70.4996 120.512 68.9189 121.382 69.0711 121.628C69.1404 121.741 69.0961 121.766 68.968 121.687C68.7023 121.523 67.8992 122.029 68.1027 122.233C68.1793 122.31 68.0936 122.315 67.9121 122.246C67.4189 122.056 65.5703 123.99 65.2688 125.011C65.1381 125.453 65.0312 126.366 65.0312 127.039C65.0312 128.691 64.6957 129.699 63.8492 130.589C63.4596 130.998 63.1926 131.392 63.2561 131.464C63.3193 131.535 63.2631 131.532 63.1311 131.456C62.999 131.38 62.6914 131.429 62.4475 131.565C61.99 131.821 55.658 131.95 55.6568 131.704C55.6564 131.638 55.2527 131.529 54.7596 131.462C53.2141 131.25 52.3189 130.684 49.5189 128.151C48.0232 126.798 46.7049 125.745 46.5893 125.81C46.4736 125.876 46.4449 125.857 46.5258 125.768C46.7504 125.52 46.0811 124.891 45.5934 124.891C45.3061 124.891 44.9889 125.151 44.6469 125.668C44.0137 126.625 42.873 127.234 41.7158 127.234C41.0057 127.234 40.1215 126.874 36.9094 125.278C34.7445 124.202 32.8777 123.381 32.7611 123.453C32.6445 123.525 32.6027 123.497 32.6686 123.39C32.8191 123.147 31.4852 122.494 31.1986 122.671C31.082 122.744 31.0379 122.72 31.1006 122.618C31.2123 122.437 29.5094 121.237 29.259 121.32C29.1887 121.343 29.0242 121.233 28.8932 121.076C28.7623 120.918 28.7205 120.789 28.8 120.789C28.8797 120.789 28.7092 120.48 28.4213 120.103C28.1332 119.725 27.6613 118.912 27.3727 118.296C26.9055 117.299 26.8459 116.935 26.8311 114.987C26.8205 113.585 26.8842 112.841 27.0084 112.918C27.1248 112.99 27.1582 112.869 27.092 112.616C27.0312 112.384 27.0432 112.233 27.1184 112.279C27.2777 112.378 28.5584 109.572 29.2359 107.64C29.4932 106.906 29.8709 105.54 30.0754 104.603C30.4547 102.864 30.9652 96.8305 30.7896 96.1594C30.7363 95.9557 30.7725 95.7891 30.8699 95.7891C30.9672 95.7891 31.0469 95.5332 31.0469 95.2203C31.0469 94.9074 31.1898 93.9627 31.3646 93.1207C31.5395 92.2787 31.6932 91.4004 31.7064 91.1689C31.7197 90.9377 31.7848 90.7818 31.851 90.8227C31.9172 90.8637 32.159 90.3262 32.3881 89.6281C32.8215 88.308 32.9541 86.6893 32.6115 86.901C32.5014 86.9691 32.4678 86.8918 32.5334 86.7211C32.734 86.1984 31.8889 84.8133 30.1418 82.8008C29.2092 81.7266 28.208 80.5211 27.917 80.1219C27.626 79.7227 27.3182 79.459 27.233 79.5359C27.1477 79.6129 27.1436 79.5621 27.2238 79.423C27.3039 79.2842 27.2826 79.0645 27.1766 78.9348C27.0703 78.8053 26.6664 77.9105 26.2787 76.9469C25.5602 75.1607 24.835 74.0844 23.6441 73.0363C22.6141 72.1299 22.1428 71.8875 17.9301 70.0973C15.7678 69.1781 13.7633 68.3047 13.4756 68.1559C12.6072 67.7068 11.6189 66.5482 10.924 65.1646C10.3637 64.049 10.2668 63.6533 10.2686 62.4883C10.2701 61.3957 10.3742 60.9199 10.7867 60.1195C11.0705 59.5686 11.2627 59.0633 11.2139 58.9965C11.165 58.9297 11.182 58.9174 11.2518 58.9691C11.3213 59.0209 11.7172 58.7572 12.1313 58.3832C12.5451 58.0092 12.9768 57.7031 13.0902 57.7031C13.2037 57.7031 13.2539 57.634 13.2016 57.5496C13.1494 57.4652 13.2541 57.3861 13.4342 57.374C13.6145 57.3617 15.441 57.0207 17.4934 56.616L21.225 55.8805L26.1705 57.3582C28.8906 58.1711 31.2256 58.7941 31.3594 58.7428C31.4932 58.6914 31.6475 58.5324 31.7025 58.3893C31.8188 58.0859 31.432 56.7068 31.2605 56.8129C31.1967 56.8523 31.1354 56.6951 31.124 56.4639C31.1127 56.2324 30.8623 55.3838 30.5676 54.5781C29.9488 52.8865 29.9611 51.7664 30.6123 50.517C30.8367 50.0863 30.9605 49.6672 30.8871 49.5857C30.8139 49.5041 30.852 49.4934 30.9719 49.5617C31.0918 49.6301 31.3555 49.5031 31.5578 49.2793C32.6244 48.1 34.6701 47.6781 36.3018 48.3012C36.8824 48.5229 37.4453 48.65 37.5527 48.5836C37.66 48.5174 37.6967 48.5459 37.6342 48.6471C37.5717 48.7482 38.8092 49.4299 40.3844 50.1617C43.9084 51.799 44.3549 51.8148 45.6311 50.3486C46.0791 49.8338 46.4021 49.3422 46.3488 49.2561C46.2957 49.1701 46.3246 49.1215 46.4133 49.1479C46.5018 49.1744 47.0055 48.9404 47.5328 48.6279C48.5793 48.0074 50.1027 47.5469 51.109 47.5469C51.4615 47.5469 51.75 47.4711 51.75 47.3787C51.75 47.2861 51.9479 47.2453 52.1895 47.2879C52.7811 47.3922 53.8086 46.7246 54.1893 45.9887C54.3596 45.6592 54.6682 44.0752 54.875 42.4688C55.0818 40.8623 55.383 39.2928 55.5443 38.9809C55.9219 38.2508 56.9088 37.4223 57.5756 37.2758C57.8627 37.2127 58.1855 37.1318 58.293 37.0959C58.4004 37.0602 47.1285 37.0238 33.2441 37.0154L8 37ZM58.0088 40.3691C57.9109 40.6109 57.6893 41.991 57.5162 43.4363C57.1867 46.1906 56.8549 47.2238 55.9596 48.2832C55.0398 49.3711 53.8895 49.9043 51.7941 50.2139C50.7494 50.3682 49.5869 50.6527 49.2109 50.8463L48.5273 51.1984L48.4777 74.5074L48.4281 97.8164L48.0043 98.2676C47.4605 98.8463 46.6641 98.8459 46.1199 98.2668L45.6953 97.8147V75.9496V54.0846L43.8887 54.0869L42.082 54.0893L38.4828 52.368C34.7113 50.5645 34.4805 50.5123 33.542 51.2504C32.6941 51.9174 32.7119 52.4176 33.6777 55.0818C34.1645 56.4242 34.5605 57.8047 34.5582 58.1498C34.5514 59.1625 33.8941 60.3572 33.0293 60.9295C31.6666 61.8312 31.2428 61.7865 25.9293 60.1805L21.1047 58.7221L18.0191 59.3045C14.8047 59.9109 14.0568 60.1939 13.424 61.043C12.667 62.0588 13.1002 64.1592 14.2971 65.276C14.5588 65.5199 16.5229 66.4715 18.6617 67.3904C20.8008 68.3094 23.0582 69.3315 23.6785 69.6619C25.8977 70.8439 27.7916 73.1254 28.8666 75.9113C29.5721 77.7391 30.0613 78.4863 32.0355 80.7496C34.2898 83.334 34.7066 83.9553 35.1506 85.3926C35.7305 87.2705 35.6555 88.6945 34.8568 90.9717C33.9822 93.4652 33.8412 94.3066 33.491 99.1273C33.3303 101.339 33.0613 103.874 32.8934 104.759C32.5203 106.726 31.5773 109.524 30.4527 112C29.4498 114.208 29.2863 115.404 29.783 116.9C30.3934 118.738 31.2891 119.405 36.7764 122.109C39.4439 123.424 41.7488 124.5 41.8982 124.5C42.0475 124.5 42.2953 124.258 42.449 123.963C42.8994 123.097 43.6648 122.506 44.6643 122.252L45.5977 122.015L45.6484 112.38C45.6988 102.802 45.7016 102.741 46.1219 102.294C46.6645 101.716 47.4613 101.717 48.0051 102.296L48.4297 102.748V113.096V123.444L51.0184 125.795C52.442 127.088 53.802 128.25 54.0404 128.378C54.7775 128.772 56.2424 128.963 58.9367 129.016L59.0699 129.018C60.7308 129.051 61.4996 129.066 61.8764 128.69C62.2012 128.365 62.2349 127.749 62.2978 126.603L62.3037 126.496C62.4807 123.284 63.6523 121.453 66.7146 119.603C70.283 117.448 72.5133 116.858 74.5152 117.54C75.0307 117.716 75.4807 117.859 75.5152 117.859C75.5498 117.859 75.5781 107.137 75.5781 94.0312C75.5781 70.4635 75.5824 70.1988 75.9688 69.8125C76.4795 69.3018 77.3707 69.3115 77.8428 69.833C78.2033 70.2314 78.2178 70.9963 78.3125 94.5832L78.4102 118.922L80.9492 119.895C83.215 120.763 83.6459 120.866 84.9531 120.852C86.5701 120.835 89.9252 120.074 91.158 119.445C91.959 119.036 93.4633 117.507 94.8828 115.659C96.3564 113.74 96.1898 112.471 94.2852 111.109C92.8992 110.117 92.0076 109.276 91.6795 108.65C91.2934 107.913 90.4211 103.743 90.4262 102.658C90.4316 101.491 90.9686 100.314 91.8102 99.6248C92.1744 99.3264 92.6266 98.9574 92.8145 98.8047C93.3559 98.3652 93.2305 97.4502 92.4791 96.3578C91.6582 95.1645 91.5047 94.4379 91.6625 92.4941C91.7291 91.6746 91.7119 90.891 91.624 90.7529C91.5363 90.6148 91.1201 90.4553 90.699 90.3984C89.2934 90.2086 89.0656 90.1227 88.3873 89.5271C87.5512 88.793 87.0135 87.4609 87.1512 86.4644C87.2937 85.4314 91.166 76.7824 91.8662 75.933C92.5605 75.0908 94.1453 74.3092 95.1645 74.3066C96.2139 74.3039 97.1838 73.8426 97.5242 73.1844C97.7125 72.8199 97.9246 71.2701 98.1209 68.8232C98.4049 65.2832 98.4652 64.9514 99.0135 63.9014C99.715 62.5582 99.7551 61.8092 99.1621 61.1215C98.7957 60.6965 98.1619 60.4709 95.3531 59.7656C93.4998 59.3002 91.7742 58.7822 91.5186 58.6146C91.2629 58.4471 90.323 57.5178 89.4301 56.5496C88.5373 55.5814 87.582 54.7027 87.3076 54.5971C87.0332 54.4914 85.8096 54.2195 84.5885 53.993C82.2674 53.5623 80.4451 52.9672 79.2891 52.2621C78.9131 52.0328 78.5396 51.8449 78.459 51.8445C78.3783 51.8441 78.3125 54.8641 78.3125 58.5557C78.3125 65.0502 78.2994 65.2844 77.9076 65.7822C77.4125 66.4119 76.5309 66.4684 75.9688 65.9062C75.5914 65.5289 75.5779 65.2518 75.573 57.752L75.568 49.9883L74.5863 49.3223C74.0463 48.9559 72.7557 47.6814 71.7184 46.4902C69.0211 43.393 67.7629 42.2041 66.3607 41.4275C64.3668 40.3234 62.7785 39.9297 60.3189 39.9297C58.291 39.9297 58.1783 39.9512 58.0088 40.3691ZM102.551 122.467C103.589 122.988 104.2 123.979 105.037 126.497C105.485 127.844 105.852 129.1 105.852 129.288C105.852 130.304 105.319 131.295 104.149 132.453C103.028 133.563 102.833 133.924 102.871 134.816C102.878 134.957 102.839 135.029 102.786 134.976C102.733 134.923 102.421 135.186 102.093 135.559C101.262 136.506 100.583 136.805 99.2695 136.804C97.7945 136.802 96.9904 136.313 95.7381 134.656C94.2137 132.638 94.0631 132.251 94.2219 130.762C94.2971 130.057 94.3736 129.291 94.3922 129.06C94.4107 128.828 94.4762 128.67 94.5379 128.708C94.5994 128.746 94.765 128.32 94.9059 127.762C95.0465 127.203 95.3436 126.395 95.5656 125.965C95.7879 125.535 95.9518 125.118 95.9301 125.037C95.9084 124.957 96.0006 124.913 96.1348 124.939C96.2691 124.966 96.3547 124.872 96.3252 124.73C96.2957 124.587 96.3471 124.518 96.4395 124.575C96.5316 124.632 96.9953 124.28 97.4695 123.792C99.1201 122.096 100.894 121.634 102.551 122.467ZM99.0787 126.111C97.967 127.247 97.8482 127.457 97.3754 129.127C97.0959 130.114 96.8672 131.064 96.8672 131.239C96.8672 131.568 97.5576 132.597 98.4062 133.533C99.2703 134.486 100.133 134.104 100.5 132.605C100.582 132.271 101.121 131.558 101.756 130.945C102.368 130.354 102.911 129.739 102.962 129.578C103.067 129.248 101.883 125.579 101.536 125.161C101.044 124.568 100.313 124.85 99.0787 126.111Z" fill="url(#paint0_linear_12_512)"/>
<g filter="url(#filter0_d_12_512)">
<path d="M182.501 169.547C179.789 169.547 177.317 169.023 175.084 167.975C172.851 166.926 171.074 165.377 169.752 163.326C168.453 161.253 167.804 158.712 167.804 155.704V140.631H179.698V154.986C179.698 156.035 179.903 156.878 180.313 157.516C180.746 158.154 181.43 158.473 182.364 158.473C184.164 158.473 185.064 157.368 185.064 155.157V108.844H197.198V153.961C197.198 157.151 196.572 159.92 195.318 162.267C194.065 164.591 192.333 166.391 190.123 167.667C187.913 168.92 185.372 169.547 182.501 169.547ZM201.847 169V108.844H225.909V120.465H214.083V132.188H225.431V143.502H214.083V157.276H226.695V169H201.847ZM244.605 169.547C239.592 169.547 235.901 168.146 233.531 165.343C231.161 162.517 229.977 158.37 229.977 152.901V108.844H241.666V152.423C241.666 153.425 241.723 154.394 241.837 155.328C241.951 156.24 242.213 156.992 242.623 157.584C243.033 158.176 243.694 158.473 244.605 158.473C245.54 158.473 246.212 158.188 246.622 157.618C247.032 157.026 247.283 156.262 247.374 155.328C247.488 154.394 247.545 153.425 247.545 152.423V108.844H259.234V152.901C259.234 158.37 258.049 162.517 255.68 165.343C253.31 168.146 249.618 169.547 244.605 169.547ZM262.105 169L268.565 137.11L263.438 108.81H275.196L278.307 129.488L281.075 108.81H292.867L287.74 137.11L294.166 169H281.998L278.204 145.484L274.308 169H262.105ZM79.0049 274V213.844H95.5479C99.8773 213.844 103.136 215.051 105.323 217.467C107.511 219.859 108.604 223.368 108.604 227.994V256.158C108.604 261.855 107.602 266.253 105.597 269.352C103.614 272.451 100.128 274 95.1377 274H79.0049ZM91.1045 263.37H93.1895C95.3997 263.37 96.5049 262.299 96.5049 260.157V229.122C96.5049 227.117 96.2314 225.829 95.6846 225.26C95.1605 224.667 94.0781 224.371 92.4375 224.371H91.1045V263.37ZM113.526 274V213.844H137.589V225.465H125.763V237.188H137.11V248.502H125.763V262.276H138.375V274H113.526ZM158.78 274V213.844H182.843V225.567H170.88V235.138H182.228V246.725H170.88V274H158.78ZM186.739 274V213.844H205.196C208.272 213.844 210.597 214.55 212.169 215.963C213.741 217.353 214.789 219.312 215.313 221.842C215.86 224.348 216.134 227.299 216.134 230.694C216.134 233.976 215.712 236.596 214.869 238.556C214.049 240.515 212.488 241.871 210.187 242.623C212.078 243.01 213.399 243.956 214.151 245.46C214.926 246.941 215.313 248.867 215.313 251.236V274H203.453V250.45C203.453 248.696 203.089 247.613 202.359 247.203C201.653 246.77 200.502 246.554 198.907 246.554V274H186.739ZM198.976 236.129H201.881C203.544 236.129 204.376 234.317 204.376 230.694C204.376 228.347 204.194 226.809 203.829 226.08C203.465 225.351 202.781 224.986 201.778 224.986H198.976V236.129ZM218.458 274L224.269 213.844H244.674L250.382 274H239L238.146 264.293H230.899L230.147 274H218.458ZM231.754 254.688H237.223L234.591 224.098H234.044L231.754 254.688ZM254.073 274V213.844H266.446L271.983 242.657V213.844H283.604V274H271.847L265.831 243.922V274H254.073ZM302.95 274.547C298.598 274.547 295.089 273.191 292.423 270.479C289.78 267.768 288.458 263.974 288.458 259.098V231.344C288.458 225.51 289.609 221.044 291.91 217.945C294.234 214.846 298.006 213.297 303.224 213.297C306.072 213.297 308.601 213.821 310.812 214.869C313.045 215.917 314.799 217.49 316.075 219.586C317.351 221.66 317.989 224.28 317.989 227.447V237.838H306.026V228.951C306.026 227.151 305.799 225.943 305.343 225.328C304.887 224.69 304.181 224.371 303.224 224.371C302.107 224.371 301.355 224.781 300.968 225.602C300.58 226.399 300.387 227.47 300.387 228.814V258.927C300.387 260.59 300.626 261.764 301.104 262.447C301.606 263.131 302.312 263.473 303.224 263.473C304.249 263.473 304.967 263.051 305.377 262.208C305.81 261.365 306.026 260.271 306.026 258.927V248.092H318.126V259.474C318.126 264.76 316.793 268.6 314.127 270.992C311.461 273.362 307.735 274.547 302.95 274.547ZM302.096 295.567C299.749 295.567 297.493 295.112 295.328 294.2V286.578C296.035 286.806 296.729 286.988 297.413 287.125C298.097 287.285 298.746 287.364 299.361 287.364C300.501 287.364 301.446 287.057 302.198 286.441C302.973 285.849 303.36 284.812 303.36 283.331C303.36 282.055 303.041 280.597 302.403 278.956C301.788 277.315 300.922 275.663 299.806 274H305.309C307.519 275.937 309.228 278.09 310.436 280.46C311.666 282.853 312.281 285.108 312.281 287.228C312.281 289.575 311.472 291.546 309.854 293.141C308.237 294.758 305.65 295.567 302.096 295.567ZM320.519 274L326.329 213.844H346.734L352.442 274H341.061L340.206 264.293H332.96L332.208 274H320.519ZM333.814 254.688H339.283L336.651 224.098H336.104L333.814 254.688ZM355.587 274V213.844H367.208V274H355.587ZM386.28 274.547C380.789 274.547 376.824 273.18 374.386 270.445C371.97 267.711 370.763 263.359 370.763 257.389V251.51H382.657V259.029C382.657 260.419 382.862 261.513 383.272 262.311C383.705 263.085 384.446 263.473 385.494 263.473C386.588 263.473 387.34 263.154 387.75 262.516C388.183 261.878 388.399 260.829 388.399 259.371C388.399 257.525 388.217 255.987 387.853 254.757C387.488 253.504 386.85 252.319 385.938 251.202C385.05 250.063 383.808 248.741 382.213 247.237L376.812 242.11C372.779 238.305 370.763 233.953 370.763 229.054C370.763 223.927 371.948 220.019 374.317 217.33C376.71 214.641 380.162 213.297 384.674 213.297C390.188 213.297 394.096 214.767 396.397 217.706C398.722 220.646 399.884 225.112 399.884 231.104H387.647V226.969C387.647 226.148 387.408 225.51 386.93 225.055C386.474 224.599 385.847 224.371 385.05 224.371C384.093 224.371 383.386 224.645 382.931 225.191C382.498 225.715 382.281 226.399 382.281 227.242C382.281 228.085 382.509 228.997 382.965 229.977C383.421 230.956 384.321 232.084 385.665 233.36L392.604 240.025C393.993 241.347 395.27 242.748 396.432 244.229C397.594 245.688 398.528 247.397 399.234 249.356C399.941 251.293 400.294 253.663 400.294 256.466C400.294 262.117 399.246 266.549 397.149 269.762C395.076 272.952 391.453 274.547 386.28 274.547Z" fill="white"/>
</g>
<defs>
<filter id="filter0_d_12_512" x="79.0049" y="108.81" width="331.289" height="196.758" filterUnits="userSpaceOnUse" color-interpolation-filters="sRGB">
<feFlood flood-opacity="0" result="BackgroundImageFix"/>
<feColorMatrix in="SourceAlpha" type="matrix" values="0 0 0 0 0 0 0 0 0 0 0 0 0 0 0 0 0 0 127 0" result="hardAlpha"/>
<feOffset dx="10" dy="10"/>
<feComposite in2="hardAlpha" operator="out"/>
<feColorMatrix type="matrix" values="0 0 0 0 0.397176 0 0 0 0 0.611765 0 0 0 0 0.0470588 0 0 0 1 0"/>
<feBlend mode="normal" in2="BackgroundImageFix" result="effect1_dropShadow_12_512"/>
<feBlend mode="normal" in="SourceGraphic" in2="effect1_dropShadow_12_512" result="shape"/>
</filter>
<linearGradient id="paint0_linear_12_512" x1="479" y1="1.7807e-05" x2="2.59536e-05" y2="384" gradientUnits="userSpaceOnUse">
<stop stop-color="#610C9F"/>
<stop offset="0.285" stop-color="#940B92"/>
<stop offset="0.645" stop-color="#DA0C81"/>
<stop offset="1" stop-color="#E95793"/>
</linearGradient>
</defs>
</svg>
